%TF.GenerationSoftware,KiCad,Pcbnew,10.0.1*%
%TF.CreationDate,2026-04-22T15:13:23-04:00*%
%TF.ProjectId,Spin_Coater,5370696e-5f43-46f6-9174-65722e6b6963,rev?*%
%TF.SameCoordinates,Original*%
%TF.FileFunction,Soldermask,Bot*%
%TF.FilePolarity,Negative*%
%FSLAX46Y46*%
G04 Gerber Fmt 4.6, Leading zero omitted, Abs format (unit mm)*
G04 Created by KiCad (PCBNEW 10.0.1) date 2026-04-22 15:13:23*
%MOMM*%
%LPD*%
G01*
G04 APERTURE LIST*
G04 Aperture macros list*
%AMRoundRect*
0 Rectangle with rounded corners*
0 $1 Rounding radius*
0 $2 $3 $4 $5 $6 $7 $8 $9 X,Y pos of 4 corners*
0 Add a 4 corners polygon primitive as box body*
4,1,4,$2,$3,$4,$5,$6,$7,$8,$9,$2,$3,0*
0 Add four circle primitives for the rounded corners*
1,1,$1+$1,$2,$3*
1,1,$1+$1,$4,$5*
1,1,$1+$1,$6,$7*
1,1,$1+$1,$8,$9*
0 Add four rect primitives between the rounded corners*
20,1,$1+$1,$2,$3,$4,$5,0*
20,1,$1+$1,$4,$5,$6,$7,0*
20,1,$1+$1,$6,$7,$8,$9,0*
20,1,$1+$1,$8,$9,$2,$3,0*%
G04 Aperture macros list end*
%ADD10C,3.200000*%
%ADD11R,1.700000X1.700000*%
%ADD12C,1.700000*%
%ADD13C,2.500000*%
%ADD14R,1.600000X1.600000*%
%ADD15C,1.600000*%
%ADD16O,1.800000X3.400000*%
%ADD17RoundRect,0.060000X0.140000X-0.240000X0.140000X0.240000X-0.140000X0.240000X-0.140000X-0.240000X0*%
%ADD18RoundRect,0.100000X1.150000X-0.800000X1.150000X0.800000X-1.150000X0.800000X-1.150000X-0.800000X0*%
%ADD19RoundRect,0.250000X0.250000X0.475000X-0.250000X0.475000X-0.250000X-0.475000X0.250000X-0.475000X0*%
%ADD20RoundRect,0.060000X-0.240000X-0.140000X0.240000X-0.140000X0.240000X0.140000X-0.240000X0.140000X0*%
%ADD21RoundRect,0.100000X-0.800000X-1.150000X0.800000X-1.150000X0.800000X1.150000X-0.800000X1.150000X0*%
%ADD22RoundRect,0.060000X-0.140000X0.240000X-0.140000X-0.240000X0.140000X-0.240000X0.140000X0.240000X0*%
%ADD23RoundRect,0.100000X-1.150000X0.800000X-1.150000X-0.800000X1.150000X-0.800000X1.150000X0.800000X0*%
%ADD24RoundRect,0.250000X0.450000X-0.262500X0.450000X0.262500X-0.450000X0.262500X-0.450000X-0.262500X0*%
%ADD25RoundRect,0.250000X-0.262500X-0.450000X0.262500X-0.450000X0.262500X0.450000X-0.262500X0.450000X0*%
%ADD26C,2.000000*%
%ADD27C,5.000000*%
%ADD28RoundRect,0.250000X-0.250000X-0.475000X0.250000X-0.475000X0.250000X0.475000X-0.250000X0.475000X0*%
%ADD29RoundRect,0.250000X-0.325000X-1.100000X0.325000X-1.100000X0.325000X1.100000X-0.325000X1.100000X0*%
%ADD30RoundRect,0.250000X-1.400000X-1.000000X1.400000X-1.000000X1.400000X1.000000X-1.400000X1.000000X0*%
%ADD31RoundRect,0.150000X-0.512500X-0.150000X0.512500X-0.150000X0.512500X0.150000X-0.512500X0.150000X0*%
%ADD32RoundRect,0.250000X-0.450000X0.262500X-0.450000X-0.262500X0.450000X-0.262500X0.450000X0.262500X0*%
%ADD33RoundRect,0.250000X0.325000X1.100000X-0.325000X1.100000X-0.325000X-1.100000X0.325000X-1.100000X0*%
%ADD34RoundRect,0.100000X-0.637500X-0.100000X0.637500X-0.100000X0.637500X0.100000X-0.637500X0.100000X0*%
%ADD35RoundRect,0.250000X-0.475000X0.250000X-0.475000X-0.250000X0.475000X-0.250000X0.475000X0.250000X0*%
%ADD36RoundRect,0.250000X-0.650000X0.325000X-0.650000X-0.325000X0.650000X-0.325000X0.650000X0.325000X0*%
%ADD37C,0.550000*%
%ADD38RoundRect,0.060000X0.615000X-0.140000X0.615000X0.140000X-0.615000X0.140000X-0.615000X-0.140000X0*%
%ADD39RoundRect,0.285000X0.665000X-0.665000X0.665000X0.665000X-0.665000X0.665000X-0.665000X-0.665000X0*%
%ADD40RoundRect,0.250000X0.475000X-0.250000X0.475000X0.250000X-0.475000X0.250000X-0.475000X-0.250000X0*%
%ADD41RoundRect,0.062500X-0.312500X-0.062500X0.312500X-0.062500X0.312500X0.062500X-0.312500X0.062500X0*%
%ADD42R,1.800000X2.500000*%
%ADD43RoundRect,0.250000X-0.265000X-0.615000X0.265000X-0.615000X0.265000X0.615000X-0.265000X0.615000X0*%
%ADD44O,1.030000X1.730000*%
%ADD45RoundRect,0.250000X-1.100000X0.325000X-1.100000X-0.325000X1.100000X-0.325000X1.100000X0.325000X0*%
%ADD46RoundRect,0.250000X0.262500X0.450000X-0.262500X0.450000X-0.262500X-0.450000X0.262500X-0.450000X0*%
%ADD47RoundRect,0.250001X0.949999X0.949999X-0.949999X0.949999X-0.949999X-0.949999X0.949999X-0.949999X0*%
%ADD48C,2.400000*%
%ADD49RoundRect,0.250000X0.650000X-1.000000X0.650000X1.000000X-0.650000X1.000000X-0.650000X-1.000000X0*%
%ADD50RoundRect,0.250000X1.000000X0.650000X-1.000000X0.650000X-1.000000X-0.650000X1.000000X-0.650000X0*%
%ADD51RoundRect,0.352500X-0.822500X-1.397500X0.822500X-1.397500X0.822500X1.397500X-0.822500X1.397500X0*%
%ADD52RoundRect,0.277500X0.647500X2.472500X-0.647500X2.472500X-0.647500X-2.472500X0.647500X-2.472500X0*%
%ADD53RoundRect,0.062500X0.355000X0.062500X-0.355000X0.062500X-0.355000X-0.062500X0.355000X-0.062500X0*%
%ADD54RoundRect,0.062500X0.062500X0.355000X-0.062500X0.355000X-0.062500X-0.355000X0.062500X-0.355000X0*%
%ADD55R,1.680000X1.680000*%
%ADD56C,0.650000*%
%ADD57RoundRect,0.150000X0.500000X-0.150000X0.500000X0.150000X-0.500000X0.150000X-0.500000X-0.150000X0*%
%ADD58RoundRect,0.075000X0.575000X-0.075000X0.575000X0.075000X-0.575000X0.075000X-0.575000X-0.075000X0*%
%ADD59O,1.800000X1.000000*%
%ADD60O,2.100000X1.000000*%
%ADD61R,0.900000X1.500000*%
%ADD62R,1.500000X0.900000*%
%ADD63C,0.600000*%
%ADD64R,3.900000X3.900000*%
G04 APERTURE END LIST*
D10*
%TO.C,H2*%
X76000000Y-73500000D03*
%TD*%
%TO.C,H1*%
X153500000Y-73500000D03*
%TD*%
D11*
%TO.C,SW3*%
X93630000Y-145750000D03*
D12*
X96170000Y-145750000D03*
X98710000Y-145750000D03*
X101250000Y-145750000D03*
X103790000Y-145750000D03*
X106330000Y-145750000D03*
X108870000Y-145750000D03*
%TD*%
D13*
%TO.C,U4*%
X139000000Y-75700000D03*
X139000000Y-108800000D03*
X204000000Y-75700000D03*
X204000000Y-108800000D03*
D14*
X178500000Y-104900000D03*
D15*
X176500000Y-104900000D03*
X174500000Y-104900000D03*
X172500000Y-104900000D03*
X170500000Y-104900000D03*
X168500000Y-104900000D03*
X166500000Y-104900000D03*
X164500000Y-104900000D03*
D16*
X132950000Y-93250000D03*
X132950000Y-84750000D03*
%TD*%
D10*
%TO.C,H4*%
X126500000Y-146500000D03*
%TD*%
%TO.C,H3*%
X204000000Y-146500000D03*
%TD*%
D17*
%TO.C,Q6*%
X129000000Y-116000000D03*
X128350000Y-116000000D03*
X127700000Y-116000000D03*
X127050000Y-116000000D03*
D18*
X128025000Y-114150000D03*
D17*
X127050000Y-113000000D03*
X127700000Y-113000000D03*
X128350000Y-113000000D03*
X129000000Y-113000000D03*
%TD*%
D19*
%TO.C,C5*%
X108950000Y-95500000D03*
X107050000Y-95500000D03*
%TD*%
D20*
%TO.C,Q4*%
X140250000Y-123250000D03*
X140250000Y-122600000D03*
X140250000Y-121950000D03*
X140250000Y-121300000D03*
D21*
X142100000Y-122275000D03*
D20*
X143250000Y-121300000D03*
X143250000Y-121950000D03*
X143250000Y-122600000D03*
X143250000Y-123250000D03*
%TD*%
D22*
%TO.C,Q3*%
X128750000Y-134500000D03*
X129400000Y-134500000D03*
X130050000Y-134500000D03*
X130700000Y-134500000D03*
D23*
X129725000Y-136350000D03*
D22*
X130700000Y-137500000D03*
X130050000Y-137500000D03*
X129400000Y-137500000D03*
X128750000Y-137500000D03*
%TD*%
D17*
%TO.C,Q7*%
X133250000Y-116000000D03*
X132600000Y-116000000D03*
X131950000Y-116000000D03*
X131300000Y-116000000D03*
D18*
X132275000Y-114150000D03*
D17*
X131300000Y-113000000D03*
X131950000Y-113000000D03*
X132600000Y-113000000D03*
X133250000Y-113000000D03*
%TD*%
D19*
%TO.C,C9*%
X170450000Y-102250000D03*
X168550000Y-102250000D03*
%TD*%
D24*
%TO.C,R19*%
X127000000Y-119412500D03*
X127000000Y-117587500D03*
%TD*%
D20*
%TO.C,Q1*%
X84500000Y-85500000D03*
X84500000Y-84850000D03*
X84500000Y-84200000D03*
X84500000Y-83550000D03*
D21*
X86350000Y-84525000D03*
D20*
X87500000Y-83550000D03*
X87500000Y-84200000D03*
X87500000Y-84850000D03*
X87500000Y-85500000D03*
%TD*%
D25*
%TO.C,R17*%
X136837500Y-121250000D03*
X138662500Y-121250000D03*
%TD*%
D26*
%TO.C,SW2*%
X117250000Y-148000000D03*
X117250000Y-141500000D03*
X112750000Y-148000000D03*
X112750000Y-141500000D03*
%TD*%
D27*
%TO.C,M1B*%
X147000000Y-124250000D03*
%TD*%
D28*
%TO.C,C3*%
X107050000Y-91000000D03*
X108950000Y-91000000D03*
%TD*%
D29*
%TO.C,C16*%
X121775000Y-94250000D03*
X124725000Y-94250000D03*
%TD*%
D30*
%TO.C,D5*%
X122500000Y-110900000D03*
X122500000Y-104100000D03*
%TD*%
D25*
%TO.C,R6*%
X88587500Y-89250000D03*
X90412500Y-89250000D03*
%TD*%
D31*
%TO.C,U3*%
X96225000Y-96400000D03*
X96225000Y-95450000D03*
X96225000Y-94500000D03*
X98500000Y-94500000D03*
X98500000Y-95450000D03*
X98500000Y-96400000D03*
%TD*%
D26*
%TO.C,SW1*%
X99500000Y-118250000D03*
X99500000Y-111750000D03*
X95000000Y-118250000D03*
X95000000Y-111750000D03*
%TD*%
D32*
%TO.C,R3*%
X111500000Y-94587500D03*
X111500000Y-96412500D03*
%TD*%
D20*
%TO.C,Q5*%
X140250000Y-127500000D03*
X140250000Y-126850000D03*
X140250000Y-126200000D03*
X140250000Y-125550000D03*
D21*
X142100000Y-126525000D03*
D20*
X143250000Y-125550000D03*
X143250000Y-126200000D03*
X143250000Y-126850000D03*
X143250000Y-127500000D03*
%TD*%
D33*
%TO.C,C24*%
X91475000Y-102000000D03*
X88525000Y-102000000D03*
%TD*%
D34*
%TO.C,U5*%
X127137500Y-128175000D03*
X127137500Y-127525000D03*
X127137500Y-126875000D03*
X127137500Y-126225000D03*
X127137500Y-125575000D03*
X127137500Y-124925000D03*
X127137500Y-124275000D03*
X127137500Y-123625000D03*
X127137500Y-122975000D03*
X127137500Y-122325000D03*
X132862500Y-122325000D03*
X132862500Y-122975000D03*
X132862500Y-123625000D03*
X132862500Y-124275000D03*
X132862500Y-124925000D03*
X132862500Y-125575000D03*
X132862500Y-126225000D03*
X132862500Y-126875000D03*
X132862500Y-127525000D03*
X132862500Y-128175000D03*
%TD*%
D28*
%TO.C,C26*%
X136800000Y-123500000D03*
X138700000Y-123500000D03*
%TD*%
D19*
%TO.C,C4*%
X108950000Y-97750000D03*
X107050000Y-97750000D03*
%TD*%
D35*
%TO.C,C25*%
X132750000Y-131050000D03*
X132750000Y-132950000D03*
%TD*%
D36*
%TO.C,C10*%
X93750000Y-93275000D03*
X93750000Y-96225000D03*
%TD*%
D37*
%TO.C,J3*%
X77430000Y-102500000D03*
X77430000Y-98500000D03*
D38*
X77955000Y-101800000D03*
X77955000Y-101150000D03*
X77955000Y-100500000D03*
X77955000Y-99850000D03*
X77955000Y-99200000D03*
D39*
X75280000Y-104450000D03*
X75280000Y-101700000D03*
X75280000Y-99300000D03*
X75280000Y-96550000D03*
%TD*%
D40*
%TO.C,C12*%
X119000000Y-84450000D03*
X119000000Y-82550000D03*
%TD*%
D33*
%TO.C,C15*%
X124725000Y-90500000D03*
X121775000Y-90500000D03*
%TD*%
D29*
%TO.C,C19*%
X121775000Y-98000000D03*
X124725000Y-98000000D03*
%TD*%
D24*
%TO.C,R11*%
X98500000Y-92662500D03*
X98500000Y-90837500D03*
%TD*%
D40*
%TO.C,C27*%
X129250000Y-119450000D03*
X129250000Y-117550000D03*
%TD*%
D41*
%TO.C,U2*%
X83775000Y-89500000D03*
X83775000Y-89000000D03*
X83775000Y-88500000D03*
X83775000Y-88000000D03*
X83775000Y-87500000D03*
X86725000Y-87500000D03*
X86725000Y-88000000D03*
X86725000Y-88500000D03*
X86725000Y-89000000D03*
X86725000Y-89500000D03*
D42*
X85250000Y-88500000D03*
%TD*%
D43*
%TO.C,J2*%
X111750000Y-137755000D03*
D44*
X113250000Y-137755000D03*
X114750000Y-137755000D03*
X116250000Y-137755000D03*
X117750000Y-137755000D03*
X119250000Y-137755000D03*
%TD*%
D32*
%TO.C,R16*%
X130500000Y-131087500D03*
X130500000Y-132912500D03*
%TD*%
D45*
%TO.C,C6*%
X98750000Y-84275000D03*
X98750000Y-87225000D03*
%TD*%
D27*
%TO.C,M1C*%
X130000000Y-109250000D03*
%TD*%
D46*
%TO.C,R5*%
X86500000Y-81500000D03*
X84675000Y-81500000D03*
%TD*%
D40*
%TO.C,C13*%
X100750000Y-98950000D03*
X100750000Y-97050000D03*
%TD*%
D33*
%TO.C,C21*%
X91475000Y-98500000D03*
X88525000Y-98500000D03*
%TD*%
D46*
%TO.C,R10*%
X102412500Y-94500000D03*
X100587500Y-94500000D03*
%TD*%
D40*
%TO.C,C35*%
X92000000Y-118950000D03*
X92000000Y-117050000D03*
%TD*%
D47*
%TO.C,C23*%
X119000000Y-119000000D03*
D48*
X114000000Y-119000000D03*
%TD*%
D24*
%TO.C,R20*%
X131500000Y-119412500D03*
X131500000Y-117587500D03*
%TD*%
D27*
%TO.C,M1A*%
X131750000Y-141250000D03*
%TD*%
D49*
%TO.C,D4*%
X115500000Y-108000000D03*
X115500000Y-104000000D03*
%TD*%
D32*
%TO.C,R15*%
X135000000Y-131087500D03*
X135000000Y-132912500D03*
%TD*%
D50*
%TO.C,D3*%
X116000000Y-86000000D03*
X112000000Y-86000000D03*
%TD*%
D19*
%TO.C,C14*%
X166450000Y-102250000D03*
X164550000Y-102250000D03*
%TD*%
D22*
%TO.C,Q2*%
X133000000Y-134500000D03*
X133650000Y-134500000D03*
X134300000Y-134500000D03*
X134950000Y-134500000D03*
D23*
X133975000Y-136350000D03*
D22*
X134950000Y-137500000D03*
X134300000Y-137500000D03*
X133650000Y-137500000D03*
X133000000Y-137500000D03*
%TD*%
D29*
%TO.C,C11*%
X121775000Y-86750000D03*
X124725000Y-86750000D03*
%TD*%
D24*
%TO.C,R7*%
X82750000Y-85575000D03*
X82750000Y-83750000D03*
%TD*%
D49*
%TO.C,D1*%
X94000000Y-88750000D03*
X94000000Y-84750000D03*
%TD*%
D46*
%TO.C,R9*%
X108912500Y-93250000D03*
X107087500Y-93250000D03*
%TD*%
D35*
%TO.C,C8*%
X86000000Y-91300000D03*
X86000000Y-93200000D03*
%TD*%
D25*
%TO.C,R18*%
X136837500Y-125750000D03*
X138662500Y-125750000D03*
%TD*%
D51*
%TO.C,L1*%
X102475000Y-84250000D03*
X108525000Y-84250000D03*
%TD*%
D52*
%TO.C,L2*%
X98075000Y-100500000D03*
X94425000Y-100500000D03*
%TD*%
D24*
%TO.C,R2*%
X116000000Y-92662500D03*
X116000000Y-90837500D03*
%TD*%
D25*
%TO.C,R4*%
X82087500Y-91500000D03*
X83912500Y-91500000D03*
%TD*%
D24*
%TO.C,R1*%
X113750000Y-96412500D03*
X113750000Y-94587500D03*
%TD*%
D28*
%TO.C,C7*%
X178550000Y-102250000D03*
X180450000Y-102250000D03*
%TD*%
D40*
%TO.C,C1*%
X116000000Y-96450000D03*
X116000000Y-94550000D03*
%TD*%
D53*
%TO.C,U1*%
X113707500Y-90250000D03*
X113707500Y-90750000D03*
X113707500Y-91250000D03*
X113707500Y-91750000D03*
D54*
X113000000Y-92457500D03*
X112500000Y-92457500D03*
X112000000Y-92457500D03*
X111500000Y-92457500D03*
D53*
X110792500Y-91750000D03*
X110792500Y-91250000D03*
X110792500Y-90750000D03*
X110792500Y-90250000D03*
D54*
X111500000Y-89542500D03*
X112000000Y-89542500D03*
X112500000Y-89542500D03*
X113000000Y-89542500D03*
D55*
X112250000Y-91000000D03*
%TD*%
D56*
%TO.C,J1*%
X78780000Y-91890000D03*
X78780000Y-86110000D03*
D57*
X79930000Y-92200000D03*
X79930000Y-91400000D03*
D58*
X79930000Y-90250000D03*
X79930000Y-89250000D03*
X79930000Y-88750000D03*
X79930000Y-87750000D03*
D57*
X79930000Y-86600000D03*
X79930000Y-85800000D03*
X79930000Y-85800000D03*
X79930000Y-86600000D03*
D58*
X79930000Y-87250000D03*
X79930000Y-88250000D03*
X79930000Y-89750000D03*
X79930000Y-90750000D03*
D57*
X79930000Y-91400000D03*
X79930000Y-92200000D03*
D59*
X75100000Y-93320000D03*
D60*
X79280000Y-93320000D03*
D59*
X75100000Y-84680000D03*
D60*
X79280000Y-84680000D03*
%TD*%
D50*
%TO.C,D2*%
X85250000Y-102500000D03*
X81250000Y-102500000D03*
%TD*%
D12*
%TO.C,SW4*%
X125750000Y-141250000D03*
D11*
X123210000Y-141250000D03*
D12*
X125750000Y-138710000D03*
D11*
X123210000Y-138710000D03*
%TD*%
D61*
%TO.C,U6*%
X90830000Y-121100000D03*
X92100000Y-121100000D03*
X93370000Y-121100000D03*
X94640000Y-121100000D03*
X95910000Y-121100000D03*
X97180000Y-121100000D03*
X98450000Y-121100000D03*
X99720000Y-121100000D03*
X100990000Y-121100000D03*
X102260000Y-121100000D03*
X103530000Y-121100000D03*
X104800000Y-121100000D03*
X106070000Y-121100000D03*
X107340000Y-121100000D03*
D62*
X108590000Y-122865000D03*
X108590000Y-124135000D03*
X108590000Y-125405000D03*
X108590000Y-126675000D03*
X108590000Y-127945000D03*
X108590000Y-129215000D03*
X108590000Y-130485000D03*
X108590000Y-131755000D03*
X108590000Y-133025000D03*
X108590000Y-134295000D03*
X108590000Y-135565000D03*
X108590000Y-136835000D03*
D61*
X107340000Y-138600000D03*
X106070000Y-138600000D03*
X104800000Y-138600000D03*
X103530000Y-138600000D03*
X102260000Y-138600000D03*
X100990000Y-138600000D03*
X99720000Y-138600000D03*
X98450000Y-138600000D03*
X97180000Y-138600000D03*
X95910000Y-138600000D03*
X94640000Y-138600000D03*
X93370000Y-138600000D03*
X92100000Y-138600000D03*
X90830000Y-138600000D03*
D63*
X99250000Y-126950000D03*
X97850000Y-126950000D03*
X99950000Y-127650000D03*
X98550000Y-127650000D03*
X97150000Y-127650000D03*
X99250000Y-128350000D03*
D64*
X98550000Y-128350000D03*
D63*
X97850000Y-128350000D03*
X99950000Y-129050000D03*
X98550000Y-129050000D03*
X97150000Y-129050000D03*
X99250000Y-129750000D03*
X97850000Y-129750000D03*
%TD*%
M02*
