%TF.GenerationSoftware,KiCad,Pcbnew,10.0.1*%
%TF.CreationDate,2026-05-20T18:46:21-04:00*%
%TF.ProjectId,Spin_Coater,5370696e-5f43-46f6-9174-65722e6b6963,rev?*%
%TF.SameCoordinates,Original*%
%TF.FileFunction,Soldermask,Top*%
%TF.FilePolarity,Negative*%
%FSLAX46Y46*%
G04 Gerber Fmt 4.6, Leading zero omitted, Abs format (unit mm)*
G04 Created by KiCad (PCBNEW 10.0.1) date 2026-05-20 18:46:21*
%MOMM*%
%LPD*%
G01*
G04 APERTURE LIST*
G04 Aperture macros list*
%AMRoundRect*
0 Rectangle with rounded corners*
0 $1 Rounding radius*
0 $2 $3 $4 $5 $6 $7 $8 $9 X,Y pos of 4 corners*
0 Add a 4 corners polygon primitive as box body*
4,1,4,$2,$3,$4,$5,$6,$7,$8,$9,$2,$3,0*
0 Add four circle primitives for the rounded corners*
1,1,$1+$1,$2,$3*
1,1,$1+$1,$4,$5*
1,1,$1+$1,$6,$7*
1,1,$1+$1,$8,$9*
0 Add four rect primitives between the rounded corners*
20,1,$1+$1,$2,$3,$4,$5,0*
20,1,$1+$1,$4,$5,$6,$7,0*
20,1,$1+$1,$6,$7,$8,$9,0*
20,1,$1+$1,$8,$9,$2,$3,0*%
G04 Aperture macros list end*
%ADD10RoundRect,0.250000X0.650000X-0.325000X0.650000X0.325000X-0.650000X0.325000X-0.650000X-0.325000X0*%
%ADD11C,3.200000*%
%ADD12RoundRect,0.225000X0.225000X0.375000X-0.225000X0.375000X-0.225000X-0.375000X0.225000X-0.375000X0*%
%ADD13RoundRect,0.225000X-0.375000X0.225000X-0.375000X-0.225000X0.375000X-0.225000X0.375000X0.225000X0*%
%ADD14RoundRect,0.250000X0.450000X-0.262500X0.450000X0.262500X-0.450000X0.262500X-0.450000X-0.262500X0*%
%ADD15RoundRect,0.250000X-0.262500X-0.450000X0.262500X-0.450000X0.262500X0.450000X-0.262500X0.450000X0*%
%ADD16RoundRect,0.250000X-0.475000X0.250000X-0.475000X-0.250000X0.475000X-0.250000X0.475000X0.250000X0*%
%ADD17RoundRect,0.250000X-0.250000X-0.475000X0.250000X-0.475000X0.250000X0.475000X-0.250000X0.475000X0*%
%ADD18RoundRect,0.250000X0.250000X0.475000X-0.250000X0.475000X-0.250000X-0.475000X0.250000X-0.475000X0*%
%ADD19R,1.700000X1.700000*%
%ADD20C,1.700000*%
%ADD21RoundRect,0.225000X-0.225000X-0.375000X0.225000X-0.375000X0.225000X0.375000X-0.225000X0.375000X0*%
%ADD22C,2.500000*%
%ADD23R,1.600000X1.600000*%
%ADD24C,1.600000*%
%ADD25O,1.800000X3.400000*%
%ADD26RoundRect,0.250000X0.475000X-0.250000X0.475000X0.250000X-0.475000X0.250000X-0.475000X-0.250000X0*%
%ADD27C,2.000000*%
%ADD28C,5.500000*%
%ADD29C,0.550000*%
%ADD30RoundRect,0.250000X-0.265000X-0.615000X0.265000X-0.615000X0.265000X0.615000X-0.265000X0.615000X0*%
%ADD31O,1.030000X1.730000*%
%ADD32RoundRect,0.250001X0.949999X0.949999X-0.949999X0.949999X-0.949999X-0.949999X0.949999X-0.949999X0*%
%ADD33C,2.400000*%
%ADD34C,0.650000*%
%ADD35O,1.800000X1.000000*%
%ADD36O,2.100000X1.000000*%
G04 APERTURE END LIST*
D10*
%TO.C,C34*%
X92000000Y-118975000D03*
X92000000Y-116025000D03*
%TD*%
D11*
%TO.C,H2*%
X92500000Y-73500000D03*
%TD*%
D10*
%TO.C,C18*%
X121750000Y-124725000D03*
X121750000Y-121775000D03*
%TD*%
D12*
%TO.C,D6*%
X136400000Y-132500000D03*
X133100000Y-132500000D03*
%TD*%
D13*
%TO.C,D9*%
X138250000Y-125600000D03*
X138250000Y-128900000D03*
%TD*%
D14*
%TO.C,R13*%
X99250000Y-125412500D03*
X99250000Y-123587500D03*
%TD*%
D15*
%TO.C,R12*%
X94337500Y-116000000D03*
X96162500Y-116000000D03*
%TD*%
D14*
%TO.C,R14*%
X101500000Y-125412500D03*
X101500000Y-123587500D03*
%TD*%
D10*
%TO.C,C17*%
X124250000Y-124725000D03*
X124250000Y-121775000D03*
%TD*%
D16*
%TO.C,C32*%
X142750000Y-123300000D03*
X142750000Y-125200000D03*
%TD*%
D17*
%TO.C,C33*%
X129300000Y-115500000D03*
X131200000Y-115500000D03*
%TD*%
D18*
%TO.C,C22*%
X99950000Y-116000000D03*
X98050000Y-116000000D03*
%TD*%
D13*
%TO.C,D8*%
X138250000Y-119850000D03*
X138250000Y-123150000D03*
%TD*%
D11*
%TO.C,H1*%
X153500000Y-73500000D03*
%TD*%
D18*
%TO.C,C28*%
X133200000Y-135000000D03*
X131300000Y-135000000D03*
%TD*%
D19*
%TO.C,SW3*%
X93630000Y-145750000D03*
D20*
X96170000Y-145750000D03*
X98710000Y-145750000D03*
X101250000Y-145750000D03*
X103790000Y-145750000D03*
X106330000Y-145750000D03*
X108870000Y-145750000D03*
%TD*%
D18*
%TO.C,C31*%
X133200000Y-137000000D03*
X131300000Y-137000000D03*
%TD*%
D16*
%TO.C,C29*%
X140750000Y-123300000D03*
X140750000Y-125200000D03*
%TD*%
D14*
%TO.C,R21*%
X121000000Y-141412500D03*
X121000000Y-139587500D03*
%TD*%
D21*
%TO.C,D11*%
X131350000Y-118000000D03*
X134650000Y-118000000D03*
%TD*%
D22*
%TO.C,U4*%
X139000000Y-75200000D03*
X139000000Y-108300000D03*
X204000000Y-75200000D03*
X204000000Y-108300000D03*
D23*
X178500000Y-104400000D03*
D24*
X176500000Y-104400000D03*
X174500000Y-104400000D03*
X172500000Y-104400000D03*
X170500000Y-104400000D03*
X168500000Y-104400000D03*
X166500000Y-104400000D03*
X164500000Y-104400000D03*
D25*
X132950000Y-92750000D03*
X132950000Y-84250000D03*
%TD*%
D16*
%TO.C,C20*%
X121000000Y-135800000D03*
X121000000Y-137700000D03*
%TD*%
D17*
%TO.C,C30*%
X129300000Y-113500000D03*
X131200000Y-113500000D03*
%TD*%
D21*
%TO.C,D10*%
X125600000Y-118000000D03*
X128900000Y-118000000D03*
%TD*%
D26*
%TO.C,C2*%
X114500000Y-95450000D03*
X114500000Y-93550000D03*
%TD*%
D15*
%TO.C,R8*%
X107087500Y-93250000D03*
X108912500Y-93250000D03*
%TD*%
D11*
%TO.C,H4*%
X126500000Y-146500000D03*
%TD*%
%TO.C,H3*%
X187500000Y-146500000D03*
%TD*%
D12*
%TO.C,D7*%
X130650000Y-132500000D03*
X127350000Y-132500000D03*
%TD*%
D27*
%TO.C,SW2*%
X117250000Y-148000000D03*
X117250000Y-141500000D03*
X112750000Y-148000000D03*
X112750000Y-141500000D03*
%TD*%
D28*
%TO.C,M1B1*%
X147250000Y-124250000D03*
%TD*%
D27*
%TO.C,SW1*%
X99500000Y-118250000D03*
X99500000Y-111750000D03*
X95000000Y-118250000D03*
X95000000Y-111750000D03*
%TD*%
D29*
%TO.C,J3*%
X77430000Y-102500000D03*
X77430000Y-98500000D03*
%TD*%
D30*
%TO.C,J2*%
X111750000Y-137755000D03*
D31*
X113250000Y-137755000D03*
X114750000Y-137755000D03*
X116250000Y-137755000D03*
X117750000Y-137755000D03*
X119250000Y-137755000D03*
%TD*%
D28*
%TO.C,M1C1*%
X130000000Y-109000000D03*
%TD*%
D32*
%TO.C,C23*%
X119000000Y-119000000D03*
D33*
X114000000Y-119000000D03*
%TD*%
D28*
%TO.C,M1A1*%
X131750000Y-141500000D03*
%TD*%
D34*
%TO.C,J1*%
X78780000Y-91890000D03*
X78780000Y-86110000D03*
D35*
X75100000Y-93320000D03*
D36*
X79280000Y-93320000D03*
D35*
X75100000Y-84680000D03*
D36*
X79280000Y-84680000D03*
%TD*%
D27*
%TO.C,SW4*%
X126000000Y-141250000D03*
D19*
X123460000Y-141250000D03*
D27*
X126000000Y-138710000D03*
D19*
X123460000Y-138710000D03*
%TD*%
M02*
