%TF.GenerationSoftware,KiCad,Pcbnew,10.0.1*%
%TF.CreationDate,2026-05-19T19:09:51-04:00*%
%TF.ProjectId,Spin_Coater,5370696e-5f43-46f6-9174-65722e6b6963,rev?*%
%TF.SameCoordinates,Original*%
%TF.FileFunction,Legend,Top*%
%TF.FilePolarity,Positive*%
%FSLAX46Y46*%
G04 Gerber Fmt 4.6, Leading zero omitted, Abs format (unit mm)*
G04 Created by KiCad (PCBNEW 10.0.1) date 2026-05-19 19:09:51*
%MOMM*%
%LPD*%
G01*
G04 APERTURE LIST*
%ADD10C,0.100000*%
%ADD11C,0.000000*%
%ADD12C,0.150000*%
%ADD13C,0.120000*%
G04 APERTURE END LIST*
D10*
X75750000Y-78000000D02*
X76850000Y-78000000D01*
X77250000Y-78000000D02*
X78350000Y-78000000D01*
X78750000Y-78000000D02*
X79850000Y-78000000D01*
X80250000Y-78000000D02*
X81350000Y-78000000D01*
X81750000Y-78000000D02*
X82850000Y-78000000D01*
X83250000Y-78000000D02*
X84350000Y-78000000D01*
X84750000Y-78000000D02*
X85850000Y-78000000D01*
X86250000Y-78000000D02*
X87350000Y-78000000D01*
X87750000Y-78000000D02*
X88850000Y-78000000D01*
X89250000Y-78000000D02*
X90350000Y-78000000D01*
X90750000Y-78000000D02*
X91850000Y-78000000D01*
X92250000Y-78000000D02*
X93350000Y-78000000D01*
X93750000Y-78000000D02*
X94850000Y-78000000D01*
X95250000Y-78000000D02*
X96350000Y-78000000D01*
X96750000Y-78000000D02*
X97850000Y-78000000D01*
X98250000Y-78000000D02*
X99350000Y-78000000D01*
X99750000Y-78000000D02*
X100850000Y-78000000D01*
X101250000Y-78000000D02*
X102350000Y-78000000D01*
X102750000Y-78000000D02*
X103850000Y-78000000D01*
X104250000Y-78000000D02*
X105350000Y-78000000D01*
X105750000Y-78000000D02*
X106850000Y-78000000D01*
X107250000Y-78000000D02*
X108350000Y-78000000D01*
X108750000Y-78000000D02*
X109850000Y-78000000D01*
X110250000Y-78000000D02*
X111350000Y-78000000D01*
X111750000Y-78000000D02*
X112850000Y-78000000D01*
X113250000Y-78000000D02*
X114350000Y-78000000D01*
X114750000Y-78000000D02*
X115850000Y-78000000D01*
X116250000Y-78000000D02*
X117350000Y-78000000D01*
X117750000Y-78000000D02*
X118850000Y-78000000D01*
X119250000Y-78000000D02*
X120350000Y-78000000D01*
X120750000Y-78000000D02*
X121850000Y-78000000D01*
X122250000Y-78000000D02*
X123350000Y-78000000D01*
X123750000Y-78000000D02*
X124850000Y-78000000D01*
X125250000Y-78000000D02*
X126350000Y-78000000D01*
D11*
X126750000Y-78000000D02*
X126749999Y-78000000D01*
X126749999Y-78000000D01*
X126749999Y-78000000D01*
X126749999Y-78000000D01*
X126749999Y-78000000D01*
X126749999Y-78000000D01*
X126749999Y-78000000D01*
X126749999Y-77999999D01*
X126749999Y-77999999D01*
X126749999Y-77999999D01*
X126749999Y-77999999D01*
X126749999Y-77999999D01*
X126750000Y-77999999D01*
X126750000Y-77999999D01*
X126750000Y-77999999D01*
X126750000Y-77999999D01*
X126750000Y-77999999D01*
X126750000Y-77999999D01*
X126750000Y-77999999D01*
X126750000Y-77999999D01*
X126750000Y-77999999D01*
X126750000Y-77999999D01*
X126750000Y-77999999D01*
X126750000Y-77999999D01*
X126750001Y-77999999D01*
X126750001Y-77999999D01*
X126750001Y-77999999D01*
X126750001Y-77999999D01*
X126750001Y-77999999D01*
X126750001Y-77999999D01*
X126750001Y-78000000D01*
X126750001Y-78000000D01*
X126750001Y-78000000D01*
X126750001Y-78000000D01*
X126750001Y-78000000D01*
X126750001Y-78000000D01*
X126750001Y-78000000D01*
X126750000Y-78000000D01*
X126750000Y-78000000D02*
X126750001Y-78000000D01*
X126750001Y-78000000D01*
X126750001Y-78000000D01*
X126750001Y-78000000D01*
X126750001Y-78000000D01*
X126750001Y-78000000D01*
X126750001Y-78000001D01*
X126750001Y-78000001D01*
X126750001Y-78000001D01*
X126750001Y-78000001D01*
X126750001Y-78000001D01*
X126750001Y-78000001D01*
X126750001Y-78000001D01*
X126750000Y-78000001D01*
X126750000Y-78000001D01*
X126750000Y-78000001D01*
X126750000Y-78000001D01*
X126750000Y-78000001D01*
X126750000Y-78000001D01*
X126750000Y-78000001D01*
X126750000Y-78000001D01*
X126750000Y-78000001D01*
X126750000Y-78000001D01*
X126750000Y-78000001D01*
X126750000Y-78000001D01*
X126749999Y-78000001D01*
X126749999Y-78000001D01*
X126749999Y-78000001D01*
X126749999Y-78000001D01*
X126749999Y-78000001D01*
X126749999Y-78000001D01*
X126749999Y-78000000D01*
X126749999Y-78000000D01*
X126749999Y-78000000D01*
X126749999Y-78000000D01*
X126749999Y-78000000D01*
X126749999Y-78000000D01*
X126750000Y-78000000D01*
D10*
X126750000Y-78000000D02*
X126750000Y-79100000D01*
X126750000Y-79500000D02*
X126750000Y-80600000D01*
X126750000Y-81000000D02*
X126750000Y-82100000D01*
X126750000Y-82500000D02*
X126750000Y-83600000D01*
X126750000Y-84000000D02*
X126750000Y-85100000D01*
X126750000Y-85500000D02*
X126750000Y-86600000D01*
X126750000Y-87000000D02*
X126750000Y-88100000D01*
X126750000Y-88500000D02*
X126750000Y-89600000D01*
X126750000Y-90000000D02*
X126750000Y-91100000D01*
X126750000Y-91500000D02*
X126750000Y-92600000D01*
X126750000Y-93000000D02*
X126750000Y-94100000D01*
X126750000Y-94500000D02*
X126750000Y-95600000D01*
X126750000Y-96000000D02*
X126750000Y-97100000D01*
X126750000Y-97500000D02*
X126750000Y-98600000D01*
X126750000Y-99000000D02*
X126750000Y-100100000D01*
X126750000Y-100500000D02*
X126750000Y-101600000D01*
X126750000Y-102000000D02*
X126750000Y-103100000D01*
X126750000Y-103500000D02*
X126750000Y-104600000D01*
X126750000Y-105000000D02*
X126750000Y-106100000D01*
X126750000Y-106500000D02*
X126750000Y-107600000D01*
X126750000Y-108000000D02*
X126750000Y-109100000D01*
X126750000Y-109500000D02*
X126750000Y-110600000D01*
X126750000Y-111000000D02*
X126750000Y-112100000D01*
X126750000Y-112500000D02*
X126750000Y-113600000D01*
X126750000Y-114000000D02*
X126750000Y-115100000D01*
X126750000Y-115500000D02*
X126750000Y-116600000D01*
X126750000Y-117000000D02*
X126750000Y-118100000D01*
X126750000Y-118500000D02*
X126750000Y-119600000D01*
X126750000Y-120000000D02*
X126750000Y-121100000D01*
X126750000Y-121500000D02*
X126750000Y-122600000D01*
X126750000Y-123000000D02*
X126750000Y-124100000D01*
X126750000Y-124500000D02*
X126750000Y-125600000D01*
X126750000Y-126000000D02*
X126750000Y-127100000D01*
X126750000Y-127500000D02*
X126750000Y-128600000D01*
X126750000Y-129000000D02*
X126750000Y-130100000D01*
X126750000Y-130500000D02*
X126750000Y-131600000D01*
X126750000Y-132000000D02*
X126750000Y-133100000D01*
X126750000Y-133500000D02*
X126750000Y-134600000D01*
X126750000Y-135000000D02*
X126750000Y-136100000D01*
X126750000Y-136500000D02*
X126750000Y-137600000D01*
X126750000Y-138000000D02*
X126750000Y-139100000D01*
X126750000Y-139500000D02*
X126750000Y-140600000D01*
X126750000Y-141000000D02*
X126750000Y-142000000D01*
X126750000Y-142000000D02*
X125650000Y-142000000D01*
X125250000Y-142000000D02*
X124150000Y-142000000D01*
X123750000Y-142000000D02*
X122650000Y-142000000D01*
X122250000Y-142000000D02*
X121150000Y-142000000D01*
X120750000Y-142000000D02*
X119650000Y-142000000D01*
X119250000Y-142000000D02*
X118150000Y-142000000D01*
X117750000Y-142000000D02*
X116650000Y-142000000D01*
X116250000Y-142000000D02*
X115150000Y-142000000D01*
X114750000Y-142000000D02*
X113650000Y-142000000D01*
X113250000Y-142000000D02*
X112150000Y-142000000D01*
X111750000Y-142000000D02*
X110650000Y-142000000D01*
X110250000Y-142000000D02*
X109150000Y-142000000D01*
X108750000Y-142000000D02*
X107650000Y-142000000D01*
X107250000Y-142000000D02*
X106150000Y-142000000D01*
X105750000Y-142000000D02*
X104650000Y-142000000D01*
X104250000Y-142000000D02*
X103150000Y-142000000D01*
X102750000Y-142000000D02*
X101650000Y-142000000D01*
X101250000Y-142000000D02*
X100150000Y-142000000D01*
X99750000Y-142000000D02*
X98650000Y-142000000D01*
X98250000Y-142000000D02*
X97150000Y-142000000D01*
X96750000Y-142000000D02*
X95650000Y-142000000D01*
X95250000Y-142000000D02*
X94150000Y-142000000D01*
X93750000Y-142000000D02*
X92650000Y-142000000D01*
X92250000Y-142000000D02*
X91150000Y-142000000D01*
X90750000Y-142000000D02*
X89650000Y-142000000D01*
X89250000Y-142000000D02*
X88150000Y-142000000D01*
X87750000Y-142000000D02*
X86650000Y-142000000D01*
X86250000Y-142000000D02*
X85150000Y-142000000D01*
X84750000Y-142000000D02*
X83650000Y-142000000D01*
X83250000Y-142000000D02*
X82150000Y-142000000D01*
X81750000Y-142000000D02*
X80650000Y-142000000D01*
X80250000Y-142000000D02*
X79150000Y-142000000D01*
X78750000Y-142000000D02*
X77650000Y-142000000D01*
X77250000Y-142000000D02*
X76150000Y-142000000D01*
D11*
X75750000Y-142000000D02*
X75749999Y-142000000D01*
X75749999Y-142000000D01*
X75749999Y-142000000D01*
X75749999Y-142000000D01*
X75749999Y-142000000D01*
X75749999Y-142000000D01*
X75749999Y-142000000D01*
X75749999Y-141999999D01*
X75749999Y-141999999D01*
X75749999Y-141999999D01*
X75749999Y-141999999D01*
X75749999Y-141999999D01*
X75750000Y-141999999D01*
X75750000Y-141999999D01*
X75750000Y-141999999D01*
X75750000Y-141999999D01*
X75750000Y-141999999D01*
X75750000Y-141999999D01*
X75750000Y-141999999D01*
X75750000Y-141999999D01*
X75750000Y-141999999D01*
X75750000Y-141999999D01*
X75750000Y-141999999D01*
X75750000Y-141999999D01*
X75750001Y-141999999D01*
X75750001Y-141999999D01*
X75750001Y-141999999D01*
X75750001Y-141999999D01*
X75750001Y-141999999D01*
X75750001Y-141999999D01*
X75750001Y-142000000D01*
X75750001Y-142000000D01*
X75750001Y-142000000D01*
X75750001Y-142000000D01*
X75750001Y-142000000D01*
X75750001Y-142000000D01*
X75750001Y-142000000D01*
X75750000Y-142000000D01*
X75750000Y-142000000D02*
X75750001Y-142000000D01*
X75750001Y-142000000D01*
X75750001Y-142000000D01*
X75750001Y-142000000D01*
X75750001Y-142000000D01*
X75750001Y-142000000D01*
X75750001Y-142000001D01*
X75750001Y-142000001D01*
X75750001Y-142000001D01*
X75750001Y-142000001D01*
X75750001Y-142000001D01*
X75750001Y-142000001D01*
X75750001Y-142000001D01*
X75750000Y-142000001D01*
X75750000Y-142000001D01*
X75750000Y-142000001D01*
X75750000Y-142000001D01*
X75750000Y-142000001D01*
X75750000Y-142000001D01*
X75750000Y-142000001D01*
X75750000Y-142000001D01*
X75750000Y-142000001D01*
X75750000Y-142000001D01*
X75750000Y-142000001D01*
X75750000Y-142000001D01*
X75749999Y-142000001D01*
X75749999Y-142000001D01*
X75749999Y-142000001D01*
X75749999Y-142000001D01*
X75749999Y-142000001D01*
X75749999Y-142000001D01*
X75749999Y-142000000D01*
X75749999Y-142000000D01*
X75749999Y-142000000D01*
X75749999Y-142000000D01*
X75749999Y-142000000D01*
X75749999Y-142000000D01*
X75750000Y-142000000D01*
D10*
X75750000Y-142000000D02*
X75750000Y-140900000D01*
X75750000Y-140500000D02*
X75750000Y-139400000D01*
X75750000Y-139000000D02*
X75750000Y-137900000D01*
X75750000Y-137500000D02*
X75750000Y-136400000D01*
X75750000Y-136000000D02*
X75750000Y-134900000D01*
X75750000Y-134500000D02*
X75750000Y-133400000D01*
X75750000Y-133000000D02*
X75750000Y-131900000D01*
X75750000Y-131500000D02*
X75750000Y-130400000D01*
X75750000Y-130000000D02*
X75750000Y-128900000D01*
X75750000Y-128500000D02*
X75750000Y-127400000D01*
X75750000Y-127000000D02*
X75750000Y-125900000D01*
X75750000Y-125500000D02*
X75750000Y-124400000D01*
X75750000Y-124000000D02*
X75750000Y-122900000D01*
X75750000Y-122500000D02*
X75750000Y-121400000D01*
X75750000Y-121000000D02*
X75750000Y-119900000D01*
X75750000Y-119500000D02*
X75750000Y-118400000D01*
X75750000Y-118000000D02*
X75750000Y-116900000D01*
X75750000Y-116500000D02*
X75750000Y-115400000D01*
X75750000Y-115000000D02*
X75750000Y-113900000D01*
X75750000Y-113500000D02*
X75750000Y-112400000D01*
X75750000Y-112000000D02*
X75750000Y-110900000D01*
X75750000Y-110500000D02*
X75750000Y-109400000D01*
X75750000Y-109000000D02*
X75750000Y-107900000D01*
X75750000Y-107500000D02*
X75750000Y-106400000D01*
X75750000Y-106000000D02*
X75750000Y-104900000D01*
X75750000Y-104500000D02*
X75750000Y-103400000D01*
X75750000Y-103000000D02*
X75750000Y-101900000D01*
X75750000Y-101500000D02*
X75750000Y-100400000D01*
X75750000Y-100000000D02*
X75750000Y-98900000D01*
X75750000Y-98500000D02*
X75750000Y-97400000D01*
X75750000Y-97000000D02*
X75750000Y-95900000D01*
X75750000Y-95500000D02*
X75750000Y-94400000D01*
X75750000Y-94000000D02*
X75750000Y-92900000D01*
X75750000Y-92500000D02*
X75750000Y-91400000D01*
X75750000Y-91000000D02*
X75750000Y-89900000D01*
X75750000Y-89500000D02*
X75750000Y-88400000D01*
X75750000Y-88000000D02*
X75750000Y-86900000D01*
X75750000Y-86500000D02*
X75750000Y-85400000D01*
X75750000Y-85000000D02*
X75750000Y-83900000D01*
X75750000Y-83500000D02*
X75750000Y-82400000D01*
X75750000Y-82000000D02*
X75750000Y-80900000D01*
X75750000Y-80500000D02*
X75750000Y-79400000D01*
X75750000Y-79000000D02*
X75750000Y-78000000D01*
D12*
X96821428Y-139954819D02*
X96821428Y-138954819D01*
X97392856Y-139954819D02*
X96964285Y-139383390D01*
X97392856Y-138954819D02*
X96821428Y-139526247D01*
X98202380Y-139907200D02*
X98107142Y-139954819D01*
X98107142Y-139954819D02*
X97916666Y-139954819D01*
X97916666Y-139954819D02*
X97821428Y-139907200D01*
X97821428Y-139907200D02*
X97773809Y-139811961D01*
X97773809Y-139811961D02*
X97773809Y-139431009D01*
X97773809Y-139431009D02*
X97821428Y-139335771D01*
X97821428Y-139335771D02*
X97916666Y-139288152D01*
X97916666Y-139288152D02*
X98107142Y-139288152D01*
X98107142Y-139288152D02*
X98202380Y-139335771D01*
X98202380Y-139335771D02*
X98249999Y-139431009D01*
X98249999Y-139431009D02*
X98249999Y-139526247D01*
X98249999Y-139526247D02*
X97773809Y-139621485D01*
X98583333Y-139288152D02*
X98821428Y-139954819D01*
X99059523Y-139288152D02*
X98821428Y-139954819D01*
X98821428Y-139954819D02*
X98726190Y-140192914D01*
X98726190Y-140192914D02*
X98678571Y-140240533D01*
X98678571Y-140240533D02*
X98583333Y-140288152D01*
X99440476Y-139288152D02*
X99440476Y-140288152D01*
X99440476Y-139335771D02*
X99535714Y-139288152D01*
X99535714Y-139288152D02*
X99726190Y-139288152D01*
X99726190Y-139288152D02*
X99821428Y-139335771D01*
X99821428Y-139335771D02*
X99869047Y-139383390D01*
X99869047Y-139383390D02*
X99916666Y-139478628D01*
X99916666Y-139478628D02*
X99916666Y-139764342D01*
X99916666Y-139764342D02*
X99869047Y-139859580D01*
X99869047Y-139859580D02*
X99821428Y-139907200D01*
X99821428Y-139907200D02*
X99726190Y-139954819D01*
X99726190Y-139954819D02*
X99535714Y-139954819D01*
X99535714Y-139954819D02*
X99440476Y-139907200D01*
X100773809Y-139954819D02*
X100773809Y-139431009D01*
X100773809Y-139431009D02*
X100726190Y-139335771D01*
X100726190Y-139335771D02*
X100630952Y-139288152D01*
X100630952Y-139288152D02*
X100440476Y-139288152D01*
X100440476Y-139288152D02*
X100345238Y-139335771D01*
X100773809Y-139907200D02*
X100678571Y-139954819D01*
X100678571Y-139954819D02*
X100440476Y-139954819D01*
X100440476Y-139954819D02*
X100345238Y-139907200D01*
X100345238Y-139907200D02*
X100297619Y-139811961D01*
X100297619Y-139811961D02*
X100297619Y-139716723D01*
X100297619Y-139716723D02*
X100345238Y-139621485D01*
X100345238Y-139621485D02*
X100440476Y-139573866D01*
X100440476Y-139573866D02*
X100678571Y-139573866D01*
X100678571Y-139573866D02*
X100773809Y-139526247D01*
X101678571Y-139954819D02*
X101678571Y-138954819D01*
X101678571Y-139907200D02*
X101583333Y-139954819D01*
X101583333Y-139954819D02*
X101392857Y-139954819D01*
X101392857Y-139954819D02*
X101297619Y-139907200D01*
X101297619Y-139907200D02*
X101250000Y-139859580D01*
X101250000Y-139859580D02*
X101202381Y-139764342D01*
X101202381Y-139764342D02*
X101202381Y-139478628D01*
X101202381Y-139478628D02*
X101250000Y-139383390D01*
X101250000Y-139383390D02*
X101297619Y-139335771D01*
X101297619Y-139335771D02*
X101392857Y-139288152D01*
X101392857Y-139288152D02*
X101583333Y-139288152D01*
X101583333Y-139288152D02*
X101678571Y-139335771D01*
X102869048Y-139669104D02*
X103345238Y-139669104D01*
X102773810Y-139954819D02*
X103107143Y-138954819D01*
X103107143Y-138954819D02*
X103440476Y-139954819D01*
X103773810Y-139954819D02*
X103773810Y-139288152D01*
X103773810Y-139478628D02*
X103821429Y-139383390D01*
X103821429Y-139383390D02*
X103869048Y-139335771D01*
X103869048Y-139335771D02*
X103964286Y-139288152D01*
X103964286Y-139288152D02*
X104059524Y-139288152D01*
X104773810Y-139907200D02*
X104678572Y-139954819D01*
X104678572Y-139954819D02*
X104488096Y-139954819D01*
X104488096Y-139954819D02*
X104392858Y-139907200D01*
X104392858Y-139907200D02*
X104345239Y-139811961D01*
X104345239Y-139811961D02*
X104345239Y-139431009D01*
X104345239Y-139431009D02*
X104392858Y-139335771D01*
X104392858Y-139335771D02*
X104488096Y-139288152D01*
X104488096Y-139288152D02*
X104678572Y-139288152D01*
X104678572Y-139288152D02*
X104773810Y-139335771D01*
X104773810Y-139335771D02*
X104821429Y-139431009D01*
X104821429Y-139431009D02*
X104821429Y-139526247D01*
X104821429Y-139526247D02*
X104345239Y-139621485D01*
X105678572Y-139954819D02*
X105678572Y-139431009D01*
X105678572Y-139431009D02*
X105630953Y-139335771D01*
X105630953Y-139335771D02*
X105535715Y-139288152D01*
X105535715Y-139288152D02*
X105345239Y-139288152D01*
X105345239Y-139288152D02*
X105250001Y-139335771D01*
X105678572Y-139907200D02*
X105583334Y-139954819D01*
X105583334Y-139954819D02*
X105345239Y-139954819D01*
X105345239Y-139954819D02*
X105250001Y-139907200D01*
X105250001Y-139907200D02*
X105202382Y-139811961D01*
X105202382Y-139811961D02*
X105202382Y-139716723D01*
X105202382Y-139716723D02*
X105250001Y-139621485D01*
X105250001Y-139621485D02*
X105345239Y-139573866D01*
X105345239Y-139573866D02*
X105583334Y-139573866D01*
X105583334Y-139573866D02*
X105678572Y-139526247D01*
X90609580Y-118142857D02*
X90657200Y-118190476D01*
X90657200Y-118190476D02*
X90704819Y-118333333D01*
X90704819Y-118333333D02*
X90704819Y-118428571D01*
X90704819Y-118428571D02*
X90657200Y-118571428D01*
X90657200Y-118571428D02*
X90561961Y-118666666D01*
X90561961Y-118666666D02*
X90466723Y-118714285D01*
X90466723Y-118714285D02*
X90276247Y-118761904D01*
X90276247Y-118761904D02*
X90133390Y-118761904D01*
X90133390Y-118761904D02*
X89942914Y-118714285D01*
X89942914Y-118714285D02*
X89847676Y-118666666D01*
X89847676Y-118666666D02*
X89752438Y-118571428D01*
X89752438Y-118571428D02*
X89704819Y-118428571D01*
X89704819Y-118428571D02*
X89704819Y-118333333D01*
X89704819Y-118333333D02*
X89752438Y-118190476D01*
X89752438Y-118190476D02*
X89800057Y-118142857D01*
X89704819Y-117809523D02*
X89704819Y-117190476D01*
X89704819Y-117190476D02*
X90085771Y-117523809D01*
X90085771Y-117523809D02*
X90085771Y-117380952D01*
X90085771Y-117380952D02*
X90133390Y-117285714D01*
X90133390Y-117285714D02*
X90181009Y-117238095D01*
X90181009Y-117238095D02*
X90276247Y-117190476D01*
X90276247Y-117190476D02*
X90514342Y-117190476D01*
X90514342Y-117190476D02*
X90609580Y-117238095D01*
X90609580Y-117238095D02*
X90657200Y-117285714D01*
X90657200Y-117285714D02*
X90704819Y-117380952D01*
X90704819Y-117380952D02*
X90704819Y-117666666D01*
X90704819Y-117666666D02*
X90657200Y-117761904D01*
X90657200Y-117761904D02*
X90609580Y-117809523D01*
X90038152Y-116333333D02*
X90704819Y-116333333D01*
X89657200Y-116571428D02*
X90371485Y-116809523D01*
X90371485Y-116809523D02*
X90371485Y-116190476D01*
X122109580Y-127642857D02*
X122157200Y-127690476D01*
X122157200Y-127690476D02*
X122204819Y-127833333D01*
X122204819Y-127833333D02*
X122204819Y-127928571D01*
X122204819Y-127928571D02*
X122157200Y-128071428D01*
X122157200Y-128071428D02*
X122061961Y-128166666D01*
X122061961Y-128166666D02*
X121966723Y-128214285D01*
X121966723Y-128214285D02*
X121776247Y-128261904D01*
X121776247Y-128261904D02*
X121633390Y-128261904D01*
X121633390Y-128261904D02*
X121442914Y-128214285D01*
X121442914Y-128214285D02*
X121347676Y-128166666D01*
X121347676Y-128166666D02*
X121252438Y-128071428D01*
X121252438Y-128071428D02*
X121204819Y-127928571D01*
X121204819Y-127928571D02*
X121204819Y-127833333D01*
X121204819Y-127833333D02*
X121252438Y-127690476D01*
X121252438Y-127690476D02*
X121300057Y-127642857D01*
X122204819Y-126690476D02*
X122204819Y-127261904D01*
X122204819Y-126976190D02*
X121204819Y-126976190D01*
X121204819Y-126976190D02*
X121347676Y-127071428D01*
X121347676Y-127071428D02*
X121442914Y-127166666D01*
X121442914Y-127166666D02*
X121490533Y-127261904D01*
X121633390Y-126119047D02*
X121585771Y-126214285D01*
X121585771Y-126214285D02*
X121538152Y-126261904D01*
X121538152Y-126261904D02*
X121442914Y-126309523D01*
X121442914Y-126309523D02*
X121395295Y-126309523D01*
X121395295Y-126309523D02*
X121300057Y-126261904D01*
X121300057Y-126261904D02*
X121252438Y-126214285D01*
X121252438Y-126214285D02*
X121204819Y-126119047D01*
X121204819Y-126119047D02*
X121204819Y-125928571D01*
X121204819Y-125928571D02*
X121252438Y-125833333D01*
X121252438Y-125833333D02*
X121300057Y-125785714D01*
X121300057Y-125785714D02*
X121395295Y-125738095D01*
X121395295Y-125738095D02*
X121442914Y-125738095D01*
X121442914Y-125738095D02*
X121538152Y-125785714D01*
X121538152Y-125785714D02*
X121585771Y-125833333D01*
X121585771Y-125833333D02*
X121633390Y-125928571D01*
X121633390Y-125928571D02*
X121633390Y-126119047D01*
X121633390Y-126119047D02*
X121681009Y-126214285D01*
X121681009Y-126214285D02*
X121728628Y-126261904D01*
X121728628Y-126261904D02*
X121823866Y-126309523D01*
X121823866Y-126309523D02*
X122014342Y-126309523D01*
X122014342Y-126309523D02*
X122109580Y-126261904D01*
X122109580Y-126261904D02*
X122157200Y-126214285D01*
X122157200Y-126214285D02*
X122204819Y-126119047D01*
X122204819Y-126119047D02*
X122204819Y-125928571D01*
X122204819Y-125928571D02*
X122157200Y-125833333D01*
X122157200Y-125833333D02*
X122109580Y-125785714D01*
X122109580Y-125785714D02*
X122014342Y-125738095D01*
X122014342Y-125738095D02*
X121823866Y-125738095D01*
X121823866Y-125738095D02*
X121728628Y-125785714D01*
X121728628Y-125785714D02*
X121681009Y-125833333D01*
X121681009Y-125833333D02*
X121633390Y-125928571D01*
X134011905Y-130954819D02*
X134011905Y-129954819D01*
X134011905Y-129954819D02*
X134250000Y-129954819D01*
X134250000Y-129954819D02*
X134392857Y-130002438D01*
X134392857Y-130002438D02*
X134488095Y-130097676D01*
X134488095Y-130097676D02*
X134535714Y-130192914D01*
X134535714Y-130192914D02*
X134583333Y-130383390D01*
X134583333Y-130383390D02*
X134583333Y-130526247D01*
X134583333Y-130526247D02*
X134535714Y-130716723D01*
X134535714Y-130716723D02*
X134488095Y-130811961D01*
X134488095Y-130811961D02*
X134392857Y-130907200D01*
X134392857Y-130907200D02*
X134250000Y-130954819D01*
X134250000Y-130954819D02*
X134011905Y-130954819D01*
X135440476Y-129954819D02*
X135250000Y-129954819D01*
X135250000Y-129954819D02*
X135154762Y-130002438D01*
X135154762Y-130002438D02*
X135107143Y-130050057D01*
X135107143Y-130050057D02*
X135011905Y-130192914D01*
X135011905Y-130192914D02*
X134964286Y-130383390D01*
X134964286Y-130383390D02*
X134964286Y-130764342D01*
X134964286Y-130764342D02*
X135011905Y-130859580D01*
X135011905Y-130859580D02*
X135059524Y-130907200D01*
X135059524Y-130907200D02*
X135154762Y-130954819D01*
X135154762Y-130954819D02*
X135345238Y-130954819D01*
X135345238Y-130954819D02*
X135440476Y-130907200D01*
X135440476Y-130907200D02*
X135488095Y-130859580D01*
X135488095Y-130859580D02*
X135535714Y-130764342D01*
X135535714Y-130764342D02*
X135535714Y-130526247D01*
X135535714Y-130526247D02*
X135488095Y-130431009D01*
X135488095Y-130431009D02*
X135440476Y-130383390D01*
X135440476Y-130383390D02*
X135345238Y-130335771D01*
X135345238Y-130335771D02*
X135154762Y-130335771D01*
X135154762Y-130335771D02*
X135059524Y-130383390D01*
X135059524Y-130383390D02*
X135011905Y-130431009D01*
X135011905Y-130431009D02*
X134964286Y-130526247D01*
X136704819Y-127988094D02*
X135704819Y-127988094D01*
X135704819Y-127988094D02*
X135704819Y-127749999D01*
X135704819Y-127749999D02*
X135752438Y-127607142D01*
X135752438Y-127607142D02*
X135847676Y-127511904D01*
X135847676Y-127511904D02*
X135942914Y-127464285D01*
X135942914Y-127464285D02*
X136133390Y-127416666D01*
X136133390Y-127416666D02*
X136276247Y-127416666D01*
X136276247Y-127416666D02*
X136466723Y-127464285D01*
X136466723Y-127464285D02*
X136561961Y-127511904D01*
X136561961Y-127511904D02*
X136657200Y-127607142D01*
X136657200Y-127607142D02*
X136704819Y-127749999D01*
X136704819Y-127749999D02*
X136704819Y-127988094D01*
X136704819Y-126940475D02*
X136704819Y-126749999D01*
X136704819Y-126749999D02*
X136657200Y-126654761D01*
X136657200Y-126654761D02*
X136609580Y-126607142D01*
X136609580Y-126607142D02*
X136466723Y-126511904D01*
X136466723Y-126511904D02*
X136276247Y-126464285D01*
X136276247Y-126464285D02*
X135895295Y-126464285D01*
X135895295Y-126464285D02*
X135800057Y-126511904D01*
X135800057Y-126511904D02*
X135752438Y-126559523D01*
X135752438Y-126559523D02*
X135704819Y-126654761D01*
X135704819Y-126654761D02*
X135704819Y-126845237D01*
X135704819Y-126845237D02*
X135752438Y-126940475D01*
X135752438Y-126940475D02*
X135800057Y-126988094D01*
X135800057Y-126988094D02*
X135895295Y-127035713D01*
X135895295Y-127035713D02*
X136133390Y-127035713D01*
X136133390Y-127035713D02*
X136228628Y-126988094D01*
X136228628Y-126988094D02*
X136276247Y-126940475D01*
X136276247Y-126940475D02*
X136323866Y-126845237D01*
X136323866Y-126845237D02*
X136323866Y-126654761D01*
X136323866Y-126654761D02*
X136276247Y-126559523D01*
X136276247Y-126559523D02*
X136228628Y-126511904D01*
X136228628Y-126511904D02*
X136133390Y-126464285D01*
X99704819Y-128392857D02*
X99228628Y-128726190D01*
X99704819Y-128964285D02*
X98704819Y-128964285D01*
X98704819Y-128964285D02*
X98704819Y-128583333D01*
X98704819Y-128583333D02*
X98752438Y-128488095D01*
X98752438Y-128488095D02*
X98800057Y-128440476D01*
X98800057Y-128440476D02*
X98895295Y-128392857D01*
X98895295Y-128392857D02*
X99038152Y-128392857D01*
X99038152Y-128392857D02*
X99133390Y-128440476D01*
X99133390Y-128440476D02*
X99181009Y-128488095D01*
X99181009Y-128488095D02*
X99228628Y-128583333D01*
X99228628Y-128583333D02*
X99228628Y-128964285D01*
X99704819Y-127440476D02*
X99704819Y-128011904D01*
X99704819Y-127726190D02*
X98704819Y-127726190D01*
X98704819Y-127726190D02*
X98847676Y-127821428D01*
X98847676Y-127821428D02*
X98942914Y-127916666D01*
X98942914Y-127916666D02*
X98990533Y-128011904D01*
X98704819Y-127107142D02*
X98704819Y-126488095D01*
X98704819Y-126488095D02*
X99085771Y-126821428D01*
X99085771Y-126821428D02*
X99085771Y-126678571D01*
X99085771Y-126678571D02*
X99133390Y-126583333D01*
X99133390Y-126583333D02*
X99181009Y-126535714D01*
X99181009Y-126535714D02*
X99276247Y-126488095D01*
X99276247Y-126488095D02*
X99514342Y-126488095D01*
X99514342Y-126488095D02*
X99609580Y-126535714D01*
X99609580Y-126535714D02*
X99657200Y-126583333D01*
X99657200Y-126583333D02*
X99704819Y-126678571D01*
X99704819Y-126678571D02*
X99704819Y-126964285D01*
X99704819Y-126964285D02*
X99657200Y-127059523D01*
X99657200Y-127059523D02*
X99609580Y-127107142D01*
X94607142Y-114704819D02*
X94273809Y-114228628D01*
X94035714Y-114704819D02*
X94035714Y-113704819D01*
X94035714Y-113704819D02*
X94416666Y-113704819D01*
X94416666Y-113704819D02*
X94511904Y-113752438D01*
X94511904Y-113752438D02*
X94559523Y-113800057D01*
X94559523Y-113800057D02*
X94607142Y-113895295D01*
X94607142Y-113895295D02*
X94607142Y-114038152D01*
X94607142Y-114038152D02*
X94559523Y-114133390D01*
X94559523Y-114133390D02*
X94511904Y-114181009D01*
X94511904Y-114181009D02*
X94416666Y-114228628D01*
X94416666Y-114228628D02*
X94035714Y-114228628D01*
X95559523Y-114704819D02*
X94988095Y-114704819D01*
X95273809Y-114704819D02*
X95273809Y-113704819D01*
X95273809Y-113704819D02*
X95178571Y-113847676D01*
X95178571Y-113847676D02*
X95083333Y-113942914D01*
X95083333Y-113942914D02*
X94988095Y-113990533D01*
X95940476Y-113800057D02*
X95988095Y-113752438D01*
X95988095Y-113752438D02*
X96083333Y-113704819D01*
X96083333Y-113704819D02*
X96321428Y-113704819D01*
X96321428Y-113704819D02*
X96416666Y-113752438D01*
X96416666Y-113752438D02*
X96464285Y-113800057D01*
X96464285Y-113800057D02*
X96511904Y-113895295D01*
X96511904Y-113895295D02*
X96511904Y-113990533D01*
X96511904Y-113990533D02*
X96464285Y-114133390D01*
X96464285Y-114133390D02*
X95892857Y-114704819D01*
X95892857Y-114704819D02*
X96511904Y-114704819D01*
X101954819Y-128392857D02*
X101478628Y-128726190D01*
X101954819Y-128964285D02*
X100954819Y-128964285D01*
X100954819Y-128964285D02*
X100954819Y-128583333D01*
X100954819Y-128583333D02*
X101002438Y-128488095D01*
X101002438Y-128488095D02*
X101050057Y-128440476D01*
X101050057Y-128440476D02*
X101145295Y-128392857D01*
X101145295Y-128392857D02*
X101288152Y-128392857D01*
X101288152Y-128392857D02*
X101383390Y-128440476D01*
X101383390Y-128440476D02*
X101431009Y-128488095D01*
X101431009Y-128488095D02*
X101478628Y-128583333D01*
X101478628Y-128583333D02*
X101478628Y-128964285D01*
X101954819Y-127440476D02*
X101954819Y-128011904D01*
X101954819Y-127726190D02*
X100954819Y-127726190D01*
X100954819Y-127726190D02*
X101097676Y-127821428D01*
X101097676Y-127821428D02*
X101192914Y-127916666D01*
X101192914Y-127916666D02*
X101240533Y-128011904D01*
X101288152Y-126583333D02*
X101954819Y-126583333D01*
X100907200Y-126821428D02*
X101621485Y-127059523D01*
X101621485Y-127059523D02*
X101621485Y-126440476D01*
X124609580Y-127642857D02*
X124657200Y-127690476D01*
X124657200Y-127690476D02*
X124704819Y-127833333D01*
X124704819Y-127833333D02*
X124704819Y-127928571D01*
X124704819Y-127928571D02*
X124657200Y-128071428D01*
X124657200Y-128071428D02*
X124561961Y-128166666D01*
X124561961Y-128166666D02*
X124466723Y-128214285D01*
X124466723Y-128214285D02*
X124276247Y-128261904D01*
X124276247Y-128261904D02*
X124133390Y-128261904D01*
X124133390Y-128261904D02*
X123942914Y-128214285D01*
X123942914Y-128214285D02*
X123847676Y-128166666D01*
X123847676Y-128166666D02*
X123752438Y-128071428D01*
X123752438Y-128071428D02*
X123704819Y-127928571D01*
X123704819Y-127928571D02*
X123704819Y-127833333D01*
X123704819Y-127833333D02*
X123752438Y-127690476D01*
X123752438Y-127690476D02*
X123800057Y-127642857D01*
X124704819Y-126690476D02*
X124704819Y-127261904D01*
X124704819Y-126976190D02*
X123704819Y-126976190D01*
X123704819Y-126976190D02*
X123847676Y-127071428D01*
X123847676Y-127071428D02*
X123942914Y-127166666D01*
X123942914Y-127166666D02*
X123990533Y-127261904D01*
X123704819Y-126357142D02*
X123704819Y-125690476D01*
X123704819Y-125690476D02*
X124704819Y-126119047D01*
X143059580Y-128117857D02*
X143107200Y-128165476D01*
X143107200Y-128165476D02*
X143154819Y-128308333D01*
X143154819Y-128308333D02*
X143154819Y-128403571D01*
X143154819Y-128403571D02*
X143107200Y-128546428D01*
X143107200Y-128546428D02*
X143011961Y-128641666D01*
X143011961Y-128641666D02*
X142916723Y-128689285D01*
X142916723Y-128689285D02*
X142726247Y-128736904D01*
X142726247Y-128736904D02*
X142583390Y-128736904D01*
X142583390Y-128736904D02*
X142392914Y-128689285D01*
X142392914Y-128689285D02*
X142297676Y-128641666D01*
X142297676Y-128641666D02*
X142202438Y-128546428D01*
X142202438Y-128546428D02*
X142154819Y-128403571D01*
X142154819Y-128403571D02*
X142154819Y-128308333D01*
X142154819Y-128308333D02*
X142202438Y-128165476D01*
X142202438Y-128165476D02*
X142250057Y-128117857D01*
X142154819Y-127784523D02*
X142154819Y-127165476D01*
X142154819Y-127165476D02*
X142535771Y-127498809D01*
X142535771Y-127498809D02*
X142535771Y-127355952D01*
X142535771Y-127355952D02*
X142583390Y-127260714D01*
X142583390Y-127260714D02*
X142631009Y-127213095D01*
X142631009Y-127213095D02*
X142726247Y-127165476D01*
X142726247Y-127165476D02*
X142964342Y-127165476D01*
X142964342Y-127165476D02*
X143059580Y-127213095D01*
X143059580Y-127213095D02*
X143107200Y-127260714D01*
X143107200Y-127260714D02*
X143154819Y-127355952D01*
X143154819Y-127355952D02*
X143154819Y-127641666D01*
X143154819Y-127641666D02*
X143107200Y-127736904D01*
X143107200Y-127736904D02*
X143059580Y-127784523D01*
X142250057Y-126784523D02*
X142202438Y-126736904D01*
X142202438Y-126736904D02*
X142154819Y-126641666D01*
X142154819Y-126641666D02*
X142154819Y-126403571D01*
X142154819Y-126403571D02*
X142202438Y-126308333D01*
X142202438Y-126308333D02*
X142250057Y-126260714D01*
X142250057Y-126260714D02*
X142345295Y-126213095D01*
X142345295Y-126213095D02*
X142440533Y-126213095D01*
X142440533Y-126213095D02*
X142583390Y-126260714D01*
X142583390Y-126260714D02*
X143154819Y-126832142D01*
X143154819Y-126832142D02*
X143154819Y-126213095D01*
X132807142Y-115859580D02*
X132759523Y-115907200D01*
X132759523Y-115907200D02*
X132616666Y-115954819D01*
X132616666Y-115954819D02*
X132521428Y-115954819D01*
X132521428Y-115954819D02*
X132378571Y-115907200D01*
X132378571Y-115907200D02*
X132283333Y-115811961D01*
X132283333Y-115811961D02*
X132235714Y-115716723D01*
X132235714Y-115716723D02*
X132188095Y-115526247D01*
X132188095Y-115526247D02*
X132188095Y-115383390D01*
X132188095Y-115383390D02*
X132235714Y-115192914D01*
X132235714Y-115192914D02*
X132283333Y-115097676D01*
X132283333Y-115097676D02*
X132378571Y-115002438D01*
X132378571Y-115002438D02*
X132521428Y-114954819D01*
X132521428Y-114954819D02*
X132616666Y-114954819D01*
X132616666Y-114954819D02*
X132759523Y-115002438D01*
X132759523Y-115002438D02*
X132807142Y-115050057D01*
X133140476Y-114954819D02*
X133759523Y-114954819D01*
X133759523Y-114954819D02*
X133426190Y-115335771D01*
X133426190Y-115335771D02*
X133569047Y-115335771D01*
X133569047Y-115335771D02*
X133664285Y-115383390D01*
X133664285Y-115383390D02*
X133711904Y-115431009D01*
X133711904Y-115431009D02*
X133759523Y-115526247D01*
X133759523Y-115526247D02*
X133759523Y-115764342D01*
X133759523Y-115764342D02*
X133711904Y-115859580D01*
X133711904Y-115859580D02*
X133664285Y-115907200D01*
X133664285Y-115907200D02*
X133569047Y-115954819D01*
X133569047Y-115954819D02*
X133283333Y-115954819D01*
X133283333Y-115954819D02*
X133188095Y-115907200D01*
X133188095Y-115907200D02*
X133140476Y-115859580D01*
X134092857Y-114954819D02*
X134711904Y-114954819D01*
X134711904Y-114954819D02*
X134378571Y-115335771D01*
X134378571Y-115335771D02*
X134521428Y-115335771D01*
X134521428Y-115335771D02*
X134616666Y-115383390D01*
X134616666Y-115383390D02*
X134664285Y-115431009D01*
X134664285Y-115431009D02*
X134711904Y-115526247D01*
X134711904Y-115526247D02*
X134711904Y-115764342D01*
X134711904Y-115764342D02*
X134664285Y-115859580D01*
X134664285Y-115859580D02*
X134616666Y-115907200D01*
X134616666Y-115907200D02*
X134521428Y-115954819D01*
X134521428Y-115954819D02*
X134235714Y-115954819D01*
X134235714Y-115954819D02*
X134140476Y-115907200D01*
X134140476Y-115907200D02*
X134092857Y-115859580D01*
X98357142Y-114609580D02*
X98309523Y-114657200D01*
X98309523Y-114657200D02*
X98166666Y-114704819D01*
X98166666Y-114704819D02*
X98071428Y-114704819D01*
X98071428Y-114704819D02*
X97928571Y-114657200D01*
X97928571Y-114657200D02*
X97833333Y-114561961D01*
X97833333Y-114561961D02*
X97785714Y-114466723D01*
X97785714Y-114466723D02*
X97738095Y-114276247D01*
X97738095Y-114276247D02*
X97738095Y-114133390D01*
X97738095Y-114133390D02*
X97785714Y-113942914D01*
X97785714Y-113942914D02*
X97833333Y-113847676D01*
X97833333Y-113847676D02*
X97928571Y-113752438D01*
X97928571Y-113752438D02*
X98071428Y-113704819D01*
X98071428Y-113704819D02*
X98166666Y-113704819D01*
X98166666Y-113704819D02*
X98309523Y-113752438D01*
X98309523Y-113752438D02*
X98357142Y-113800057D01*
X98738095Y-113800057D02*
X98785714Y-113752438D01*
X98785714Y-113752438D02*
X98880952Y-113704819D01*
X98880952Y-113704819D02*
X99119047Y-113704819D01*
X99119047Y-113704819D02*
X99214285Y-113752438D01*
X99214285Y-113752438D02*
X99261904Y-113800057D01*
X99261904Y-113800057D02*
X99309523Y-113895295D01*
X99309523Y-113895295D02*
X99309523Y-113990533D01*
X99309523Y-113990533D02*
X99261904Y-114133390D01*
X99261904Y-114133390D02*
X98690476Y-114704819D01*
X98690476Y-114704819D02*
X99309523Y-114704819D01*
X99690476Y-113800057D02*
X99738095Y-113752438D01*
X99738095Y-113752438D02*
X99833333Y-113704819D01*
X99833333Y-113704819D02*
X100071428Y-113704819D01*
X100071428Y-113704819D02*
X100166666Y-113752438D01*
X100166666Y-113752438D02*
X100214285Y-113800057D01*
X100214285Y-113800057D02*
X100261904Y-113895295D01*
X100261904Y-113895295D02*
X100261904Y-113990533D01*
X100261904Y-113990533D02*
X100214285Y-114133390D01*
X100214285Y-114133390D02*
X99642857Y-114704819D01*
X99642857Y-114704819D02*
X100261904Y-114704819D01*
X136704819Y-122238094D02*
X135704819Y-122238094D01*
X135704819Y-122238094D02*
X135704819Y-121999999D01*
X135704819Y-121999999D02*
X135752438Y-121857142D01*
X135752438Y-121857142D02*
X135847676Y-121761904D01*
X135847676Y-121761904D02*
X135942914Y-121714285D01*
X135942914Y-121714285D02*
X136133390Y-121666666D01*
X136133390Y-121666666D02*
X136276247Y-121666666D01*
X136276247Y-121666666D02*
X136466723Y-121714285D01*
X136466723Y-121714285D02*
X136561961Y-121761904D01*
X136561961Y-121761904D02*
X136657200Y-121857142D01*
X136657200Y-121857142D02*
X136704819Y-121999999D01*
X136704819Y-121999999D02*
X136704819Y-122238094D01*
X136133390Y-121095237D02*
X136085771Y-121190475D01*
X136085771Y-121190475D02*
X136038152Y-121238094D01*
X136038152Y-121238094D02*
X135942914Y-121285713D01*
X135942914Y-121285713D02*
X135895295Y-121285713D01*
X135895295Y-121285713D02*
X135800057Y-121238094D01*
X135800057Y-121238094D02*
X135752438Y-121190475D01*
X135752438Y-121190475D02*
X135704819Y-121095237D01*
X135704819Y-121095237D02*
X135704819Y-120904761D01*
X135704819Y-120904761D02*
X135752438Y-120809523D01*
X135752438Y-120809523D02*
X135800057Y-120761904D01*
X135800057Y-120761904D02*
X135895295Y-120714285D01*
X135895295Y-120714285D02*
X135942914Y-120714285D01*
X135942914Y-120714285D02*
X136038152Y-120761904D01*
X136038152Y-120761904D02*
X136085771Y-120809523D01*
X136085771Y-120809523D02*
X136133390Y-120904761D01*
X136133390Y-120904761D02*
X136133390Y-121095237D01*
X136133390Y-121095237D02*
X136181009Y-121190475D01*
X136181009Y-121190475D02*
X136228628Y-121238094D01*
X136228628Y-121238094D02*
X136323866Y-121285713D01*
X136323866Y-121285713D02*
X136514342Y-121285713D01*
X136514342Y-121285713D02*
X136609580Y-121238094D01*
X136609580Y-121238094D02*
X136657200Y-121190475D01*
X136657200Y-121190475D02*
X136704819Y-121095237D01*
X136704819Y-121095237D02*
X136704819Y-120904761D01*
X136704819Y-120904761D02*
X136657200Y-120809523D01*
X136657200Y-120809523D02*
X136609580Y-120761904D01*
X136609580Y-120761904D02*
X136514342Y-120714285D01*
X136514342Y-120714285D02*
X136323866Y-120714285D01*
X136323866Y-120714285D02*
X136228628Y-120761904D01*
X136228628Y-120761904D02*
X136181009Y-120809523D01*
X136181009Y-120809523D02*
X136133390Y-120904761D01*
X128382142Y-135359580D02*
X128334523Y-135407200D01*
X128334523Y-135407200D02*
X128191666Y-135454819D01*
X128191666Y-135454819D02*
X128096428Y-135454819D01*
X128096428Y-135454819D02*
X127953571Y-135407200D01*
X127953571Y-135407200D02*
X127858333Y-135311961D01*
X127858333Y-135311961D02*
X127810714Y-135216723D01*
X127810714Y-135216723D02*
X127763095Y-135026247D01*
X127763095Y-135026247D02*
X127763095Y-134883390D01*
X127763095Y-134883390D02*
X127810714Y-134692914D01*
X127810714Y-134692914D02*
X127858333Y-134597676D01*
X127858333Y-134597676D02*
X127953571Y-134502438D01*
X127953571Y-134502438D02*
X128096428Y-134454819D01*
X128096428Y-134454819D02*
X128191666Y-134454819D01*
X128191666Y-134454819D02*
X128334523Y-134502438D01*
X128334523Y-134502438D02*
X128382142Y-134550057D01*
X128763095Y-134550057D02*
X128810714Y-134502438D01*
X128810714Y-134502438D02*
X128905952Y-134454819D01*
X128905952Y-134454819D02*
X129144047Y-134454819D01*
X129144047Y-134454819D02*
X129239285Y-134502438D01*
X129239285Y-134502438D02*
X129286904Y-134550057D01*
X129286904Y-134550057D02*
X129334523Y-134645295D01*
X129334523Y-134645295D02*
X129334523Y-134740533D01*
X129334523Y-134740533D02*
X129286904Y-134883390D01*
X129286904Y-134883390D02*
X128715476Y-135454819D01*
X128715476Y-135454819D02*
X129334523Y-135454819D01*
X129905952Y-134883390D02*
X129810714Y-134835771D01*
X129810714Y-134835771D02*
X129763095Y-134788152D01*
X129763095Y-134788152D02*
X129715476Y-134692914D01*
X129715476Y-134692914D02*
X129715476Y-134645295D01*
X129715476Y-134645295D02*
X129763095Y-134550057D01*
X129763095Y-134550057D02*
X129810714Y-134502438D01*
X129810714Y-134502438D02*
X129905952Y-134454819D01*
X129905952Y-134454819D02*
X130096428Y-134454819D01*
X130096428Y-134454819D02*
X130191666Y-134502438D01*
X130191666Y-134502438D02*
X130239285Y-134550057D01*
X130239285Y-134550057D02*
X130286904Y-134645295D01*
X130286904Y-134645295D02*
X130286904Y-134692914D01*
X130286904Y-134692914D02*
X130239285Y-134788152D01*
X130239285Y-134788152D02*
X130191666Y-134835771D01*
X130191666Y-134835771D02*
X130096428Y-134883390D01*
X130096428Y-134883390D02*
X129905952Y-134883390D01*
X129905952Y-134883390D02*
X129810714Y-134931009D01*
X129810714Y-134931009D02*
X129763095Y-134978628D01*
X129763095Y-134978628D02*
X129715476Y-135073866D01*
X129715476Y-135073866D02*
X129715476Y-135264342D01*
X129715476Y-135264342D02*
X129763095Y-135359580D01*
X129763095Y-135359580D02*
X129810714Y-135407200D01*
X129810714Y-135407200D02*
X129905952Y-135454819D01*
X129905952Y-135454819D02*
X130096428Y-135454819D01*
X130096428Y-135454819D02*
X130191666Y-135407200D01*
X130191666Y-135407200D02*
X130239285Y-135359580D01*
X130239285Y-135359580D02*
X130286904Y-135264342D01*
X130286904Y-135264342D02*
X130286904Y-135073866D01*
X130286904Y-135073866D02*
X130239285Y-134978628D01*
X130239285Y-134978628D02*
X130191666Y-134931009D01*
X130191666Y-134931009D02*
X130096428Y-134883390D01*
X88666667Y-146157200D02*
X88809524Y-146204819D01*
X88809524Y-146204819D02*
X89047619Y-146204819D01*
X89047619Y-146204819D02*
X89142857Y-146157200D01*
X89142857Y-146157200D02*
X89190476Y-146109580D01*
X89190476Y-146109580D02*
X89238095Y-146014342D01*
X89238095Y-146014342D02*
X89238095Y-145919104D01*
X89238095Y-145919104D02*
X89190476Y-145823866D01*
X89190476Y-145823866D02*
X89142857Y-145776247D01*
X89142857Y-145776247D02*
X89047619Y-145728628D01*
X89047619Y-145728628D02*
X88857143Y-145681009D01*
X88857143Y-145681009D02*
X88761905Y-145633390D01*
X88761905Y-145633390D02*
X88714286Y-145585771D01*
X88714286Y-145585771D02*
X88666667Y-145490533D01*
X88666667Y-145490533D02*
X88666667Y-145395295D01*
X88666667Y-145395295D02*
X88714286Y-145300057D01*
X88714286Y-145300057D02*
X88761905Y-145252438D01*
X88761905Y-145252438D02*
X88857143Y-145204819D01*
X88857143Y-145204819D02*
X89095238Y-145204819D01*
X89095238Y-145204819D02*
X89238095Y-145252438D01*
X89571429Y-145204819D02*
X89809524Y-146204819D01*
X89809524Y-146204819D02*
X90000000Y-145490533D01*
X90000000Y-145490533D02*
X90190476Y-146204819D01*
X90190476Y-146204819D02*
X90428572Y-145204819D01*
X90714286Y-145204819D02*
X91333333Y-145204819D01*
X91333333Y-145204819D02*
X91000000Y-145585771D01*
X91000000Y-145585771D02*
X91142857Y-145585771D01*
X91142857Y-145585771D02*
X91238095Y-145633390D01*
X91238095Y-145633390D02*
X91285714Y-145681009D01*
X91285714Y-145681009D02*
X91333333Y-145776247D01*
X91333333Y-145776247D02*
X91333333Y-146014342D01*
X91333333Y-146014342D02*
X91285714Y-146109580D01*
X91285714Y-146109580D02*
X91238095Y-146157200D01*
X91238095Y-146157200D02*
X91142857Y-146204819D01*
X91142857Y-146204819D02*
X90857143Y-146204819D01*
X90857143Y-146204819D02*
X90761905Y-146157200D01*
X90761905Y-146157200D02*
X90714286Y-146109580D01*
X128382142Y-137359580D02*
X128334523Y-137407200D01*
X128334523Y-137407200D02*
X128191666Y-137454819D01*
X128191666Y-137454819D02*
X128096428Y-137454819D01*
X128096428Y-137454819D02*
X127953571Y-137407200D01*
X127953571Y-137407200D02*
X127858333Y-137311961D01*
X127858333Y-137311961D02*
X127810714Y-137216723D01*
X127810714Y-137216723D02*
X127763095Y-137026247D01*
X127763095Y-137026247D02*
X127763095Y-136883390D01*
X127763095Y-136883390D02*
X127810714Y-136692914D01*
X127810714Y-136692914D02*
X127858333Y-136597676D01*
X127858333Y-136597676D02*
X127953571Y-136502438D01*
X127953571Y-136502438D02*
X128096428Y-136454819D01*
X128096428Y-136454819D02*
X128191666Y-136454819D01*
X128191666Y-136454819D02*
X128334523Y-136502438D01*
X128334523Y-136502438D02*
X128382142Y-136550057D01*
X128715476Y-136454819D02*
X129334523Y-136454819D01*
X129334523Y-136454819D02*
X129001190Y-136835771D01*
X129001190Y-136835771D02*
X129144047Y-136835771D01*
X129144047Y-136835771D02*
X129239285Y-136883390D01*
X129239285Y-136883390D02*
X129286904Y-136931009D01*
X129286904Y-136931009D02*
X129334523Y-137026247D01*
X129334523Y-137026247D02*
X129334523Y-137264342D01*
X129334523Y-137264342D02*
X129286904Y-137359580D01*
X129286904Y-137359580D02*
X129239285Y-137407200D01*
X129239285Y-137407200D02*
X129144047Y-137454819D01*
X129144047Y-137454819D02*
X128858333Y-137454819D01*
X128858333Y-137454819D02*
X128763095Y-137407200D01*
X128763095Y-137407200D02*
X128715476Y-137359580D01*
X130286904Y-137454819D02*
X129715476Y-137454819D01*
X130001190Y-137454819D02*
X130001190Y-136454819D01*
X130001190Y-136454819D02*
X129905952Y-136597676D01*
X129905952Y-136597676D02*
X129810714Y-136692914D01*
X129810714Y-136692914D02*
X129715476Y-136740533D01*
X141109580Y-128117857D02*
X141157200Y-128165476D01*
X141157200Y-128165476D02*
X141204819Y-128308333D01*
X141204819Y-128308333D02*
X141204819Y-128403571D01*
X141204819Y-128403571D02*
X141157200Y-128546428D01*
X141157200Y-128546428D02*
X141061961Y-128641666D01*
X141061961Y-128641666D02*
X140966723Y-128689285D01*
X140966723Y-128689285D02*
X140776247Y-128736904D01*
X140776247Y-128736904D02*
X140633390Y-128736904D01*
X140633390Y-128736904D02*
X140442914Y-128689285D01*
X140442914Y-128689285D02*
X140347676Y-128641666D01*
X140347676Y-128641666D02*
X140252438Y-128546428D01*
X140252438Y-128546428D02*
X140204819Y-128403571D01*
X140204819Y-128403571D02*
X140204819Y-128308333D01*
X140204819Y-128308333D02*
X140252438Y-128165476D01*
X140252438Y-128165476D02*
X140300057Y-128117857D01*
X140300057Y-127736904D02*
X140252438Y-127689285D01*
X140252438Y-127689285D02*
X140204819Y-127594047D01*
X140204819Y-127594047D02*
X140204819Y-127355952D01*
X140204819Y-127355952D02*
X140252438Y-127260714D01*
X140252438Y-127260714D02*
X140300057Y-127213095D01*
X140300057Y-127213095D02*
X140395295Y-127165476D01*
X140395295Y-127165476D02*
X140490533Y-127165476D01*
X140490533Y-127165476D02*
X140633390Y-127213095D01*
X140633390Y-127213095D02*
X141204819Y-127784523D01*
X141204819Y-127784523D02*
X141204819Y-127165476D01*
X141204819Y-126689285D02*
X141204819Y-126498809D01*
X141204819Y-126498809D02*
X141157200Y-126403571D01*
X141157200Y-126403571D02*
X141109580Y-126355952D01*
X141109580Y-126355952D02*
X140966723Y-126260714D01*
X140966723Y-126260714D02*
X140776247Y-126213095D01*
X140776247Y-126213095D02*
X140395295Y-126213095D01*
X140395295Y-126213095D02*
X140300057Y-126260714D01*
X140300057Y-126260714D02*
X140252438Y-126308333D01*
X140252438Y-126308333D02*
X140204819Y-126403571D01*
X140204819Y-126403571D02*
X140204819Y-126594047D01*
X140204819Y-126594047D02*
X140252438Y-126689285D01*
X140252438Y-126689285D02*
X140300057Y-126736904D01*
X140300057Y-126736904D02*
X140395295Y-126784523D01*
X140395295Y-126784523D02*
X140633390Y-126784523D01*
X140633390Y-126784523D02*
X140728628Y-126736904D01*
X140728628Y-126736904D02*
X140776247Y-126689285D01*
X140776247Y-126689285D02*
X140823866Y-126594047D01*
X140823866Y-126594047D02*
X140823866Y-126403571D01*
X140823866Y-126403571D02*
X140776247Y-126308333D01*
X140776247Y-126308333D02*
X140728628Y-126260714D01*
X140728628Y-126260714D02*
X140633390Y-126213095D01*
X121454819Y-144392857D02*
X120978628Y-144726190D01*
X121454819Y-144964285D02*
X120454819Y-144964285D01*
X120454819Y-144964285D02*
X120454819Y-144583333D01*
X120454819Y-144583333D02*
X120502438Y-144488095D01*
X120502438Y-144488095D02*
X120550057Y-144440476D01*
X120550057Y-144440476D02*
X120645295Y-144392857D01*
X120645295Y-144392857D02*
X120788152Y-144392857D01*
X120788152Y-144392857D02*
X120883390Y-144440476D01*
X120883390Y-144440476D02*
X120931009Y-144488095D01*
X120931009Y-144488095D02*
X120978628Y-144583333D01*
X120978628Y-144583333D02*
X120978628Y-144964285D01*
X120550057Y-144011904D02*
X120502438Y-143964285D01*
X120502438Y-143964285D02*
X120454819Y-143869047D01*
X120454819Y-143869047D02*
X120454819Y-143630952D01*
X120454819Y-143630952D02*
X120502438Y-143535714D01*
X120502438Y-143535714D02*
X120550057Y-143488095D01*
X120550057Y-143488095D02*
X120645295Y-143440476D01*
X120645295Y-143440476D02*
X120740533Y-143440476D01*
X120740533Y-143440476D02*
X120883390Y-143488095D01*
X120883390Y-143488095D02*
X121454819Y-144059523D01*
X121454819Y-144059523D02*
X121454819Y-143440476D01*
X121454819Y-142488095D02*
X121454819Y-143059523D01*
X121454819Y-142773809D02*
X120454819Y-142773809D01*
X120454819Y-142773809D02*
X120597676Y-142869047D01*
X120597676Y-142869047D02*
X120692914Y-142964285D01*
X120692914Y-142964285D02*
X120740533Y-143059523D01*
X131785714Y-120204819D02*
X131785714Y-119204819D01*
X131785714Y-119204819D02*
X132023809Y-119204819D01*
X132023809Y-119204819D02*
X132166666Y-119252438D01*
X132166666Y-119252438D02*
X132261904Y-119347676D01*
X132261904Y-119347676D02*
X132309523Y-119442914D01*
X132309523Y-119442914D02*
X132357142Y-119633390D01*
X132357142Y-119633390D02*
X132357142Y-119776247D01*
X132357142Y-119776247D02*
X132309523Y-119966723D01*
X132309523Y-119966723D02*
X132261904Y-120061961D01*
X132261904Y-120061961D02*
X132166666Y-120157200D01*
X132166666Y-120157200D02*
X132023809Y-120204819D01*
X132023809Y-120204819D02*
X131785714Y-120204819D01*
X133309523Y-120204819D02*
X132738095Y-120204819D01*
X133023809Y-120204819D02*
X133023809Y-119204819D01*
X133023809Y-119204819D02*
X132928571Y-119347676D01*
X132928571Y-119347676D02*
X132833333Y-119442914D01*
X132833333Y-119442914D02*
X132738095Y-119490533D01*
X134261904Y-120204819D02*
X133690476Y-120204819D01*
X133976190Y-120204819D02*
X133976190Y-119204819D01*
X133976190Y-119204819D02*
X133880952Y-119347676D01*
X133880952Y-119347676D02*
X133785714Y-119442914D01*
X133785714Y-119442914D02*
X133690476Y-119490533D01*
X170738095Y-76524819D02*
X170738095Y-77334342D01*
X170738095Y-77334342D02*
X170785714Y-77429580D01*
X170785714Y-77429580D02*
X170833333Y-77477200D01*
X170833333Y-77477200D02*
X170928571Y-77524819D01*
X170928571Y-77524819D02*
X171119047Y-77524819D01*
X171119047Y-77524819D02*
X171214285Y-77477200D01*
X171214285Y-77477200D02*
X171261904Y-77429580D01*
X171261904Y-77429580D02*
X171309523Y-77334342D01*
X171309523Y-77334342D02*
X171309523Y-76524819D01*
X172214285Y-76858152D02*
X172214285Y-77524819D01*
X171976190Y-76477200D02*
X171738095Y-77191485D01*
X171738095Y-77191485D02*
X172357142Y-77191485D01*
X121359580Y-134142857D02*
X121407200Y-134190476D01*
X121407200Y-134190476D02*
X121454819Y-134333333D01*
X121454819Y-134333333D02*
X121454819Y-134428571D01*
X121454819Y-134428571D02*
X121407200Y-134571428D01*
X121407200Y-134571428D02*
X121311961Y-134666666D01*
X121311961Y-134666666D02*
X121216723Y-134714285D01*
X121216723Y-134714285D02*
X121026247Y-134761904D01*
X121026247Y-134761904D02*
X120883390Y-134761904D01*
X120883390Y-134761904D02*
X120692914Y-134714285D01*
X120692914Y-134714285D02*
X120597676Y-134666666D01*
X120597676Y-134666666D02*
X120502438Y-134571428D01*
X120502438Y-134571428D02*
X120454819Y-134428571D01*
X120454819Y-134428571D02*
X120454819Y-134333333D01*
X120454819Y-134333333D02*
X120502438Y-134190476D01*
X120502438Y-134190476D02*
X120550057Y-134142857D01*
X120550057Y-133761904D02*
X120502438Y-133714285D01*
X120502438Y-133714285D02*
X120454819Y-133619047D01*
X120454819Y-133619047D02*
X120454819Y-133380952D01*
X120454819Y-133380952D02*
X120502438Y-133285714D01*
X120502438Y-133285714D02*
X120550057Y-133238095D01*
X120550057Y-133238095D02*
X120645295Y-133190476D01*
X120645295Y-133190476D02*
X120740533Y-133190476D01*
X120740533Y-133190476D02*
X120883390Y-133238095D01*
X120883390Y-133238095D02*
X121454819Y-133809523D01*
X121454819Y-133809523D02*
X121454819Y-133190476D01*
X120454819Y-132571428D02*
X120454819Y-132476190D01*
X120454819Y-132476190D02*
X120502438Y-132380952D01*
X120502438Y-132380952D02*
X120550057Y-132333333D01*
X120550057Y-132333333D02*
X120645295Y-132285714D01*
X120645295Y-132285714D02*
X120835771Y-132238095D01*
X120835771Y-132238095D02*
X121073866Y-132238095D01*
X121073866Y-132238095D02*
X121264342Y-132285714D01*
X121264342Y-132285714D02*
X121359580Y-132333333D01*
X121359580Y-132333333D02*
X121407200Y-132380952D01*
X121407200Y-132380952D02*
X121454819Y-132476190D01*
X121454819Y-132476190D02*
X121454819Y-132571428D01*
X121454819Y-132571428D02*
X121407200Y-132666666D01*
X121407200Y-132666666D02*
X121359580Y-132714285D01*
X121359580Y-132714285D02*
X121264342Y-132761904D01*
X121264342Y-132761904D02*
X121073866Y-132809523D01*
X121073866Y-132809523D02*
X120835771Y-132809523D01*
X120835771Y-132809523D02*
X120645295Y-132761904D01*
X120645295Y-132761904D02*
X120550057Y-132714285D01*
X120550057Y-132714285D02*
X120502438Y-132666666D01*
X120502438Y-132666666D02*
X120454819Y-132571428D01*
X132807142Y-113869580D02*
X132759523Y-113917200D01*
X132759523Y-113917200D02*
X132616666Y-113964819D01*
X132616666Y-113964819D02*
X132521428Y-113964819D01*
X132521428Y-113964819D02*
X132378571Y-113917200D01*
X132378571Y-113917200D02*
X132283333Y-113821961D01*
X132283333Y-113821961D02*
X132235714Y-113726723D01*
X132235714Y-113726723D02*
X132188095Y-113536247D01*
X132188095Y-113536247D02*
X132188095Y-113393390D01*
X132188095Y-113393390D02*
X132235714Y-113202914D01*
X132235714Y-113202914D02*
X132283333Y-113107676D01*
X132283333Y-113107676D02*
X132378571Y-113012438D01*
X132378571Y-113012438D02*
X132521428Y-112964819D01*
X132521428Y-112964819D02*
X132616666Y-112964819D01*
X132616666Y-112964819D02*
X132759523Y-113012438D01*
X132759523Y-113012438D02*
X132807142Y-113060057D01*
X133140476Y-112964819D02*
X133759523Y-112964819D01*
X133759523Y-112964819D02*
X133426190Y-113345771D01*
X133426190Y-113345771D02*
X133569047Y-113345771D01*
X133569047Y-113345771D02*
X133664285Y-113393390D01*
X133664285Y-113393390D02*
X133711904Y-113441009D01*
X133711904Y-113441009D02*
X133759523Y-113536247D01*
X133759523Y-113536247D02*
X133759523Y-113774342D01*
X133759523Y-113774342D02*
X133711904Y-113869580D01*
X133711904Y-113869580D02*
X133664285Y-113917200D01*
X133664285Y-113917200D02*
X133569047Y-113964819D01*
X133569047Y-113964819D02*
X133283333Y-113964819D01*
X133283333Y-113964819D02*
X133188095Y-113917200D01*
X133188095Y-113917200D02*
X133140476Y-113869580D01*
X134378571Y-112964819D02*
X134473809Y-112964819D01*
X134473809Y-112964819D02*
X134569047Y-113012438D01*
X134569047Y-113012438D02*
X134616666Y-113060057D01*
X134616666Y-113060057D02*
X134664285Y-113155295D01*
X134664285Y-113155295D02*
X134711904Y-113345771D01*
X134711904Y-113345771D02*
X134711904Y-113583866D01*
X134711904Y-113583866D02*
X134664285Y-113774342D01*
X134664285Y-113774342D02*
X134616666Y-113869580D01*
X134616666Y-113869580D02*
X134569047Y-113917200D01*
X134569047Y-113917200D02*
X134473809Y-113964819D01*
X134473809Y-113964819D02*
X134378571Y-113964819D01*
X134378571Y-113964819D02*
X134283333Y-113917200D01*
X134283333Y-113917200D02*
X134235714Y-113869580D01*
X134235714Y-113869580D02*
X134188095Y-113774342D01*
X134188095Y-113774342D02*
X134140476Y-113583866D01*
X134140476Y-113583866D02*
X134140476Y-113345771D01*
X134140476Y-113345771D02*
X134188095Y-113155295D01*
X134188095Y-113155295D02*
X134235714Y-113060057D01*
X134235714Y-113060057D02*
X134283333Y-113012438D01*
X134283333Y-113012438D02*
X134378571Y-112964819D01*
X126035714Y-120204819D02*
X126035714Y-119204819D01*
X126035714Y-119204819D02*
X126273809Y-119204819D01*
X126273809Y-119204819D02*
X126416666Y-119252438D01*
X126416666Y-119252438D02*
X126511904Y-119347676D01*
X126511904Y-119347676D02*
X126559523Y-119442914D01*
X126559523Y-119442914D02*
X126607142Y-119633390D01*
X126607142Y-119633390D02*
X126607142Y-119776247D01*
X126607142Y-119776247D02*
X126559523Y-119966723D01*
X126559523Y-119966723D02*
X126511904Y-120061961D01*
X126511904Y-120061961D02*
X126416666Y-120157200D01*
X126416666Y-120157200D02*
X126273809Y-120204819D01*
X126273809Y-120204819D02*
X126035714Y-120204819D01*
X127559523Y-120204819D02*
X126988095Y-120204819D01*
X127273809Y-120204819D02*
X127273809Y-119204819D01*
X127273809Y-119204819D02*
X127178571Y-119347676D01*
X127178571Y-119347676D02*
X127083333Y-119442914D01*
X127083333Y-119442914D02*
X126988095Y-119490533D01*
X128178571Y-119204819D02*
X128273809Y-119204819D01*
X128273809Y-119204819D02*
X128369047Y-119252438D01*
X128369047Y-119252438D02*
X128416666Y-119300057D01*
X128416666Y-119300057D02*
X128464285Y-119395295D01*
X128464285Y-119395295D02*
X128511904Y-119585771D01*
X128511904Y-119585771D02*
X128511904Y-119823866D01*
X128511904Y-119823866D02*
X128464285Y-120014342D01*
X128464285Y-120014342D02*
X128416666Y-120109580D01*
X128416666Y-120109580D02*
X128369047Y-120157200D01*
X128369047Y-120157200D02*
X128273809Y-120204819D01*
X128273809Y-120204819D02*
X128178571Y-120204819D01*
X128178571Y-120204819D02*
X128083333Y-120157200D01*
X128083333Y-120157200D02*
X128035714Y-120109580D01*
X128035714Y-120109580D02*
X127988095Y-120014342D01*
X127988095Y-120014342D02*
X127940476Y-119823866D01*
X127940476Y-119823866D02*
X127940476Y-119585771D01*
X127940476Y-119585771D02*
X127988095Y-119395295D01*
X127988095Y-119395295D02*
X128035714Y-119300057D01*
X128035714Y-119300057D02*
X128083333Y-119252438D01*
X128083333Y-119252438D02*
X128178571Y-119204819D01*
X114859580Y-97416666D02*
X114907200Y-97464285D01*
X114907200Y-97464285D02*
X114954819Y-97607142D01*
X114954819Y-97607142D02*
X114954819Y-97702380D01*
X114954819Y-97702380D02*
X114907200Y-97845237D01*
X114907200Y-97845237D02*
X114811961Y-97940475D01*
X114811961Y-97940475D02*
X114716723Y-97988094D01*
X114716723Y-97988094D02*
X114526247Y-98035713D01*
X114526247Y-98035713D02*
X114383390Y-98035713D01*
X114383390Y-98035713D02*
X114192914Y-97988094D01*
X114192914Y-97988094D02*
X114097676Y-97940475D01*
X114097676Y-97940475D02*
X114002438Y-97845237D01*
X114002438Y-97845237D02*
X113954819Y-97702380D01*
X113954819Y-97702380D02*
X113954819Y-97607142D01*
X113954819Y-97607142D02*
X114002438Y-97464285D01*
X114002438Y-97464285D02*
X114050057Y-97416666D01*
X114050057Y-97035713D02*
X114002438Y-96988094D01*
X114002438Y-96988094D02*
X113954819Y-96892856D01*
X113954819Y-96892856D02*
X113954819Y-96654761D01*
X113954819Y-96654761D02*
X114002438Y-96559523D01*
X114002438Y-96559523D02*
X114050057Y-96511904D01*
X114050057Y-96511904D02*
X114145295Y-96464285D01*
X114145295Y-96464285D02*
X114240533Y-96464285D01*
X114240533Y-96464285D02*
X114383390Y-96511904D01*
X114383390Y-96511904D02*
X114954819Y-97083332D01*
X114954819Y-97083332D02*
X114954819Y-96464285D01*
X105083333Y-93704819D02*
X104750000Y-93228628D01*
X104511905Y-93704819D02*
X104511905Y-92704819D01*
X104511905Y-92704819D02*
X104892857Y-92704819D01*
X104892857Y-92704819D02*
X104988095Y-92752438D01*
X104988095Y-92752438D02*
X105035714Y-92800057D01*
X105035714Y-92800057D02*
X105083333Y-92895295D01*
X105083333Y-92895295D02*
X105083333Y-93038152D01*
X105083333Y-93038152D02*
X105035714Y-93133390D01*
X105035714Y-93133390D02*
X104988095Y-93181009D01*
X104988095Y-93181009D02*
X104892857Y-93228628D01*
X104892857Y-93228628D02*
X104511905Y-93228628D01*
X105654762Y-93133390D02*
X105559524Y-93085771D01*
X105559524Y-93085771D02*
X105511905Y-93038152D01*
X105511905Y-93038152D02*
X105464286Y-92942914D01*
X105464286Y-92942914D02*
X105464286Y-92895295D01*
X105464286Y-92895295D02*
X105511905Y-92800057D01*
X105511905Y-92800057D02*
X105559524Y-92752438D01*
X105559524Y-92752438D02*
X105654762Y-92704819D01*
X105654762Y-92704819D02*
X105845238Y-92704819D01*
X105845238Y-92704819D02*
X105940476Y-92752438D01*
X105940476Y-92752438D02*
X105988095Y-92800057D01*
X105988095Y-92800057D02*
X106035714Y-92895295D01*
X106035714Y-92895295D02*
X106035714Y-92942914D01*
X106035714Y-92942914D02*
X105988095Y-93038152D01*
X105988095Y-93038152D02*
X105940476Y-93085771D01*
X105940476Y-93085771D02*
X105845238Y-93133390D01*
X105845238Y-93133390D02*
X105654762Y-93133390D01*
X105654762Y-93133390D02*
X105559524Y-93181009D01*
X105559524Y-93181009D02*
X105511905Y-93228628D01*
X105511905Y-93228628D02*
X105464286Y-93323866D01*
X105464286Y-93323866D02*
X105464286Y-93514342D01*
X105464286Y-93514342D02*
X105511905Y-93609580D01*
X105511905Y-93609580D02*
X105559524Y-93657200D01*
X105559524Y-93657200D02*
X105654762Y-93704819D01*
X105654762Y-93704819D02*
X105845238Y-93704819D01*
X105845238Y-93704819D02*
X105940476Y-93657200D01*
X105940476Y-93657200D02*
X105988095Y-93609580D01*
X105988095Y-93609580D02*
X106035714Y-93514342D01*
X106035714Y-93514342D02*
X106035714Y-93323866D01*
X106035714Y-93323866D02*
X105988095Y-93228628D01*
X105988095Y-93228628D02*
X105940476Y-93181009D01*
X105940476Y-93181009D02*
X105845238Y-93133390D01*
X128261905Y-130954819D02*
X128261905Y-129954819D01*
X128261905Y-129954819D02*
X128500000Y-129954819D01*
X128500000Y-129954819D02*
X128642857Y-130002438D01*
X128642857Y-130002438D02*
X128738095Y-130097676D01*
X128738095Y-130097676D02*
X128785714Y-130192914D01*
X128785714Y-130192914D02*
X128833333Y-130383390D01*
X128833333Y-130383390D02*
X128833333Y-130526247D01*
X128833333Y-130526247D02*
X128785714Y-130716723D01*
X128785714Y-130716723D02*
X128738095Y-130811961D01*
X128738095Y-130811961D02*
X128642857Y-130907200D01*
X128642857Y-130907200D02*
X128500000Y-130954819D01*
X128500000Y-130954819D02*
X128261905Y-130954819D01*
X129166667Y-129954819D02*
X129833333Y-129954819D01*
X129833333Y-129954819D02*
X129404762Y-130954819D01*
%TO.C,C34*%
D13*
X91090000Y-118211252D02*
X91090000Y-116788748D01*
X92910000Y-118211252D02*
X92910000Y-116788748D01*
%TO.C,C18*%
X120840000Y-123961252D02*
X120840000Y-122538748D01*
X122660000Y-123961252D02*
X122660000Y-122538748D01*
%TO.C,D6*%
X137110000Y-131500000D02*
X133100000Y-131500000D01*
X137110000Y-133500000D02*
X133100000Y-133500000D01*
X137110000Y-133500000D02*
X137110000Y-131500000D01*
%TO.C,D9*%
X137250000Y-124890000D02*
X137250000Y-128900000D01*
X139250000Y-124890000D02*
X137250000Y-124890000D01*
X139250000Y-124890000D02*
X139250000Y-128900000D01*
%TO.C,R13*%
X98515000Y-124727064D02*
X98515000Y-124272936D01*
X99985000Y-124727064D02*
X99985000Y-124272936D01*
%TO.C,R12*%
X95022936Y-115265000D02*
X95477064Y-115265000D01*
X95022936Y-116735000D02*
X95477064Y-116735000D01*
%TO.C,R14*%
X100765000Y-124727064D02*
X100765000Y-124272936D01*
X102235000Y-124727064D02*
X102235000Y-124272936D01*
%TO.C,C17*%
X123340000Y-123961252D02*
X123340000Y-122538748D01*
X125160000Y-123961252D02*
X125160000Y-122538748D01*
%TO.C,C32*%
X142015000Y-123988748D02*
X142015000Y-124511252D01*
X143485000Y-123988748D02*
X143485000Y-124511252D01*
%TO.C,C33*%
X129988748Y-114765000D02*
X130511252Y-114765000D01*
X129988748Y-116235000D02*
X130511252Y-116235000D01*
%TO.C,C22*%
X99261252Y-115265000D02*
X98738748Y-115265000D01*
X99261252Y-116735000D02*
X98738748Y-116735000D01*
%TO.C,D8*%
X137250000Y-119140000D02*
X137250000Y-123150000D01*
X139250000Y-119140000D02*
X137250000Y-119140000D01*
X139250000Y-119140000D02*
X139250000Y-123150000D01*
%TO.C,C28*%
X132511252Y-134265000D02*
X131988748Y-134265000D01*
X132511252Y-135735000D02*
X131988748Y-135735000D01*
%TO.C,SW3*%
X92250000Y-147130000D02*
X92250000Y-145750000D01*
X93630000Y-147130000D02*
X92250000Y-147130000D01*
X94900000Y-144370000D02*
X110250000Y-144370000D01*
X94900000Y-147130000D02*
X94900000Y-144370000D01*
X94900000Y-147130000D02*
X110250000Y-147130000D01*
X110250000Y-147130000D02*
X110250000Y-144370000D01*
%TO.C,C31*%
X132511252Y-136265000D02*
X131988748Y-136265000D01*
X132511252Y-137735000D02*
X131988748Y-137735000D01*
%TO.C,C29*%
X140015000Y-123988748D02*
X140015000Y-124511252D01*
X141485000Y-123988748D02*
X141485000Y-124511252D01*
%TO.C,R21*%
X120265000Y-140727064D02*
X120265000Y-140272936D01*
X121735000Y-140727064D02*
X121735000Y-140272936D01*
%TO.C,D11*%
X130640000Y-117000000D02*
X130640000Y-119000000D01*
X130640000Y-117000000D02*
X134650000Y-117000000D01*
X130640000Y-119000000D02*
X134650000Y-119000000D01*
%TO.C,U4*%
X131450000Y-80800000D02*
X131450000Y-96400000D01*
X131450000Y-96400000D02*
X135550000Y-97800000D01*
X135550000Y-78050000D02*
X135550000Y-79300000D01*
X135550000Y-79300000D02*
X131450000Y-80800000D01*
X135550000Y-97800000D02*
X135550000Y-105450000D01*
X135550000Y-105450000D02*
X136600000Y-105450000D01*
X136600000Y-75200000D02*
X136600000Y-78050000D01*
X136600000Y-78050000D02*
X135550000Y-78050000D01*
X136600000Y-105450000D02*
X136600000Y-108300000D01*
X141400000Y-78050000D02*
X141400000Y-75200000D01*
X141400000Y-105450000D02*
X201600000Y-105450000D01*
X141400000Y-108300000D02*
X141400000Y-105450000D01*
X177700000Y-107300000D02*
X178500000Y-105900000D01*
X177700000Y-107300000D02*
X179300000Y-107300000D01*
X178500000Y-105900000D02*
X179300000Y-107300000D01*
X201600000Y-75200000D02*
X201600000Y-78050000D01*
X201600000Y-78050000D02*
X141400000Y-78050000D01*
X201600000Y-105450000D02*
X201600000Y-108300000D01*
X206400000Y-78050000D02*
X206400000Y-75200000D01*
X206400000Y-105450000D02*
X207450000Y-105450000D01*
X206400000Y-108300000D02*
X206400000Y-105450000D01*
X207450000Y-78050000D02*
X206400000Y-78050000D01*
X207450000Y-105450000D02*
X207450000Y-78050000D01*
X136600000Y-75200000D02*
G75*
G02*
X141400000Y-75200000I2400000J0D01*
G01*
X141400000Y-108300000D02*
G75*
G02*
X136600000Y-108300000I-2400000J0D01*
G01*
X201600000Y-75200000D02*
G75*
G02*
X206400000Y-75200000I2400000J0D01*
G01*
X206400000Y-108300000D02*
G75*
G02*
X201600000Y-108300000I-2400000J0D01*
G01*
%TO.C,C20*%
X120265000Y-136488748D02*
X120265000Y-137011252D01*
X121735000Y-136488748D02*
X121735000Y-137011252D01*
%TO.C,C30*%
X129988748Y-112765000D02*
X130511252Y-112765000D01*
X129988748Y-114235000D02*
X130511252Y-114235000D01*
%TO.C,D10*%
X124890000Y-117000000D02*
X124890000Y-119000000D01*
X124890000Y-117000000D02*
X128900000Y-117000000D01*
X124890000Y-119000000D02*
X128900000Y-119000000D01*
%TO.C,C2*%
X113765000Y-94761252D02*
X113765000Y-94238748D01*
X115235000Y-94761252D02*
X115235000Y-94238748D01*
%TO.C,R8*%
X107772936Y-92515000D02*
X108227064Y-92515000D01*
X107772936Y-93985000D02*
X108227064Y-93985000D01*
%TO.C,D7*%
X131360000Y-131500000D02*
X127350000Y-131500000D01*
X131360000Y-133500000D02*
X127350000Y-133500000D01*
X131360000Y-133500000D02*
X131360000Y-131500000D01*
%TD*%
M02*
