%TF.GenerationSoftware,KiCad,Pcbnew,10.0.1*%
%TF.CreationDate,2026-05-20T18:46:21-04:00*%
%TF.ProjectId,Spin_Coater,5370696e-5f43-46f6-9174-65722e6b6963,rev?*%
%TF.SameCoordinates,Original*%
%TF.FileFunction,Legend,Bot*%
%TF.FilePolarity,Positive*%
%FSLAX46Y46*%
G04 Gerber Fmt 4.6, Leading zero omitted, Abs format (unit mm)*
G04 Created by KiCad (PCBNEW 10.0.1) date 2026-05-20 18:46:21*
%MOMM*%
%LPD*%
G01*
G04 APERTURE LIST*
%ADD10C,0.150000*%
%ADD11C,0.300000*%
%ADD12C,0.100000*%
%ADD13C,0.120000*%
%ADD14C,0.000000*%
G04 APERTURE END LIST*
D10*
X197913220Y-87369819D02*
X197913220Y-86369819D01*
X197913220Y-86369819D02*
X197579887Y-87084104D01*
X197579887Y-87084104D02*
X197246554Y-86369819D01*
X197246554Y-86369819D02*
X197246554Y-87369819D01*
X196770363Y-87369819D02*
X196770363Y-86703152D01*
X196770363Y-86369819D02*
X196817982Y-86417438D01*
X196817982Y-86417438D02*
X196770363Y-86465057D01*
X196770363Y-86465057D02*
X196722744Y-86417438D01*
X196722744Y-86417438D02*
X196770363Y-86369819D01*
X196770363Y-86369819D02*
X196770363Y-86465057D01*
X195865602Y-87322200D02*
X195960840Y-87369819D01*
X195960840Y-87369819D02*
X196151316Y-87369819D01*
X196151316Y-87369819D02*
X196246554Y-87322200D01*
X196246554Y-87322200D02*
X196294173Y-87274580D01*
X196294173Y-87274580D02*
X196341792Y-87179342D01*
X196341792Y-87179342D02*
X196341792Y-86893628D01*
X196341792Y-86893628D02*
X196294173Y-86798390D01*
X196294173Y-86798390D02*
X196246554Y-86750771D01*
X196246554Y-86750771D02*
X196151316Y-86703152D01*
X196151316Y-86703152D02*
X195960840Y-86703152D01*
X195960840Y-86703152D02*
X195865602Y-86750771D01*
X195437030Y-87369819D02*
X195437030Y-86369819D01*
X195008459Y-87369819D02*
X195008459Y-86846009D01*
X195008459Y-86846009D02*
X195056078Y-86750771D01*
X195056078Y-86750771D02*
X195151316Y-86703152D01*
X195151316Y-86703152D02*
X195294173Y-86703152D01*
X195294173Y-86703152D02*
X195389411Y-86750771D01*
X195389411Y-86750771D02*
X195437030Y-86798390D01*
X194103697Y-87369819D02*
X194103697Y-86846009D01*
X194103697Y-86846009D02*
X194151316Y-86750771D01*
X194151316Y-86750771D02*
X194246554Y-86703152D01*
X194246554Y-86703152D02*
X194437030Y-86703152D01*
X194437030Y-86703152D02*
X194532268Y-86750771D01*
X194103697Y-87322200D02*
X194198935Y-87369819D01*
X194198935Y-87369819D02*
X194437030Y-87369819D01*
X194437030Y-87369819D02*
X194532268Y-87322200D01*
X194532268Y-87322200D02*
X194579887Y-87226961D01*
X194579887Y-87226961D02*
X194579887Y-87131723D01*
X194579887Y-87131723D02*
X194532268Y-87036485D01*
X194532268Y-87036485D02*
X194437030Y-86988866D01*
X194437030Y-86988866D02*
X194198935Y-86988866D01*
X194198935Y-86988866D02*
X194103697Y-86941247D01*
X193246554Y-87322200D02*
X193341792Y-87369819D01*
X193341792Y-87369819D02*
X193532268Y-87369819D01*
X193532268Y-87369819D02*
X193627506Y-87322200D01*
X193627506Y-87322200D02*
X193675125Y-87226961D01*
X193675125Y-87226961D02*
X193675125Y-86846009D01*
X193675125Y-86846009D02*
X193627506Y-86750771D01*
X193627506Y-86750771D02*
X193532268Y-86703152D01*
X193532268Y-86703152D02*
X193341792Y-86703152D01*
X193341792Y-86703152D02*
X193246554Y-86750771D01*
X193246554Y-86750771D02*
X193198935Y-86846009D01*
X193198935Y-86846009D02*
X193198935Y-86941247D01*
X193198935Y-86941247D02*
X193675125Y-87036485D01*
X192627506Y-87369819D02*
X192722744Y-87322200D01*
X192722744Y-87322200D02*
X192770363Y-87226961D01*
X192770363Y-87226961D02*
X192770363Y-86369819D01*
X191008458Y-87369819D02*
X191484648Y-87369819D01*
X191484648Y-87369819D02*
X191484648Y-86369819D01*
X190246553Y-87369819D02*
X190246553Y-86846009D01*
X190246553Y-86846009D02*
X190294172Y-86750771D01*
X190294172Y-86750771D02*
X190389410Y-86703152D01*
X190389410Y-86703152D02*
X190579886Y-86703152D01*
X190579886Y-86703152D02*
X190675124Y-86750771D01*
X190246553Y-87322200D02*
X190341791Y-87369819D01*
X190341791Y-87369819D02*
X190579886Y-87369819D01*
X190579886Y-87369819D02*
X190675124Y-87322200D01*
X190675124Y-87322200D02*
X190722743Y-87226961D01*
X190722743Y-87226961D02*
X190722743Y-87131723D01*
X190722743Y-87131723D02*
X190675124Y-87036485D01*
X190675124Y-87036485D02*
X190579886Y-86988866D01*
X190579886Y-86988866D02*
X190341791Y-86988866D01*
X190341791Y-86988866D02*
X190246553Y-86941247D01*
X189770362Y-87369819D02*
X189770362Y-86703152D01*
X189770362Y-86798390D02*
X189722743Y-86750771D01*
X189722743Y-86750771D02*
X189627505Y-86703152D01*
X189627505Y-86703152D02*
X189484648Y-86703152D01*
X189484648Y-86703152D02*
X189389410Y-86750771D01*
X189389410Y-86750771D02*
X189341791Y-86846009D01*
X189341791Y-86846009D02*
X189341791Y-87369819D01*
X189341791Y-86846009D02*
X189294172Y-86750771D01*
X189294172Y-86750771D02*
X189198934Y-86703152D01*
X189198934Y-86703152D02*
X189056077Y-86703152D01*
X189056077Y-86703152D02*
X188960838Y-86750771D01*
X188960838Y-86750771D02*
X188913219Y-86846009D01*
X188913219Y-86846009D02*
X188913219Y-87369819D01*
X188389410Y-87322200D02*
X188389410Y-87369819D01*
X188389410Y-87369819D02*
X188437029Y-87465057D01*
X188437029Y-87465057D02*
X188484648Y-87512676D01*
X187246553Y-87322200D02*
X187103696Y-87369819D01*
X187103696Y-87369819D02*
X186865601Y-87369819D01*
X186865601Y-87369819D02*
X186770363Y-87322200D01*
X186770363Y-87322200D02*
X186722744Y-87274580D01*
X186722744Y-87274580D02*
X186675125Y-87179342D01*
X186675125Y-87179342D02*
X186675125Y-87084104D01*
X186675125Y-87084104D02*
X186722744Y-86988866D01*
X186722744Y-86988866D02*
X186770363Y-86941247D01*
X186770363Y-86941247D02*
X186865601Y-86893628D01*
X186865601Y-86893628D02*
X187056077Y-86846009D01*
X187056077Y-86846009D02*
X187151315Y-86798390D01*
X187151315Y-86798390D02*
X187198934Y-86750771D01*
X187198934Y-86750771D02*
X187246553Y-86655533D01*
X187246553Y-86655533D02*
X187246553Y-86560295D01*
X187246553Y-86560295D02*
X187198934Y-86465057D01*
X187198934Y-86465057D02*
X187151315Y-86417438D01*
X187151315Y-86417438D02*
X187056077Y-86369819D01*
X187056077Y-86369819D02*
X186817982Y-86369819D01*
X186817982Y-86369819D02*
X186675125Y-86417438D01*
X186389410Y-86703152D02*
X186008458Y-86703152D01*
X186246553Y-86369819D02*
X186246553Y-87226961D01*
X186246553Y-87226961D02*
X186198934Y-87322200D01*
X186198934Y-87322200D02*
X186103696Y-87369819D01*
X186103696Y-87369819D02*
X186008458Y-87369819D01*
X185294172Y-87322200D02*
X185389410Y-87369819D01*
X185389410Y-87369819D02*
X185579886Y-87369819D01*
X185579886Y-87369819D02*
X185675124Y-87322200D01*
X185675124Y-87322200D02*
X185722743Y-87226961D01*
X185722743Y-87226961D02*
X185722743Y-86846009D01*
X185722743Y-86846009D02*
X185675124Y-86750771D01*
X185675124Y-86750771D02*
X185579886Y-86703152D01*
X185579886Y-86703152D02*
X185389410Y-86703152D01*
X185389410Y-86703152D02*
X185294172Y-86750771D01*
X185294172Y-86750771D02*
X185246553Y-86846009D01*
X185246553Y-86846009D02*
X185246553Y-86941247D01*
X185246553Y-86941247D02*
X185722743Y-87036485D01*
X184960838Y-86703152D02*
X184579886Y-86703152D01*
X184817981Y-87369819D02*
X184817981Y-86512676D01*
X184817981Y-86512676D02*
X184770362Y-86417438D01*
X184770362Y-86417438D02*
X184675124Y-86369819D01*
X184675124Y-86369819D02*
X184579886Y-86369819D01*
X183817981Y-87369819D02*
X183817981Y-86846009D01*
X183817981Y-86846009D02*
X183865600Y-86750771D01*
X183865600Y-86750771D02*
X183960838Y-86703152D01*
X183960838Y-86703152D02*
X184151314Y-86703152D01*
X184151314Y-86703152D02*
X184246552Y-86750771D01*
X183817981Y-87322200D02*
X183913219Y-87369819D01*
X183913219Y-87369819D02*
X184151314Y-87369819D01*
X184151314Y-87369819D02*
X184246552Y-87322200D01*
X184246552Y-87322200D02*
X184294171Y-87226961D01*
X184294171Y-87226961D02*
X184294171Y-87131723D01*
X184294171Y-87131723D02*
X184246552Y-87036485D01*
X184246552Y-87036485D02*
X184151314Y-86988866D01*
X184151314Y-86988866D02*
X183913219Y-86988866D01*
X183913219Y-86988866D02*
X183817981Y-86941247D01*
X183341790Y-86703152D02*
X183341790Y-87369819D01*
X183341790Y-86798390D02*
X183294171Y-86750771D01*
X183294171Y-86750771D02*
X183198933Y-86703152D01*
X183198933Y-86703152D02*
X183056076Y-86703152D01*
X183056076Y-86703152D02*
X182960838Y-86750771D01*
X182960838Y-86750771D02*
X182913219Y-86846009D01*
X182913219Y-86846009D02*
X182913219Y-87369819D01*
X181675123Y-87369819D02*
X181675123Y-86369819D01*
X181675123Y-86369819D02*
X181294171Y-86369819D01*
X181294171Y-86369819D02*
X181198933Y-86417438D01*
X181198933Y-86417438D02*
X181151314Y-86465057D01*
X181151314Y-86465057D02*
X181103695Y-86560295D01*
X181103695Y-86560295D02*
X181103695Y-86703152D01*
X181103695Y-86703152D02*
X181151314Y-86798390D01*
X181151314Y-86798390D02*
X181198933Y-86846009D01*
X181198933Y-86846009D02*
X181294171Y-86893628D01*
X181294171Y-86893628D02*
X181675123Y-86893628D01*
X180532266Y-87369819D02*
X180627504Y-87322200D01*
X180627504Y-87322200D02*
X180675123Y-87274580D01*
X180675123Y-87274580D02*
X180722742Y-87179342D01*
X180722742Y-87179342D02*
X180722742Y-86893628D01*
X180722742Y-86893628D02*
X180675123Y-86798390D01*
X180675123Y-86798390D02*
X180627504Y-86750771D01*
X180627504Y-86750771D02*
X180532266Y-86703152D01*
X180532266Y-86703152D02*
X180389409Y-86703152D01*
X180389409Y-86703152D02*
X180294171Y-86750771D01*
X180294171Y-86750771D02*
X180246552Y-86798390D01*
X180246552Y-86798390D02*
X180198933Y-86893628D01*
X180198933Y-86893628D02*
X180198933Y-87179342D01*
X180198933Y-87179342D02*
X180246552Y-87274580D01*
X180246552Y-87274580D02*
X180294171Y-87322200D01*
X180294171Y-87322200D02*
X180389409Y-87369819D01*
X180389409Y-87369819D02*
X180532266Y-87369819D01*
X179770361Y-86703152D02*
X179770361Y-87703152D01*
X179770361Y-86750771D02*
X179675123Y-86703152D01*
X179675123Y-86703152D02*
X179484647Y-86703152D01*
X179484647Y-86703152D02*
X179389409Y-86750771D01*
X179389409Y-86750771D02*
X179341790Y-86798390D01*
X179341790Y-86798390D02*
X179294171Y-86893628D01*
X179294171Y-86893628D02*
X179294171Y-87179342D01*
X179294171Y-87179342D02*
X179341790Y-87274580D01*
X179341790Y-87274580D02*
X179389409Y-87322200D01*
X179389409Y-87322200D02*
X179484647Y-87369819D01*
X179484647Y-87369819D02*
X179675123Y-87369819D01*
X179675123Y-87369819D02*
X179770361Y-87322200D01*
X178722742Y-87369819D02*
X178817980Y-87322200D01*
X178817980Y-87322200D02*
X178865599Y-87274580D01*
X178865599Y-87274580D02*
X178913218Y-87179342D01*
X178913218Y-87179342D02*
X178913218Y-86893628D01*
X178913218Y-86893628D02*
X178865599Y-86798390D01*
X178865599Y-86798390D02*
X178817980Y-86750771D01*
X178817980Y-86750771D02*
X178722742Y-86703152D01*
X178722742Y-86703152D02*
X178579885Y-86703152D01*
X178579885Y-86703152D02*
X178484647Y-86750771D01*
X178484647Y-86750771D02*
X178437028Y-86798390D01*
X178437028Y-86798390D02*
X178389409Y-86893628D01*
X178389409Y-86893628D02*
X178389409Y-87179342D01*
X178389409Y-87179342D02*
X178437028Y-87274580D01*
X178437028Y-87274580D02*
X178484647Y-87322200D01*
X178484647Y-87322200D02*
X178579885Y-87369819D01*
X178579885Y-87369819D02*
X178722742Y-87369819D01*
X178056075Y-86703152D02*
X177817980Y-87369819D01*
X177817980Y-87369819D02*
X177579885Y-86703152D01*
X177198932Y-87369819D02*
X177198932Y-86703152D01*
X177198932Y-86369819D02*
X177246551Y-86417438D01*
X177246551Y-86417438D02*
X177198932Y-86465057D01*
X177198932Y-86465057D02*
X177151313Y-86417438D01*
X177151313Y-86417438D02*
X177198932Y-86369819D01*
X177198932Y-86369819D02*
X177198932Y-86465057D01*
X176294171Y-87322200D02*
X176389409Y-87369819D01*
X176389409Y-87369819D02*
X176579885Y-87369819D01*
X176579885Y-87369819D02*
X176675123Y-87322200D01*
X176675123Y-87322200D02*
X176722742Y-87274580D01*
X176722742Y-87274580D02*
X176770361Y-87179342D01*
X176770361Y-87179342D02*
X176770361Y-86893628D01*
X176770361Y-86893628D02*
X176722742Y-86798390D01*
X176722742Y-86798390D02*
X176675123Y-86750771D01*
X176675123Y-86750771D02*
X176579885Y-86703152D01*
X176579885Y-86703152D02*
X176389409Y-86703152D01*
X176389409Y-86703152D02*
X176294171Y-86750771D01*
X98702381Y-110204819D02*
X99035714Y-109728628D01*
X99273809Y-110204819D02*
X99273809Y-109204819D01*
X99273809Y-109204819D02*
X98892857Y-109204819D01*
X98892857Y-109204819D02*
X98797619Y-109252438D01*
X98797619Y-109252438D02*
X98750000Y-109300057D01*
X98750000Y-109300057D02*
X98702381Y-109395295D01*
X98702381Y-109395295D02*
X98702381Y-109538152D01*
X98702381Y-109538152D02*
X98750000Y-109633390D01*
X98750000Y-109633390D02*
X98797619Y-109681009D01*
X98797619Y-109681009D02*
X98892857Y-109728628D01*
X98892857Y-109728628D02*
X99273809Y-109728628D01*
X98273809Y-109681009D02*
X97940476Y-109681009D01*
X97797619Y-110204819D02*
X98273809Y-110204819D01*
X98273809Y-110204819D02*
X98273809Y-109204819D01*
X98273809Y-109204819D02*
X97797619Y-109204819D01*
X97416666Y-110157200D02*
X97273809Y-110204819D01*
X97273809Y-110204819D02*
X97035714Y-110204819D01*
X97035714Y-110204819D02*
X96940476Y-110157200D01*
X96940476Y-110157200D02*
X96892857Y-110109580D01*
X96892857Y-110109580D02*
X96845238Y-110014342D01*
X96845238Y-110014342D02*
X96845238Y-109919104D01*
X96845238Y-109919104D02*
X96892857Y-109823866D01*
X96892857Y-109823866D02*
X96940476Y-109776247D01*
X96940476Y-109776247D02*
X97035714Y-109728628D01*
X97035714Y-109728628D02*
X97226190Y-109681009D01*
X97226190Y-109681009D02*
X97321428Y-109633390D01*
X97321428Y-109633390D02*
X97369047Y-109585771D01*
X97369047Y-109585771D02*
X97416666Y-109490533D01*
X97416666Y-109490533D02*
X97416666Y-109395295D01*
X97416666Y-109395295D02*
X97369047Y-109300057D01*
X97369047Y-109300057D02*
X97321428Y-109252438D01*
X97321428Y-109252438D02*
X97226190Y-109204819D01*
X97226190Y-109204819D02*
X96988095Y-109204819D01*
X96988095Y-109204819D02*
X96845238Y-109252438D01*
X96416666Y-109681009D02*
X96083333Y-109681009D01*
X95940476Y-110204819D02*
X96416666Y-110204819D01*
X96416666Y-110204819D02*
X96416666Y-109204819D01*
X96416666Y-109204819D02*
X95940476Y-109204819D01*
X95654761Y-109204819D02*
X95083333Y-109204819D01*
X95369047Y-110204819D02*
X95369047Y-109204819D01*
X123892857Y-137454819D02*
X124369047Y-137454819D01*
X124369047Y-137454819D02*
X124369047Y-136454819D01*
X123559523Y-136931009D02*
X123226190Y-136931009D01*
X123083333Y-137454819D02*
X123559523Y-137454819D01*
X123559523Y-137454819D02*
X123559523Y-136454819D01*
X123559523Y-136454819D02*
X123083333Y-136454819D01*
X122654761Y-137454819D02*
X122654761Y-136454819D01*
X122654761Y-136454819D02*
X122416666Y-136454819D01*
X122416666Y-136454819D02*
X122273809Y-136502438D01*
X122273809Y-136502438D02*
X122178571Y-136597676D01*
X122178571Y-136597676D02*
X122130952Y-136692914D01*
X122130952Y-136692914D02*
X122083333Y-136883390D01*
X122083333Y-136883390D02*
X122083333Y-137026247D01*
X122083333Y-137026247D02*
X122130952Y-137216723D01*
X122130952Y-137216723D02*
X122178571Y-137311961D01*
X122178571Y-137311961D02*
X122273809Y-137407200D01*
X122273809Y-137407200D02*
X122416666Y-137454819D01*
X122416666Y-137454819D02*
X122654761Y-137454819D01*
X110431009Y-145392857D02*
X110478628Y-145535714D01*
X110478628Y-145535714D02*
X110526247Y-145583333D01*
X110526247Y-145583333D02*
X110621485Y-145630952D01*
X110621485Y-145630952D02*
X110764342Y-145630952D01*
X110764342Y-145630952D02*
X110859580Y-145583333D01*
X110859580Y-145583333D02*
X110907200Y-145535714D01*
X110907200Y-145535714D02*
X110954819Y-145440476D01*
X110954819Y-145440476D02*
X110954819Y-145059524D01*
X110954819Y-145059524D02*
X109954819Y-145059524D01*
X109954819Y-145059524D02*
X109954819Y-145392857D01*
X109954819Y-145392857D02*
X110002438Y-145488095D01*
X110002438Y-145488095D02*
X110050057Y-145535714D01*
X110050057Y-145535714D02*
X110145295Y-145583333D01*
X110145295Y-145583333D02*
X110240533Y-145583333D01*
X110240533Y-145583333D02*
X110335771Y-145535714D01*
X110335771Y-145535714D02*
X110383390Y-145488095D01*
X110383390Y-145488095D02*
X110431009Y-145392857D01*
X110431009Y-145392857D02*
X110431009Y-145059524D01*
X109954819Y-146250000D02*
X109954819Y-146440476D01*
X109954819Y-146440476D02*
X110002438Y-146535714D01*
X110002438Y-146535714D02*
X110097676Y-146630952D01*
X110097676Y-146630952D02*
X110288152Y-146678571D01*
X110288152Y-146678571D02*
X110621485Y-146678571D01*
X110621485Y-146678571D02*
X110811961Y-146630952D01*
X110811961Y-146630952D02*
X110907200Y-146535714D01*
X110907200Y-146535714D02*
X110954819Y-146440476D01*
X110954819Y-146440476D02*
X110954819Y-146250000D01*
X110954819Y-146250000D02*
X110907200Y-146154762D01*
X110907200Y-146154762D02*
X110811961Y-146059524D01*
X110811961Y-146059524D02*
X110621485Y-146011905D01*
X110621485Y-146011905D02*
X110288152Y-146011905D01*
X110288152Y-146011905D02*
X110097676Y-146059524D01*
X110097676Y-146059524D02*
X110002438Y-146154762D01*
X110002438Y-146154762D02*
X109954819Y-146250000D01*
X109954819Y-147297619D02*
X109954819Y-147488095D01*
X109954819Y-147488095D02*
X110002438Y-147583333D01*
X110002438Y-147583333D02*
X110097676Y-147678571D01*
X110097676Y-147678571D02*
X110288152Y-147726190D01*
X110288152Y-147726190D02*
X110621485Y-147726190D01*
X110621485Y-147726190D02*
X110811961Y-147678571D01*
X110811961Y-147678571D02*
X110907200Y-147583333D01*
X110907200Y-147583333D02*
X110954819Y-147488095D01*
X110954819Y-147488095D02*
X110954819Y-147297619D01*
X110954819Y-147297619D02*
X110907200Y-147202381D01*
X110907200Y-147202381D02*
X110811961Y-147107143D01*
X110811961Y-147107143D02*
X110621485Y-147059524D01*
X110621485Y-147059524D02*
X110288152Y-147059524D01*
X110288152Y-147059524D02*
X110097676Y-147107143D01*
X110097676Y-147107143D02*
X110002438Y-147202381D01*
X110002438Y-147202381D02*
X109954819Y-147297619D01*
X109954819Y-148011905D02*
X109954819Y-148583333D01*
X110954819Y-148297619D02*
X109954819Y-148297619D01*
X128082561Y-140889411D02*
X128130180Y-140984649D01*
X128130180Y-140984649D02*
X128130180Y-141127506D01*
X128130180Y-141127506D02*
X128082561Y-141270363D01*
X128082561Y-141270363D02*
X127987323Y-141365601D01*
X127987323Y-141365601D02*
X127892085Y-141413220D01*
X127892085Y-141413220D02*
X127701609Y-141460839D01*
X127701609Y-141460839D02*
X127558752Y-141460839D01*
X127558752Y-141460839D02*
X127368276Y-141413220D01*
X127368276Y-141413220D02*
X127273038Y-141365601D01*
X127273038Y-141365601D02*
X127177800Y-141270363D01*
X127177800Y-141270363D02*
X127130180Y-141127506D01*
X127130180Y-141127506D02*
X127130180Y-141032268D01*
X127130180Y-141032268D02*
X127177800Y-140889411D01*
X127177800Y-140889411D02*
X127225419Y-140841792D01*
X127225419Y-140841792D02*
X127558752Y-140841792D01*
X127558752Y-140841792D02*
X127558752Y-141032268D01*
X127130180Y-140413220D02*
X128130180Y-140413220D01*
X128130180Y-140413220D02*
X127130180Y-139841792D01*
X127130180Y-139841792D02*
X128130180Y-139841792D01*
X127130180Y-139365601D02*
X128130180Y-139365601D01*
X128130180Y-139365601D02*
X128130180Y-139127506D01*
X128130180Y-139127506D02*
X128082561Y-138984649D01*
X128082561Y-138984649D02*
X127987323Y-138889411D01*
X127987323Y-138889411D02*
X127892085Y-138841792D01*
X127892085Y-138841792D02*
X127701609Y-138794173D01*
X127701609Y-138794173D02*
X127558752Y-138794173D01*
X127558752Y-138794173D02*
X127368276Y-138841792D01*
X127368276Y-138841792D02*
X127273038Y-138889411D01*
X127273038Y-138889411D02*
X127177800Y-138984649D01*
X127177800Y-138984649D02*
X127130180Y-139127506D01*
X127130180Y-139127506D02*
X127130180Y-139365601D01*
D11*
X197921679Y-84894400D02*
X197635965Y-84989638D01*
X197635965Y-84989638D02*
X197159774Y-84989638D01*
X197159774Y-84989638D02*
X196969298Y-84894400D01*
X196969298Y-84894400D02*
X196874060Y-84799161D01*
X196874060Y-84799161D02*
X196778822Y-84608685D01*
X196778822Y-84608685D02*
X196778822Y-84418209D01*
X196778822Y-84418209D02*
X196874060Y-84227733D01*
X196874060Y-84227733D02*
X196969298Y-84132495D01*
X196969298Y-84132495D02*
X197159774Y-84037257D01*
X197159774Y-84037257D02*
X197540727Y-83942019D01*
X197540727Y-83942019D02*
X197731203Y-83846780D01*
X197731203Y-83846780D02*
X197826441Y-83751542D01*
X197826441Y-83751542D02*
X197921679Y-83561066D01*
X197921679Y-83561066D02*
X197921679Y-83370590D01*
X197921679Y-83370590D02*
X197826441Y-83180114D01*
X197826441Y-83180114D02*
X197731203Y-83084876D01*
X197731203Y-83084876D02*
X197540727Y-82989638D01*
X197540727Y-82989638D02*
X197064536Y-82989638D01*
X197064536Y-82989638D02*
X196778822Y-83084876D01*
X195921679Y-83656304D02*
X195921679Y-85656304D01*
X195921679Y-83751542D02*
X195731203Y-83656304D01*
X195731203Y-83656304D02*
X195350250Y-83656304D01*
X195350250Y-83656304D02*
X195159774Y-83751542D01*
X195159774Y-83751542D02*
X195064536Y-83846780D01*
X195064536Y-83846780D02*
X194969298Y-84037257D01*
X194969298Y-84037257D02*
X194969298Y-84608685D01*
X194969298Y-84608685D02*
X195064536Y-84799161D01*
X195064536Y-84799161D02*
X195159774Y-84894400D01*
X195159774Y-84894400D02*
X195350250Y-84989638D01*
X195350250Y-84989638D02*
X195731203Y-84989638D01*
X195731203Y-84989638D02*
X195921679Y-84894400D01*
X194112155Y-84989638D02*
X194112155Y-83656304D01*
X194112155Y-82989638D02*
X194207393Y-83084876D01*
X194207393Y-83084876D02*
X194112155Y-83180114D01*
X194112155Y-83180114D02*
X194016917Y-83084876D01*
X194016917Y-83084876D02*
X194112155Y-82989638D01*
X194112155Y-82989638D02*
X194112155Y-83180114D01*
X193159774Y-83656304D02*
X193159774Y-84989638D01*
X193159774Y-83846780D02*
X193064536Y-83751542D01*
X193064536Y-83751542D02*
X192874060Y-83656304D01*
X192874060Y-83656304D02*
X192588345Y-83656304D01*
X192588345Y-83656304D02*
X192397869Y-83751542D01*
X192397869Y-83751542D02*
X192302631Y-83942019D01*
X192302631Y-83942019D02*
X192302631Y-84989638D01*
X188683583Y-84799161D02*
X188778821Y-84894400D01*
X188778821Y-84894400D02*
X189064535Y-84989638D01*
X189064535Y-84989638D02*
X189255011Y-84989638D01*
X189255011Y-84989638D02*
X189540726Y-84894400D01*
X189540726Y-84894400D02*
X189731202Y-84703923D01*
X189731202Y-84703923D02*
X189826440Y-84513447D01*
X189826440Y-84513447D02*
X189921678Y-84132495D01*
X189921678Y-84132495D02*
X189921678Y-83846780D01*
X189921678Y-83846780D02*
X189826440Y-83465828D01*
X189826440Y-83465828D02*
X189731202Y-83275352D01*
X189731202Y-83275352D02*
X189540726Y-83084876D01*
X189540726Y-83084876D02*
X189255011Y-82989638D01*
X189255011Y-82989638D02*
X189064535Y-82989638D01*
X189064535Y-82989638D02*
X188778821Y-83084876D01*
X188778821Y-83084876D02*
X188683583Y-83180114D01*
X187540726Y-84989638D02*
X187731202Y-84894400D01*
X187731202Y-84894400D02*
X187826440Y-84799161D01*
X187826440Y-84799161D02*
X187921678Y-84608685D01*
X187921678Y-84608685D02*
X187921678Y-84037257D01*
X187921678Y-84037257D02*
X187826440Y-83846780D01*
X187826440Y-83846780D02*
X187731202Y-83751542D01*
X187731202Y-83751542D02*
X187540726Y-83656304D01*
X187540726Y-83656304D02*
X187255011Y-83656304D01*
X187255011Y-83656304D02*
X187064535Y-83751542D01*
X187064535Y-83751542D02*
X186969297Y-83846780D01*
X186969297Y-83846780D02*
X186874059Y-84037257D01*
X186874059Y-84037257D02*
X186874059Y-84608685D01*
X186874059Y-84608685D02*
X186969297Y-84799161D01*
X186969297Y-84799161D02*
X187064535Y-84894400D01*
X187064535Y-84894400D02*
X187255011Y-84989638D01*
X187255011Y-84989638D02*
X187540726Y-84989638D01*
X185159773Y-84989638D02*
X185159773Y-83942019D01*
X185159773Y-83942019D02*
X185255011Y-83751542D01*
X185255011Y-83751542D02*
X185445487Y-83656304D01*
X185445487Y-83656304D02*
X185826440Y-83656304D01*
X185826440Y-83656304D02*
X186016916Y-83751542D01*
X185159773Y-84894400D02*
X185350249Y-84989638D01*
X185350249Y-84989638D02*
X185826440Y-84989638D01*
X185826440Y-84989638D02*
X186016916Y-84894400D01*
X186016916Y-84894400D02*
X186112154Y-84703923D01*
X186112154Y-84703923D02*
X186112154Y-84513447D01*
X186112154Y-84513447D02*
X186016916Y-84322971D01*
X186016916Y-84322971D02*
X185826440Y-84227733D01*
X185826440Y-84227733D02*
X185350249Y-84227733D01*
X185350249Y-84227733D02*
X185159773Y-84132495D01*
X184493106Y-83656304D02*
X183731202Y-83656304D01*
X184207392Y-82989638D02*
X184207392Y-84703923D01*
X184207392Y-84703923D02*
X184112154Y-84894400D01*
X184112154Y-84894400D02*
X183921678Y-84989638D01*
X183921678Y-84989638D02*
X183731202Y-84989638D01*
X182302630Y-84894400D02*
X182493106Y-84989638D01*
X182493106Y-84989638D02*
X182874059Y-84989638D01*
X182874059Y-84989638D02*
X183064535Y-84894400D01*
X183064535Y-84894400D02*
X183159773Y-84703923D01*
X183159773Y-84703923D02*
X183159773Y-83942019D01*
X183159773Y-83942019D02*
X183064535Y-83751542D01*
X183064535Y-83751542D02*
X182874059Y-83656304D01*
X182874059Y-83656304D02*
X182493106Y-83656304D01*
X182493106Y-83656304D02*
X182302630Y-83751542D01*
X182302630Y-83751542D02*
X182207392Y-83942019D01*
X182207392Y-83942019D02*
X182207392Y-84132495D01*
X182207392Y-84132495D02*
X183159773Y-84322971D01*
X181350249Y-84989638D02*
X181350249Y-83656304D01*
X181350249Y-84037257D02*
X181255011Y-83846780D01*
X181255011Y-83846780D02*
X181159773Y-83751542D01*
X181159773Y-83751542D02*
X180969297Y-83656304D01*
X180969297Y-83656304D02*
X180778820Y-83656304D01*
X178683582Y-83180114D02*
X178588344Y-83084876D01*
X178588344Y-83084876D02*
X178397868Y-82989638D01*
X178397868Y-82989638D02*
X177921677Y-82989638D01*
X177921677Y-82989638D02*
X177731201Y-83084876D01*
X177731201Y-83084876D02*
X177635963Y-83180114D01*
X177635963Y-83180114D02*
X177540725Y-83370590D01*
X177540725Y-83370590D02*
X177540725Y-83561066D01*
X177540725Y-83561066D02*
X177635963Y-83846780D01*
X177635963Y-83846780D02*
X178778820Y-84989638D01*
X178778820Y-84989638D02*
X177540725Y-84989638D01*
X176302630Y-82989638D02*
X176112153Y-82989638D01*
X176112153Y-82989638D02*
X175921677Y-83084876D01*
X175921677Y-83084876D02*
X175826439Y-83180114D01*
X175826439Y-83180114D02*
X175731201Y-83370590D01*
X175731201Y-83370590D02*
X175635963Y-83751542D01*
X175635963Y-83751542D02*
X175635963Y-84227733D01*
X175635963Y-84227733D02*
X175731201Y-84608685D01*
X175731201Y-84608685D02*
X175826439Y-84799161D01*
X175826439Y-84799161D02*
X175921677Y-84894400D01*
X175921677Y-84894400D02*
X176112153Y-84989638D01*
X176112153Y-84989638D02*
X176302630Y-84989638D01*
X176302630Y-84989638D02*
X176493106Y-84894400D01*
X176493106Y-84894400D02*
X176588344Y-84799161D01*
X176588344Y-84799161D02*
X176683582Y-84608685D01*
X176683582Y-84608685D02*
X176778820Y-84227733D01*
X176778820Y-84227733D02*
X176778820Y-83751542D01*
X176778820Y-83751542D02*
X176683582Y-83370590D01*
X176683582Y-83370590D02*
X176588344Y-83180114D01*
X176588344Y-83180114D02*
X176493106Y-83084876D01*
X176493106Y-83084876D02*
X176302630Y-82989638D01*
X174874058Y-83180114D02*
X174778820Y-83084876D01*
X174778820Y-83084876D02*
X174588344Y-82989638D01*
X174588344Y-82989638D02*
X174112153Y-82989638D01*
X174112153Y-82989638D02*
X173921677Y-83084876D01*
X173921677Y-83084876D02*
X173826439Y-83180114D01*
X173826439Y-83180114D02*
X173731201Y-83370590D01*
X173731201Y-83370590D02*
X173731201Y-83561066D01*
X173731201Y-83561066D02*
X173826439Y-83846780D01*
X173826439Y-83846780D02*
X174969296Y-84989638D01*
X174969296Y-84989638D02*
X173731201Y-84989638D01*
X172016915Y-82989638D02*
X172397868Y-82989638D01*
X172397868Y-82989638D02*
X172588344Y-83084876D01*
X172588344Y-83084876D02*
X172683582Y-83180114D01*
X172683582Y-83180114D02*
X172874058Y-83465828D01*
X172874058Y-83465828D02*
X172969296Y-83846780D01*
X172969296Y-83846780D02*
X172969296Y-84608685D01*
X172969296Y-84608685D02*
X172874058Y-84799161D01*
X172874058Y-84799161D02*
X172778820Y-84894400D01*
X172778820Y-84894400D02*
X172588344Y-84989638D01*
X172588344Y-84989638D02*
X172207391Y-84989638D01*
X172207391Y-84989638D02*
X172016915Y-84894400D01*
X172016915Y-84894400D02*
X171921677Y-84799161D01*
X171921677Y-84799161D02*
X171826439Y-84608685D01*
X171826439Y-84608685D02*
X171826439Y-84132495D01*
X171826439Y-84132495D02*
X171921677Y-83942019D01*
X171921677Y-83942019D02*
X172016915Y-83846780D01*
X172016915Y-83846780D02*
X172207391Y-83751542D01*
X172207391Y-83751542D02*
X172588344Y-83751542D01*
X172588344Y-83751542D02*
X172778820Y-83846780D01*
X172778820Y-83846780D02*
X172874058Y-83942019D01*
X172874058Y-83942019D02*
X172969296Y-84132495D01*
D10*
X124962442Y-114595238D02*
X125010061Y-114690476D01*
X125010061Y-114690476D02*
X125105300Y-114785714D01*
X125105300Y-114785714D02*
X125248157Y-114928571D01*
X125248157Y-114928571D02*
X125295776Y-115023809D01*
X125295776Y-115023809D02*
X125295776Y-115119047D01*
X125057680Y-115071428D02*
X125105300Y-115166666D01*
X125105300Y-115166666D02*
X125200538Y-115261904D01*
X125200538Y-115261904D02*
X125391014Y-115309523D01*
X125391014Y-115309523D02*
X125724347Y-115309523D01*
X125724347Y-115309523D02*
X125914823Y-115261904D01*
X125914823Y-115261904D02*
X126010061Y-115166666D01*
X126010061Y-115166666D02*
X126057680Y-115071428D01*
X126057680Y-115071428D02*
X126057680Y-114880952D01*
X126057680Y-114880952D02*
X126010061Y-114785714D01*
X126010061Y-114785714D02*
X125914823Y-114690476D01*
X125914823Y-114690476D02*
X125724347Y-114642857D01*
X125724347Y-114642857D02*
X125391014Y-114642857D01*
X125391014Y-114642857D02*
X125200538Y-114690476D01*
X125200538Y-114690476D02*
X125105300Y-114785714D01*
X125105300Y-114785714D02*
X125057680Y-114880952D01*
X125057680Y-114880952D02*
X125057680Y-115071428D01*
X126057680Y-113785714D02*
X126057680Y-113976190D01*
X126057680Y-113976190D02*
X126010061Y-114071428D01*
X126010061Y-114071428D02*
X125962442Y-114119047D01*
X125962442Y-114119047D02*
X125819585Y-114214285D01*
X125819585Y-114214285D02*
X125629109Y-114261904D01*
X125629109Y-114261904D02*
X125248157Y-114261904D01*
X125248157Y-114261904D02*
X125152919Y-114214285D01*
X125152919Y-114214285D02*
X125105300Y-114166666D01*
X125105300Y-114166666D02*
X125057680Y-114071428D01*
X125057680Y-114071428D02*
X125057680Y-113880952D01*
X125057680Y-113880952D02*
X125105300Y-113785714D01*
X125105300Y-113785714D02*
X125152919Y-113738095D01*
X125152919Y-113738095D02*
X125248157Y-113690476D01*
X125248157Y-113690476D02*
X125486252Y-113690476D01*
X125486252Y-113690476D02*
X125581490Y-113738095D01*
X125581490Y-113738095D02*
X125629109Y-113785714D01*
X125629109Y-113785714D02*
X125676728Y-113880952D01*
X125676728Y-113880952D02*
X125676728Y-114071428D01*
X125676728Y-114071428D02*
X125629109Y-114166666D01*
X125629109Y-114166666D02*
X125581490Y-114214285D01*
X125581490Y-114214285D02*
X125486252Y-114261904D01*
X105416666Y-95859580D02*
X105464285Y-95907200D01*
X105464285Y-95907200D02*
X105607142Y-95954819D01*
X105607142Y-95954819D02*
X105702380Y-95954819D01*
X105702380Y-95954819D02*
X105845237Y-95907200D01*
X105845237Y-95907200D02*
X105940475Y-95811961D01*
X105940475Y-95811961D02*
X105988094Y-95716723D01*
X105988094Y-95716723D02*
X106035713Y-95526247D01*
X106035713Y-95526247D02*
X106035713Y-95383390D01*
X106035713Y-95383390D02*
X105988094Y-95192914D01*
X105988094Y-95192914D02*
X105940475Y-95097676D01*
X105940475Y-95097676D02*
X105845237Y-95002438D01*
X105845237Y-95002438D02*
X105702380Y-94954819D01*
X105702380Y-94954819D02*
X105607142Y-94954819D01*
X105607142Y-94954819D02*
X105464285Y-95002438D01*
X105464285Y-95002438D02*
X105416666Y-95050057D01*
X104511904Y-94954819D02*
X104988094Y-94954819D01*
X104988094Y-94954819D02*
X105035713Y-95431009D01*
X105035713Y-95431009D02*
X104988094Y-95383390D01*
X104988094Y-95383390D02*
X104892856Y-95335771D01*
X104892856Y-95335771D02*
X104654761Y-95335771D01*
X104654761Y-95335771D02*
X104559523Y-95383390D01*
X104559523Y-95383390D02*
X104511904Y-95431009D01*
X104511904Y-95431009D02*
X104464285Y-95526247D01*
X104464285Y-95526247D02*
X104464285Y-95764342D01*
X104464285Y-95764342D02*
X104511904Y-95859580D01*
X104511904Y-95859580D02*
X104559523Y-95907200D01*
X104559523Y-95907200D02*
X104654761Y-95954819D01*
X104654761Y-95954819D02*
X104892856Y-95954819D01*
X104892856Y-95954819D02*
X104988094Y-95907200D01*
X104988094Y-95907200D02*
X105035713Y-95859580D01*
X141845238Y-120300057D02*
X141940476Y-120252438D01*
X141940476Y-120252438D02*
X142035714Y-120157200D01*
X142035714Y-120157200D02*
X142178571Y-120014342D01*
X142178571Y-120014342D02*
X142273809Y-119966723D01*
X142273809Y-119966723D02*
X142369047Y-119966723D01*
X142321428Y-120204819D02*
X142416666Y-120157200D01*
X142416666Y-120157200D02*
X142511904Y-120061961D01*
X142511904Y-120061961D02*
X142559523Y-119871485D01*
X142559523Y-119871485D02*
X142559523Y-119538152D01*
X142559523Y-119538152D02*
X142511904Y-119347676D01*
X142511904Y-119347676D02*
X142416666Y-119252438D01*
X142416666Y-119252438D02*
X142321428Y-119204819D01*
X142321428Y-119204819D02*
X142130952Y-119204819D01*
X142130952Y-119204819D02*
X142035714Y-119252438D01*
X142035714Y-119252438D02*
X141940476Y-119347676D01*
X141940476Y-119347676D02*
X141892857Y-119538152D01*
X141892857Y-119538152D02*
X141892857Y-119871485D01*
X141892857Y-119871485D02*
X141940476Y-120061961D01*
X141940476Y-120061961D02*
X142035714Y-120157200D01*
X142035714Y-120157200D02*
X142130952Y-120204819D01*
X142130952Y-120204819D02*
X142321428Y-120204819D01*
X141035714Y-119538152D02*
X141035714Y-120204819D01*
X141273809Y-119157200D02*
X141511904Y-119871485D01*
X141511904Y-119871485D02*
X140892857Y-119871485D01*
X126674942Y-136095238D02*
X126722561Y-136190476D01*
X126722561Y-136190476D02*
X126817800Y-136285714D01*
X126817800Y-136285714D02*
X126960657Y-136428571D01*
X126960657Y-136428571D02*
X127008276Y-136523809D01*
X127008276Y-136523809D02*
X127008276Y-136619047D01*
X126770180Y-136571428D02*
X126817800Y-136666666D01*
X126817800Y-136666666D02*
X126913038Y-136761904D01*
X126913038Y-136761904D02*
X127103514Y-136809523D01*
X127103514Y-136809523D02*
X127436847Y-136809523D01*
X127436847Y-136809523D02*
X127627323Y-136761904D01*
X127627323Y-136761904D02*
X127722561Y-136666666D01*
X127722561Y-136666666D02*
X127770180Y-136571428D01*
X127770180Y-136571428D02*
X127770180Y-136380952D01*
X127770180Y-136380952D02*
X127722561Y-136285714D01*
X127722561Y-136285714D02*
X127627323Y-136190476D01*
X127627323Y-136190476D02*
X127436847Y-136142857D01*
X127436847Y-136142857D02*
X127103514Y-136142857D01*
X127103514Y-136142857D02*
X126913038Y-136190476D01*
X126913038Y-136190476D02*
X126817800Y-136285714D01*
X126817800Y-136285714D02*
X126770180Y-136380952D01*
X126770180Y-136380952D02*
X126770180Y-136571428D01*
X127770180Y-135809523D02*
X127770180Y-135190476D01*
X127770180Y-135190476D02*
X127389228Y-135523809D01*
X127389228Y-135523809D02*
X127389228Y-135380952D01*
X127389228Y-135380952D02*
X127341609Y-135285714D01*
X127341609Y-135285714D02*
X127293990Y-135238095D01*
X127293990Y-135238095D02*
X127198752Y-135190476D01*
X127198752Y-135190476D02*
X126960657Y-135190476D01*
X126960657Y-135190476D02*
X126865419Y-135238095D01*
X126865419Y-135238095D02*
X126817800Y-135285714D01*
X126817800Y-135285714D02*
X126770180Y-135380952D01*
X126770180Y-135380952D02*
X126770180Y-135666666D01*
X126770180Y-135666666D02*
X126817800Y-135761904D01*
X126817800Y-135761904D02*
X126865419Y-135809523D01*
X122859580Y-146107142D02*
X122907200Y-146059523D01*
X122907200Y-146059523D02*
X122954819Y-145916666D01*
X122954819Y-145916666D02*
X122954819Y-145821428D01*
X122954819Y-145821428D02*
X122907200Y-145678571D01*
X122907200Y-145678571D02*
X122811961Y-145583333D01*
X122811961Y-145583333D02*
X122716723Y-145535714D01*
X122716723Y-145535714D02*
X122526247Y-145488095D01*
X122526247Y-145488095D02*
X122383390Y-145488095D01*
X122383390Y-145488095D02*
X122192914Y-145535714D01*
X122192914Y-145535714D02*
X122097676Y-145583333D01*
X122097676Y-145583333D02*
X122002438Y-145678571D01*
X122002438Y-145678571D02*
X121954819Y-145821428D01*
X121954819Y-145821428D02*
X121954819Y-145916666D01*
X121954819Y-145916666D02*
X122002438Y-146059523D01*
X122002438Y-146059523D02*
X122050057Y-146107142D01*
X121954819Y-146440476D02*
X121954819Y-147059523D01*
X121954819Y-147059523D02*
X122335771Y-146726190D01*
X122335771Y-146726190D02*
X122335771Y-146869047D01*
X122335771Y-146869047D02*
X122383390Y-146964285D01*
X122383390Y-146964285D02*
X122431009Y-147011904D01*
X122431009Y-147011904D02*
X122526247Y-147059523D01*
X122526247Y-147059523D02*
X122764342Y-147059523D01*
X122764342Y-147059523D02*
X122859580Y-147011904D01*
X122859580Y-147011904D02*
X122907200Y-146964285D01*
X122907200Y-146964285D02*
X122954819Y-146869047D01*
X122954819Y-146869047D02*
X122954819Y-146583333D01*
X122954819Y-146583333D02*
X122907200Y-146488095D01*
X122907200Y-146488095D02*
X122859580Y-146440476D01*
X121954819Y-147916666D02*
X121954819Y-147726190D01*
X121954819Y-147726190D02*
X122002438Y-147630952D01*
X122002438Y-147630952D02*
X122050057Y-147583333D01*
X122050057Y-147583333D02*
X122192914Y-147488095D01*
X122192914Y-147488095D02*
X122383390Y-147440476D01*
X122383390Y-147440476D02*
X122764342Y-147440476D01*
X122764342Y-147440476D02*
X122859580Y-147488095D01*
X122859580Y-147488095D02*
X122907200Y-147535714D01*
X122907200Y-147535714D02*
X122954819Y-147630952D01*
X122954819Y-147630952D02*
X122954819Y-147821428D01*
X122954819Y-147821428D02*
X122907200Y-147916666D01*
X122907200Y-147916666D02*
X122859580Y-147964285D01*
X122859580Y-147964285D02*
X122764342Y-148011904D01*
X122764342Y-148011904D02*
X122526247Y-148011904D01*
X122526247Y-148011904D02*
X122431009Y-147964285D01*
X122431009Y-147964285D02*
X122383390Y-147916666D01*
X122383390Y-147916666D02*
X122335771Y-147821428D01*
X122335771Y-147821428D02*
X122335771Y-147630952D01*
X122335771Y-147630952D02*
X122383390Y-147535714D01*
X122383390Y-147535714D02*
X122431009Y-147488095D01*
X122431009Y-147488095D02*
X122526247Y-147440476D01*
X134224942Y-114595238D02*
X134272561Y-114690476D01*
X134272561Y-114690476D02*
X134367800Y-114785714D01*
X134367800Y-114785714D02*
X134510657Y-114928571D01*
X134510657Y-114928571D02*
X134558276Y-115023809D01*
X134558276Y-115023809D02*
X134558276Y-115119047D01*
X134320180Y-115071428D02*
X134367800Y-115166666D01*
X134367800Y-115166666D02*
X134463038Y-115261904D01*
X134463038Y-115261904D02*
X134653514Y-115309523D01*
X134653514Y-115309523D02*
X134986847Y-115309523D01*
X134986847Y-115309523D02*
X135177323Y-115261904D01*
X135177323Y-115261904D02*
X135272561Y-115166666D01*
X135272561Y-115166666D02*
X135320180Y-115071428D01*
X135320180Y-115071428D02*
X135320180Y-114880952D01*
X135320180Y-114880952D02*
X135272561Y-114785714D01*
X135272561Y-114785714D02*
X135177323Y-114690476D01*
X135177323Y-114690476D02*
X134986847Y-114642857D01*
X134986847Y-114642857D02*
X134653514Y-114642857D01*
X134653514Y-114642857D02*
X134463038Y-114690476D01*
X134463038Y-114690476D02*
X134367800Y-114785714D01*
X134367800Y-114785714D02*
X134320180Y-114880952D01*
X134320180Y-114880952D02*
X134320180Y-115071428D01*
X135320180Y-114309523D02*
X135320180Y-113642857D01*
X135320180Y-113642857D02*
X134320180Y-114071428D01*
X125642857Y-144204819D02*
X125976190Y-143728628D01*
X126214285Y-144204819D02*
X126214285Y-143204819D01*
X126214285Y-143204819D02*
X125833333Y-143204819D01*
X125833333Y-143204819D02*
X125738095Y-143252438D01*
X125738095Y-143252438D02*
X125690476Y-143300057D01*
X125690476Y-143300057D02*
X125642857Y-143395295D01*
X125642857Y-143395295D02*
X125642857Y-143538152D01*
X125642857Y-143538152D02*
X125690476Y-143633390D01*
X125690476Y-143633390D02*
X125738095Y-143681009D01*
X125738095Y-143681009D02*
X125833333Y-143728628D01*
X125833333Y-143728628D02*
X126214285Y-143728628D01*
X125261904Y-143300057D02*
X125214285Y-143252438D01*
X125214285Y-143252438D02*
X125119047Y-143204819D01*
X125119047Y-143204819D02*
X124880952Y-143204819D01*
X124880952Y-143204819D02*
X124785714Y-143252438D01*
X124785714Y-143252438D02*
X124738095Y-143300057D01*
X124738095Y-143300057D02*
X124690476Y-143395295D01*
X124690476Y-143395295D02*
X124690476Y-143490533D01*
X124690476Y-143490533D02*
X124738095Y-143633390D01*
X124738095Y-143633390D02*
X125309523Y-144204819D01*
X125309523Y-144204819D02*
X124690476Y-144204819D01*
X124309523Y-143300057D02*
X124261904Y-143252438D01*
X124261904Y-143252438D02*
X124166666Y-143204819D01*
X124166666Y-143204819D02*
X123928571Y-143204819D01*
X123928571Y-143204819D02*
X123833333Y-143252438D01*
X123833333Y-143252438D02*
X123785714Y-143300057D01*
X123785714Y-143300057D02*
X123738095Y-143395295D01*
X123738095Y-143395295D02*
X123738095Y-143490533D01*
X123738095Y-143490533D02*
X123785714Y-143633390D01*
X123785714Y-143633390D02*
X124357142Y-144204819D01*
X124357142Y-144204819D02*
X123738095Y-144204819D01*
X169666666Y-100429580D02*
X169714285Y-100477200D01*
X169714285Y-100477200D02*
X169857142Y-100524819D01*
X169857142Y-100524819D02*
X169952380Y-100524819D01*
X169952380Y-100524819D02*
X170095237Y-100477200D01*
X170095237Y-100477200D02*
X170190475Y-100381961D01*
X170190475Y-100381961D02*
X170238094Y-100286723D01*
X170238094Y-100286723D02*
X170285713Y-100096247D01*
X170285713Y-100096247D02*
X170285713Y-99953390D01*
X170285713Y-99953390D02*
X170238094Y-99762914D01*
X170238094Y-99762914D02*
X170190475Y-99667676D01*
X170190475Y-99667676D02*
X170095237Y-99572438D01*
X170095237Y-99572438D02*
X169952380Y-99524819D01*
X169952380Y-99524819D02*
X169857142Y-99524819D01*
X169857142Y-99524819D02*
X169714285Y-99572438D01*
X169714285Y-99572438D02*
X169666666Y-99620057D01*
X169190475Y-100524819D02*
X168999999Y-100524819D01*
X168999999Y-100524819D02*
X168904761Y-100477200D01*
X168904761Y-100477200D02*
X168857142Y-100429580D01*
X168857142Y-100429580D02*
X168761904Y-100286723D01*
X168761904Y-100286723D02*
X168714285Y-100096247D01*
X168714285Y-100096247D02*
X168714285Y-99715295D01*
X168714285Y-99715295D02*
X168761904Y-99620057D01*
X168761904Y-99620057D02*
X168809523Y-99572438D01*
X168809523Y-99572438D02*
X168904761Y-99524819D01*
X168904761Y-99524819D02*
X169095237Y-99524819D01*
X169095237Y-99524819D02*
X169190475Y-99572438D01*
X169190475Y-99572438D02*
X169238094Y-99620057D01*
X169238094Y-99620057D02*
X169285713Y-99715295D01*
X169285713Y-99715295D02*
X169285713Y-99953390D01*
X169285713Y-99953390D02*
X169238094Y-100048628D01*
X169238094Y-100048628D02*
X169190475Y-100096247D01*
X169190475Y-100096247D02*
X169095237Y-100143866D01*
X169095237Y-100143866D02*
X168904761Y-100143866D01*
X168904761Y-100143866D02*
X168809523Y-100096247D01*
X168809523Y-100096247D02*
X168761904Y-100048628D01*
X168761904Y-100048628D02*
X168714285Y-99953390D01*
X125792319Y-117857142D02*
X125316128Y-117523809D01*
X125792319Y-117285714D02*
X124792319Y-117285714D01*
X124792319Y-117285714D02*
X124792319Y-117666666D01*
X124792319Y-117666666D02*
X124839938Y-117761904D01*
X124839938Y-117761904D02*
X124887557Y-117809523D01*
X124887557Y-117809523D02*
X124982795Y-117857142D01*
X124982795Y-117857142D02*
X125125652Y-117857142D01*
X125125652Y-117857142D02*
X125220890Y-117809523D01*
X125220890Y-117809523D02*
X125268509Y-117761904D01*
X125268509Y-117761904D02*
X125316128Y-117666666D01*
X125316128Y-117666666D02*
X125316128Y-117285714D01*
X125792319Y-118809523D02*
X125792319Y-118238095D01*
X125792319Y-118523809D02*
X124792319Y-118523809D01*
X124792319Y-118523809D02*
X124935176Y-118428571D01*
X124935176Y-118428571D02*
X125030414Y-118333333D01*
X125030414Y-118333333D02*
X125078033Y-118238095D01*
X125792319Y-119285714D02*
X125792319Y-119476190D01*
X125792319Y-119476190D02*
X125744700Y-119571428D01*
X125744700Y-119571428D02*
X125697080Y-119619047D01*
X125697080Y-119619047D02*
X125554223Y-119714285D01*
X125554223Y-119714285D02*
X125363747Y-119761904D01*
X125363747Y-119761904D02*
X124982795Y-119761904D01*
X124982795Y-119761904D02*
X124887557Y-119714285D01*
X124887557Y-119714285D02*
X124839938Y-119666666D01*
X124839938Y-119666666D02*
X124792319Y-119571428D01*
X124792319Y-119571428D02*
X124792319Y-119380952D01*
X124792319Y-119380952D02*
X124839938Y-119285714D01*
X124839938Y-119285714D02*
X124887557Y-119238095D01*
X124887557Y-119238095D02*
X124982795Y-119190476D01*
X124982795Y-119190476D02*
X125220890Y-119190476D01*
X125220890Y-119190476D02*
X125316128Y-119238095D01*
X125316128Y-119238095D02*
X125363747Y-119285714D01*
X125363747Y-119285714D02*
X125411366Y-119380952D01*
X125411366Y-119380952D02*
X125411366Y-119571428D01*
X125411366Y-119571428D02*
X125363747Y-119666666D01*
X125363747Y-119666666D02*
X125316128Y-119714285D01*
X125316128Y-119714285D02*
X125220890Y-119761904D01*
X88595238Y-87300057D02*
X88690476Y-87252438D01*
X88690476Y-87252438D02*
X88785714Y-87157200D01*
X88785714Y-87157200D02*
X88928571Y-87014342D01*
X88928571Y-87014342D02*
X89023809Y-86966723D01*
X89023809Y-86966723D02*
X89119047Y-86966723D01*
X89071428Y-87204819D02*
X89166666Y-87157200D01*
X89166666Y-87157200D02*
X89261904Y-87061961D01*
X89261904Y-87061961D02*
X89309523Y-86871485D01*
X89309523Y-86871485D02*
X89309523Y-86538152D01*
X89309523Y-86538152D02*
X89261904Y-86347676D01*
X89261904Y-86347676D02*
X89166666Y-86252438D01*
X89166666Y-86252438D02*
X89071428Y-86204819D01*
X89071428Y-86204819D02*
X88880952Y-86204819D01*
X88880952Y-86204819D02*
X88785714Y-86252438D01*
X88785714Y-86252438D02*
X88690476Y-86347676D01*
X88690476Y-86347676D02*
X88642857Y-86538152D01*
X88642857Y-86538152D02*
X88642857Y-86871485D01*
X88642857Y-86871485D02*
X88690476Y-87061961D01*
X88690476Y-87061961D02*
X88785714Y-87157200D01*
X88785714Y-87157200D02*
X88880952Y-87204819D01*
X88880952Y-87204819D02*
X89071428Y-87204819D01*
X87690476Y-87204819D02*
X88261904Y-87204819D01*
X87976190Y-87204819D02*
X87976190Y-86204819D01*
X87976190Y-86204819D02*
X88071428Y-86347676D01*
X88071428Y-86347676D02*
X88166666Y-86442914D01*
X88166666Y-86442914D02*
X88261904Y-86490533D01*
X138392857Y-120204819D02*
X138726190Y-119728628D01*
X138964285Y-120204819D02*
X138964285Y-119204819D01*
X138964285Y-119204819D02*
X138583333Y-119204819D01*
X138583333Y-119204819D02*
X138488095Y-119252438D01*
X138488095Y-119252438D02*
X138440476Y-119300057D01*
X138440476Y-119300057D02*
X138392857Y-119395295D01*
X138392857Y-119395295D02*
X138392857Y-119538152D01*
X138392857Y-119538152D02*
X138440476Y-119633390D01*
X138440476Y-119633390D02*
X138488095Y-119681009D01*
X138488095Y-119681009D02*
X138583333Y-119728628D01*
X138583333Y-119728628D02*
X138964285Y-119728628D01*
X137440476Y-120204819D02*
X138011904Y-120204819D01*
X137726190Y-120204819D02*
X137726190Y-119204819D01*
X137726190Y-119204819D02*
X137821428Y-119347676D01*
X137821428Y-119347676D02*
X137916666Y-119442914D01*
X137916666Y-119442914D02*
X138011904Y-119490533D01*
X137107142Y-119204819D02*
X136440476Y-119204819D01*
X136440476Y-119204819D02*
X136869047Y-120204819D01*
X110907200Y-140666667D02*
X110954819Y-140809524D01*
X110954819Y-140809524D02*
X110954819Y-141047619D01*
X110954819Y-141047619D02*
X110907200Y-141142857D01*
X110907200Y-141142857D02*
X110859580Y-141190476D01*
X110859580Y-141190476D02*
X110764342Y-141238095D01*
X110764342Y-141238095D02*
X110669104Y-141238095D01*
X110669104Y-141238095D02*
X110573866Y-141190476D01*
X110573866Y-141190476D02*
X110526247Y-141142857D01*
X110526247Y-141142857D02*
X110478628Y-141047619D01*
X110478628Y-141047619D02*
X110431009Y-140857143D01*
X110431009Y-140857143D02*
X110383390Y-140761905D01*
X110383390Y-140761905D02*
X110335771Y-140714286D01*
X110335771Y-140714286D02*
X110240533Y-140666667D01*
X110240533Y-140666667D02*
X110145295Y-140666667D01*
X110145295Y-140666667D02*
X110050057Y-140714286D01*
X110050057Y-140714286D02*
X110002438Y-140761905D01*
X110002438Y-140761905D02*
X109954819Y-140857143D01*
X109954819Y-140857143D02*
X109954819Y-141095238D01*
X109954819Y-141095238D02*
X110002438Y-141238095D01*
X109954819Y-141571429D02*
X110954819Y-141809524D01*
X110954819Y-141809524D02*
X110240533Y-142000000D01*
X110240533Y-142000000D02*
X110954819Y-142190476D01*
X110954819Y-142190476D02*
X109954819Y-142428572D01*
X110050057Y-142761905D02*
X110002438Y-142809524D01*
X110002438Y-142809524D02*
X109954819Y-142904762D01*
X109954819Y-142904762D02*
X109954819Y-143142857D01*
X109954819Y-143142857D02*
X110002438Y-143238095D01*
X110002438Y-143238095D02*
X110050057Y-143285714D01*
X110050057Y-143285714D02*
X110145295Y-143333333D01*
X110145295Y-143333333D02*
X110240533Y-143333333D01*
X110240533Y-143333333D02*
X110383390Y-143285714D01*
X110383390Y-143285714D02*
X110954819Y-142714286D01*
X110954819Y-142714286D02*
X110954819Y-143333333D01*
X149035713Y-120704819D02*
X149035713Y-119704819D01*
X149035713Y-119704819D02*
X148702380Y-120419104D01*
X148702380Y-120419104D02*
X148369047Y-119704819D01*
X148369047Y-119704819D02*
X148369047Y-120704819D01*
X147369047Y-120704819D02*
X147940475Y-120704819D01*
X147654761Y-120704819D02*
X147654761Y-119704819D01*
X147654761Y-119704819D02*
X147749999Y-119847676D01*
X147749999Y-119847676D02*
X147845237Y-119942914D01*
X147845237Y-119942914D02*
X147940475Y-119990533D01*
X146607142Y-120181009D02*
X146464285Y-120228628D01*
X146464285Y-120228628D02*
X146416666Y-120276247D01*
X146416666Y-120276247D02*
X146369047Y-120371485D01*
X146369047Y-120371485D02*
X146369047Y-120514342D01*
X146369047Y-120514342D02*
X146416666Y-120609580D01*
X146416666Y-120609580D02*
X146464285Y-120657200D01*
X146464285Y-120657200D02*
X146559523Y-120704819D01*
X146559523Y-120704819D02*
X146940475Y-120704819D01*
X146940475Y-120704819D02*
X146940475Y-119704819D01*
X146940475Y-119704819D02*
X146607142Y-119704819D01*
X146607142Y-119704819D02*
X146511904Y-119752438D01*
X146511904Y-119752438D02*
X146464285Y-119800057D01*
X146464285Y-119800057D02*
X146416666Y-119895295D01*
X146416666Y-119895295D02*
X146416666Y-119990533D01*
X146416666Y-119990533D02*
X146464285Y-120085771D01*
X146464285Y-120085771D02*
X146511904Y-120133390D01*
X146511904Y-120133390D02*
X146607142Y-120181009D01*
X146607142Y-120181009D02*
X146940475Y-120181009D01*
X145416666Y-120704819D02*
X145988094Y-120704819D01*
X145702380Y-120704819D02*
X145702380Y-119704819D01*
X145702380Y-119704819D02*
X145797618Y-119847676D01*
X145797618Y-119847676D02*
X145892856Y-119942914D01*
X145892856Y-119942914D02*
X145988094Y-119990533D01*
X105416666Y-91359580D02*
X105464285Y-91407200D01*
X105464285Y-91407200D02*
X105607142Y-91454819D01*
X105607142Y-91454819D02*
X105702380Y-91454819D01*
X105702380Y-91454819D02*
X105845237Y-91407200D01*
X105845237Y-91407200D02*
X105940475Y-91311961D01*
X105940475Y-91311961D02*
X105988094Y-91216723D01*
X105988094Y-91216723D02*
X106035713Y-91026247D01*
X106035713Y-91026247D02*
X106035713Y-90883390D01*
X106035713Y-90883390D02*
X105988094Y-90692914D01*
X105988094Y-90692914D02*
X105940475Y-90597676D01*
X105940475Y-90597676D02*
X105845237Y-90502438D01*
X105845237Y-90502438D02*
X105702380Y-90454819D01*
X105702380Y-90454819D02*
X105607142Y-90454819D01*
X105607142Y-90454819D02*
X105464285Y-90502438D01*
X105464285Y-90502438D02*
X105416666Y-90550057D01*
X105083332Y-90454819D02*
X104464285Y-90454819D01*
X104464285Y-90454819D02*
X104797618Y-90835771D01*
X104797618Y-90835771D02*
X104654761Y-90835771D01*
X104654761Y-90835771D02*
X104559523Y-90883390D01*
X104559523Y-90883390D02*
X104511904Y-90931009D01*
X104511904Y-90931009D02*
X104464285Y-91026247D01*
X104464285Y-91026247D02*
X104464285Y-91264342D01*
X104464285Y-91264342D02*
X104511904Y-91359580D01*
X104511904Y-91359580D02*
X104559523Y-91407200D01*
X104559523Y-91407200D02*
X104654761Y-91454819D01*
X104654761Y-91454819D02*
X104940475Y-91454819D01*
X104940475Y-91454819D02*
X105035713Y-91407200D01*
X105035713Y-91407200D02*
X105083332Y-91359580D01*
X126859580Y-93607142D02*
X126907200Y-93559523D01*
X126907200Y-93559523D02*
X126954819Y-93416666D01*
X126954819Y-93416666D02*
X126954819Y-93321428D01*
X126954819Y-93321428D02*
X126907200Y-93178571D01*
X126907200Y-93178571D02*
X126811961Y-93083333D01*
X126811961Y-93083333D02*
X126716723Y-93035714D01*
X126716723Y-93035714D02*
X126526247Y-92988095D01*
X126526247Y-92988095D02*
X126383390Y-92988095D01*
X126383390Y-92988095D02*
X126192914Y-93035714D01*
X126192914Y-93035714D02*
X126097676Y-93083333D01*
X126097676Y-93083333D02*
X126002438Y-93178571D01*
X126002438Y-93178571D02*
X125954819Y-93321428D01*
X125954819Y-93321428D02*
X125954819Y-93416666D01*
X125954819Y-93416666D02*
X126002438Y-93559523D01*
X126002438Y-93559523D02*
X126050057Y-93607142D01*
X126954819Y-94559523D02*
X126954819Y-93988095D01*
X126954819Y-94273809D02*
X125954819Y-94273809D01*
X125954819Y-94273809D02*
X126097676Y-94178571D01*
X126097676Y-94178571D02*
X126192914Y-94083333D01*
X126192914Y-94083333D02*
X126240533Y-93988095D01*
X125954819Y-95416666D02*
X125954819Y-95226190D01*
X125954819Y-95226190D02*
X126002438Y-95130952D01*
X126002438Y-95130952D02*
X126050057Y-95083333D01*
X126050057Y-95083333D02*
X126192914Y-94988095D01*
X126192914Y-94988095D02*
X126383390Y-94940476D01*
X126383390Y-94940476D02*
X126764342Y-94940476D01*
X126764342Y-94940476D02*
X126859580Y-94988095D01*
X126859580Y-94988095D02*
X126907200Y-95035714D01*
X126907200Y-95035714D02*
X126954819Y-95130952D01*
X126954819Y-95130952D02*
X126954819Y-95321428D01*
X126954819Y-95321428D02*
X126907200Y-95416666D01*
X126907200Y-95416666D02*
X126859580Y-95464285D01*
X126859580Y-95464285D02*
X126764342Y-95511904D01*
X126764342Y-95511904D02*
X126526247Y-95511904D01*
X126526247Y-95511904D02*
X126431009Y-95464285D01*
X126431009Y-95464285D02*
X126383390Y-95416666D01*
X126383390Y-95416666D02*
X126335771Y-95321428D01*
X126335771Y-95321428D02*
X126335771Y-95130952D01*
X126335771Y-95130952D02*
X126383390Y-95035714D01*
X126383390Y-95035714D02*
X126431009Y-94988095D01*
X126431009Y-94988095D02*
X126526247Y-94940476D01*
X118704819Y-106761905D02*
X117704819Y-106761905D01*
X117704819Y-106761905D02*
X117704819Y-107000000D01*
X117704819Y-107000000D02*
X117752438Y-107142857D01*
X117752438Y-107142857D02*
X117847676Y-107238095D01*
X117847676Y-107238095D02*
X117942914Y-107285714D01*
X117942914Y-107285714D02*
X118133390Y-107333333D01*
X118133390Y-107333333D02*
X118276247Y-107333333D01*
X118276247Y-107333333D02*
X118466723Y-107285714D01*
X118466723Y-107285714D02*
X118561961Y-107238095D01*
X118561961Y-107238095D02*
X118657200Y-107142857D01*
X118657200Y-107142857D02*
X118704819Y-107000000D01*
X118704819Y-107000000D02*
X118704819Y-106761905D01*
X117704819Y-108238095D02*
X117704819Y-107761905D01*
X117704819Y-107761905D02*
X118181009Y-107714286D01*
X118181009Y-107714286D02*
X118133390Y-107761905D01*
X118133390Y-107761905D02*
X118085771Y-107857143D01*
X118085771Y-107857143D02*
X118085771Y-108095238D01*
X118085771Y-108095238D02*
X118133390Y-108190476D01*
X118133390Y-108190476D02*
X118181009Y-108238095D01*
X118181009Y-108238095D02*
X118276247Y-108285714D01*
X118276247Y-108285714D02*
X118514342Y-108285714D01*
X118514342Y-108285714D02*
X118609580Y-108238095D01*
X118609580Y-108238095D02*
X118657200Y-108190476D01*
X118657200Y-108190476D02*
X118704819Y-108095238D01*
X118704819Y-108095238D02*
X118704819Y-107857143D01*
X118704819Y-107857143D02*
X118657200Y-107761905D01*
X118657200Y-107761905D02*
X118609580Y-107714286D01*
X89666666Y-91354819D02*
X89999999Y-90878628D01*
X90238094Y-91354819D02*
X90238094Y-90354819D01*
X90238094Y-90354819D02*
X89857142Y-90354819D01*
X89857142Y-90354819D02*
X89761904Y-90402438D01*
X89761904Y-90402438D02*
X89714285Y-90450057D01*
X89714285Y-90450057D02*
X89666666Y-90545295D01*
X89666666Y-90545295D02*
X89666666Y-90688152D01*
X89666666Y-90688152D02*
X89714285Y-90783390D01*
X89714285Y-90783390D02*
X89761904Y-90831009D01*
X89761904Y-90831009D02*
X89857142Y-90878628D01*
X89857142Y-90878628D02*
X90238094Y-90878628D01*
X88809523Y-90354819D02*
X88999999Y-90354819D01*
X88999999Y-90354819D02*
X89095237Y-90402438D01*
X89095237Y-90402438D02*
X89142856Y-90450057D01*
X89142856Y-90450057D02*
X89238094Y-90592914D01*
X89238094Y-90592914D02*
X89285713Y-90783390D01*
X89285713Y-90783390D02*
X89285713Y-91164342D01*
X89285713Y-91164342D02*
X89238094Y-91259580D01*
X89238094Y-91259580D02*
X89190475Y-91307200D01*
X89190475Y-91307200D02*
X89095237Y-91354819D01*
X89095237Y-91354819D02*
X88904761Y-91354819D01*
X88904761Y-91354819D02*
X88809523Y-91307200D01*
X88809523Y-91307200D02*
X88761904Y-91259580D01*
X88761904Y-91259580D02*
X88714285Y-91164342D01*
X88714285Y-91164342D02*
X88714285Y-90926247D01*
X88714285Y-90926247D02*
X88761904Y-90831009D01*
X88761904Y-90831009D02*
X88809523Y-90783390D01*
X88809523Y-90783390D02*
X88904761Y-90735771D01*
X88904761Y-90735771D02*
X89095237Y-90735771D01*
X89095237Y-90735771D02*
X89190475Y-90783390D01*
X89190475Y-90783390D02*
X89238094Y-90831009D01*
X89238094Y-90831009D02*
X89285713Y-90926247D01*
X97011904Y-92404819D02*
X97011904Y-93214342D01*
X97011904Y-93214342D02*
X96964285Y-93309580D01*
X96964285Y-93309580D02*
X96916666Y-93357200D01*
X96916666Y-93357200D02*
X96821428Y-93404819D01*
X96821428Y-93404819D02*
X96630952Y-93404819D01*
X96630952Y-93404819D02*
X96535714Y-93357200D01*
X96535714Y-93357200D02*
X96488095Y-93309580D01*
X96488095Y-93309580D02*
X96440476Y-93214342D01*
X96440476Y-93214342D02*
X96440476Y-92404819D01*
X96059523Y-92404819D02*
X95440476Y-92404819D01*
X95440476Y-92404819D02*
X95773809Y-92785771D01*
X95773809Y-92785771D02*
X95630952Y-92785771D01*
X95630952Y-92785771D02*
X95535714Y-92833390D01*
X95535714Y-92833390D02*
X95488095Y-92881009D01*
X95488095Y-92881009D02*
X95440476Y-92976247D01*
X95440476Y-92976247D02*
X95440476Y-93214342D01*
X95440476Y-93214342D02*
X95488095Y-93309580D01*
X95488095Y-93309580D02*
X95535714Y-93357200D01*
X95535714Y-93357200D02*
X95630952Y-93404819D01*
X95630952Y-93404819D02*
X95916666Y-93404819D01*
X95916666Y-93404819D02*
X96011904Y-93357200D01*
X96011904Y-93357200D02*
X96059523Y-93309580D01*
X101907200Y-113666667D02*
X101954819Y-113809524D01*
X101954819Y-113809524D02*
X101954819Y-114047619D01*
X101954819Y-114047619D02*
X101907200Y-114142857D01*
X101907200Y-114142857D02*
X101859580Y-114190476D01*
X101859580Y-114190476D02*
X101764342Y-114238095D01*
X101764342Y-114238095D02*
X101669104Y-114238095D01*
X101669104Y-114238095D02*
X101573866Y-114190476D01*
X101573866Y-114190476D02*
X101526247Y-114142857D01*
X101526247Y-114142857D02*
X101478628Y-114047619D01*
X101478628Y-114047619D02*
X101431009Y-113857143D01*
X101431009Y-113857143D02*
X101383390Y-113761905D01*
X101383390Y-113761905D02*
X101335771Y-113714286D01*
X101335771Y-113714286D02*
X101240533Y-113666667D01*
X101240533Y-113666667D02*
X101145295Y-113666667D01*
X101145295Y-113666667D02*
X101050057Y-113714286D01*
X101050057Y-113714286D02*
X101002438Y-113761905D01*
X101002438Y-113761905D02*
X100954819Y-113857143D01*
X100954819Y-113857143D02*
X100954819Y-114095238D01*
X100954819Y-114095238D02*
X101002438Y-114238095D01*
X100954819Y-114571429D02*
X101954819Y-114809524D01*
X101954819Y-114809524D02*
X101240533Y-115000000D01*
X101240533Y-115000000D02*
X101954819Y-115190476D01*
X101954819Y-115190476D02*
X100954819Y-115428572D01*
X101954819Y-116333333D02*
X101954819Y-115761905D01*
X101954819Y-116047619D02*
X100954819Y-116047619D01*
X100954819Y-116047619D02*
X101097676Y-115952381D01*
X101097676Y-115952381D02*
X101192914Y-115857143D01*
X101192914Y-115857143D02*
X101240533Y-115761905D01*
X111954819Y-98083333D02*
X111478628Y-97750000D01*
X111954819Y-97511905D02*
X110954819Y-97511905D01*
X110954819Y-97511905D02*
X110954819Y-97892857D01*
X110954819Y-97892857D02*
X111002438Y-97988095D01*
X111002438Y-97988095D02*
X111050057Y-98035714D01*
X111050057Y-98035714D02*
X111145295Y-98083333D01*
X111145295Y-98083333D02*
X111288152Y-98083333D01*
X111288152Y-98083333D02*
X111383390Y-98035714D01*
X111383390Y-98035714D02*
X111431009Y-97988095D01*
X111431009Y-97988095D02*
X111478628Y-97892857D01*
X111478628Y-97892857D02*
X111478628Y-97511905D01*
X110954819Y-98416667D02*
X110954819Y-99035714D01*
X110954819Y-99035714D02*
X111335771Y-98702381D01*
X111335771Y-98702381D02*
X111335771Y-98845238D01*
X111335771Y-98845238D02*
X111383390Y-98940476D01*
X111383390Y-98940476D02*
X111431009Y-98988095D01*
X111431009Y-98988095D02*
X111526247Y-99035714D01*
X111526247Y-99035714D02*
X111764342Y-99035714D01*
X111764342Y-99035714D02*
X111859580Y-98988095D01*
X111859580Y-98988095D02*
X111907200Y-98940476D01*
X111907200Y-98940476D02*
X111954819Y-98845238D01*
X111954819Y-98845238D02*
X111954819Y-98559524D01*
X111954819Y-98559524D02*
X111907200Y-98464286D01*
X111907200Y-98464286D02*
X111859580Y-98416667D01*
X141845238Y-129500057D02*
X141940476Y-129452438D01*
X141940476Y-129452438D02*
X142035714Y-129357200D01*
X142035714Y-129357200D02*
X142178571Y-129214342D01*
X142178571Y-129214342D02*
X142273809Y-129166723D01*
X142273809Y-129166723D02*
X142369047Y-129166723D01*
X142321428Y-129404819D02*
X142416666Y-129357200D01*
X142416666Y-129357200D02*
X142511904Y-129261961D01*
X142511904Y-129261961D02*
X142559523Y-129071485D01*
X142559523Y-129071485D02*
X142559523Y-128738152D01*
X142559523Y-128738152D02*
X142511904Y-128547676D01*
X142511904Y-128547676D02*
X142416666Y-128452438D01*
X142416666Y-128452438D02*
X142321428Y-128404819D01*
X142321428Y-128404819D02*
X142130952Y-128404819D01*
X142130952Y-128404819D02*
X142035714Y-128452438D01*
X142035714Y-128452438D02*
X141940476Y-128547676D01*
X141940476Y-128547676D02*
X141892857Y-128738152D01*
X141892857Y-128738152D02*
X141892857Y-129071485D01*
X141892857Y-129071485D02*
X141940476Y-129261961D01*
X141940476Y-129261961D02*
X142035714Y-129357200D01*
X142035714Y-129357200D02*
X142130952Y-129404819D01*
X142130952Y-129404819D02*
X142321428Y-129404819D01*
X140988095Y-128404819D02*
X141464285Y-128404819D01*
X141464285Y-128404819D02*
X141511904Y-128881009D01*
X141511904Y-128881009D02*
X141464285Y-128833390D01*
X141464285Y-128833390D02*
X141369047Y-128785771D01*
X141369047Y-128785771D02*
X141130952Y-128785771D01*
X141130952Y-128785771D02*
X141035714Y-128833390D01*
X141035714Y-128833390D02*
X140988095Y-128881009D01*
X140988095Y-128881009D02*
X140940476Y-128976247D01*
X140940476Y-128976247D02*
X140940476Y-129214342D01*
X140940476Y-129214342D02*
X140988095Y-129309580D01*
X140988095Y-129309580D02*
X141035714Y-129357200D01*
X141035714Y-129357200D02*
X141130952Y-129404819D01*
X141130952Y-129404819D02*
X141369047Y-129404819D01*
X141369047Y-129404819D02*
X141464285Y-129357200D01*
X141464285Y-129357200D02*
X141511904Y-129309580D01*
X90642857Y-104859580D02*
X90690476Y-104907200D01*
X90690476Y-104907200D02*
X90833333Y-104954819D01*
X90833333Y-104954819D02*
X90928571Y-104954819D01*
X90928571Y-104954819D02*
X91071428Y-104907200D01*
X91071428Y-104907200D02*
X91166666Y-104811961D01*
X91166666Y-104811961D02*
X91214285Y-104716723D01*
X91214285Y-104716723D02*
X91261904Y-104526247D01*
X91261904Y-104526247D02*
X91261904Y-104383390D01*
X91261904Y-104383390D02*
X91214285Y-104192914D01*
X91214285Y-104192914D02*
X91166666Y-104097676D01*
X91166666Y-104097676D02*
X91071428Y-104002438D01*
X91071428Y-104002438D02*
X90928571Y-103954819D01*
X90928571Y-103954819D02*
X90833333Y-103954819D01*
X90833333Y-103954819D02*
X90690476Y-104002438D01*
X90690476Y-104002438D02*
X90642857Y-104050057D01*
X90261904Y-104050057D02*
X90214285Y-104002438D01*
X90214285Y-104002438D02*
X90119047Y-103954819D01*
X90119047Y-103954819D02*
X89880952Y-103954819D01*
X89880952Y-103954819D02*
X89785714Y-104002438D01*
X89785714Y-104002438D02*
X89738095Y-104050057D01*
X89738095Y-104050057D02*
X89690476Y-104145295D01*
X89690476Y-104145295D02*
X89690476Y-104240533D01*
X89690476Y-104240533D02*
X89738095Y-104383390D01*
X89738095Y-104383390D02*
X90309523Y-104954819D01*
X90309523Y-104954819D02*
X89690476Y-104954819D01*
X88833333Y-104288152D02*
X88833333Y-104954819D01*
X89071428Y-103907200D02*
X89309523Y-104621485D01*
X89309523Y-104621485D02*
X88690476Y-104621485D01*
X130761904Y-128904819D02*
X130761904Y-129714342D01*
X130761904Y-129714342D02*
X130714285Y-129809580D01*
X130714285Y-129809580D02*
X130666666Y-129857200D01*
X130666666Y-129857200D02*
X130571428Y-129904819D01*
X130571428Y-129904819D02*
X130380952Y-129904819D01*
X130380952Y-129904819D02*
X130285714Y-129857200D01*
X130285714Y-129857200D02*
X130238095Y-129809580D01*
X130238095Y-129809580D02*
X130190476Y-129714342D01*
X130190476Y-129714342D02*
X130190476Y-128904819D01*
X129238095Y-128904819D02*
X129714285Y-128904819D01*
X129714285Y-128904819D02*
X129761904Y-129381009D01*
X129761904Y-129381009D02*
X129714285Y-129333390D01*
X129714285Y-129333390D02*
X129619047Y-129285771D01*
X129619047Y-129285771D02*
X129380952Y-129285771D01*
X129380952Y-129285771D02*
X129285714Y-129333390D01*
X129285714Y-129333390D02*
X129238095Y-129381009D01*
X129238095Y-129381009D02*
X129190476Y-129476247D01*
X129190476Y-129476247D02*
X129190476Y-129714342D01*
X129190476Y-129714342D02*
X129238095Y-129809580D01*
X129238095Y-129809580D02*
X129285714Y-129857200D01*
X129285714Y-129857200D02*
X129380952Y-129904819D01*
X129380952Y-129904819D02*
X129619047Y-129904819D01*
X129619047Y-129904819D02*
X129714285Y-129857200D01*
X129714285Y-129857200D02*
X129761904Y-129809580D01*
X135609580Y-122857142D02*
X135657200Y-122809523D01*
X135657200Y-122809523D02*
X135704819Y-122666666D01*
X135704819Y-122666666D02*
X135704819Y-122571428D01*
X135704819Y-122571428D02*
X135657200Y-122428571D01*
X135657200Y-122428571D02*
X135561961Y-122333333D01*
X135561961Y-122333333D02*
X135466723Y-122285714D01*
X135466723Y-122285714D02*
X135276247Y-122238095D01*
X135276247Y-122238095D02*
X135133390Y-122238095D01*
X135133390Y-122238095D02*
X134942914Y-122285714D01*
X134942914Y-122285714D02*
X134847676Y-122333333D01*
X134847676Y-122333333D02*
X134752438Y-122428571D01*
X134752438Y-122428571D02*
X134704819Y-122571428D01*
X134704819Y-122571428D02*
X134704819Y-122666666D01*
X134704819Y-122666666D02*
X134752438Y-122809523D01*
X134752438Y-122809523D02*
X134800057Y-122857142D01*
X134800057Y-123238095D02*
X134752438Y-123285714D01*
X134752438Y-123285714D02*
X134704819Y-123380952D01*
X134704819Y-123380952D02*
X134704819Y-123619047D01*
X134704819Y-123619047D02*
X134752438Y-123714285D01*
X134752438Y-123714285D02*
X134800057Y-123761904D01*
X134800057Y-123761904D02*
X134895295Y-123809523D01*
X134895295Y-123809523D02*
X134990533Y-123809523D01*
X134990533Y-123809523D02*
X135133390Y-123761904D01*
X135133390Y-123761904D02*
X135704819Y-123190476D01*
X135704819Y-123190476D02*
X135704819Y-123809523D01*
X134704819Y-124666666D02*
X134704819Y-124476190D01*
X134704819Y-124476190D02*
X134752438Y-124380952D01*
X134752438Y-124380952D02*
X134800057Y-124333333D01*
X134800057Y-124333333D02*
X134942914Y-124238095D01*
X134942914Y-124238095D02*
X135133390Y-124190476D01*
X135133390Y-124190476D02*
X135514342Y-124190476D01*
X135514342Y-124190476D02*
X135609580Y-124238095D01*
X135609580Y-124238095D02*
X135657200Y-124285714D01*
X135657200Y-124285714D02*
X135704819Y-124380952D01*
X135704819Y-124380952D02*
X135704819Y-124571428D01*
X135704819Y-124571428D02*
X135657200Y-124666666D01*
X135657200Y-124666666D02*
X135609580Y-124714285D01*
X135609580Y-124714285D02*
X135514342Y-124761904D01*
X135514342Y-124761904D02*
X135276247Y-124761904D01*
X135276247Y-124761904D02*
X135181009Y-124714285D01*
X135181009Y-124714285D02*
X135133390Y-124666666D01*
X135133390Y-124666666D02*
X135085771Y-124571428D01*
X135085771Y-124571428D02*
X135085771Y-124380952D01*
X135085771Y-124380952D02*
X135133390Y-124285714D01*
X135133390Y-124285714D02*
X135181009Y-124238095D01*
X135181009Y-124238095D02*
X135276247Y-124190476D01*
X105416666Y-98109580D02*
X105464285Y-98157200D01*
X105464285Y-98157200D02*
X105607142Y-98204819D01*
X105607142Y-98204819D02*
X105702380Y-98204819D01*
X105702380Y-98204819D02*
X105845237Y-98157200D01*
X105845237Y-98157200D02*
X105940475Y-98061961D01*
X105940475Y-98061961D02*
X105988094Y-97966723D01*
X105988094Y-97966723D02*
X106035713Y-97776247D01*
X106035713Y-97776247D02*
X106035713Y-97633390D01*
X106035713Y-97633390D02*
X105988094Y-97442914D01*
X105988094Y-97442914D02*
X105940475Y-97347676D01*
X105940475Y-97347676D02*
X105845237Y-97252438D01*
X105845237Y-97252438D02*
X105702380Y-97204819D01*
X105702380Y-97204819D02*
X105607142Y-97204819D01*
X105607142Y-97204819D02*
X105464285Y-97252438D01*
X105464285Y-97252438D02*
X105416666Y-97300057D01*
X104559523Y-97538152D02*
X104559523Y-98204819D01*
X104797618Y-97157200D02*
X105035713Y-97871485D01*
X105035713Y-97871485D02*
X104416666Y-97871485D01*
X133392857Y-129859580D02*
X133440476Y-129907200D01*
X133440476Y-129907200D02*
X133583333Y-129954819D01*
X133583333Y-129954819D02*
X133678571Y-129954819D01*
X133678571Y-129954819D02*
X133821428Y-129907200D01*
X133821428Y-129907200D02*
X133916666Y-129811961D01*
X133916666Y-129811961D02*
X133964285Y-129716723D01*
X133964285Y-129716723D02*
X134011904Y-129526247D01*
X134011904Y-129526247D02*
X134011904Y-129383390D01*
X134011904Y-129383390D02*
X133964285Y-129192914D01*
X133964285Y-129192914D02*
X133916666Y-129097676D01*
X133916666Y-129097676D02*
X133821428Y-129002438D01*
X133821428Y-129002438D02*
X133678571Y-128954819D01*
X133678571Y-128954819D02*
X133583333Y-128954819D01*
X133583333Y-128954819D02*
X133440476Y-129002438D01*
X133440476Y-129002438D02*
X133392857Y-129050057D01*
X133011904Y-129050057D02*
X132964285Y-129002438D01*
X132964285Y-129002438D02*
X132869047Y-128954819D01*
X132869047Y-128954819D02*
X132630952Y-128954819D01*
X132630952Y-128954819D02*
X132535714Y-129002438D01*
X132535714Y-129002438D02*
X132488095Y-129050057D01*
X132488095Y-129050057D02*
X132440476Y-129145295D01*
X132440476Y-129145295D02*
X132440476Y-129240533D01*
X132440476Y-129240533D02*
X132488095Y-129383390D01*
X132488095Y-129383390D02*
X133059523Y-129954819D01*
X133059523Y-129954819D02*
X132440476Y-129954819D01*
X131535714Y-128954819D02*
X132011904Y-128954819D01*
X132011904Y-128954819D02*
X132059523Y-129431009D01*
X132059523Y-129431009D02*
X132011904Y-129383390D01*
X132011904Y-129383390D02*
X131916666Y-129335771D01*
X131916666Y-129335771D02*
X131678571Y-129335771D01*
X131678571Y-129335771D02*
X131583333Y-129383390D01*
X131583333Y-129383390D02*
X131535714Y-129431009D01*
X131535714Y-129431009D02*
X131488095Y-129526247D01*
X131488095Y-129526247D02*
X131488095Y-129764342D01*
X131488095Y-129764342D02*
X131535714Y-129859580D01*
X131535714Y-129859580D02*
X131583333Y-129907200D01*
X131583333Y-129907200D02*
X131678571Y-129954819D01*
X131678571Y-129954819D02*
X131916666Y-129954819D01*
X131916666Y-129954819D02*
X132011904Y-129907200D01*
X132011904Y-129907200D02*
X132059523Y-129859580D01*
X94392857Y-92109580D02*
X94440476Y-92157200D01*
X94440476Y-92157200D02*
X94583333Y-92204819D01*
X94583333Y-92204819D02*
X94678571Y-92204819D01*
X94678571Y-92204819D02*
X94821428Y-92157200D01*
X94821428Y-92157200D02*
X94916666Y-92061961D01*
X94916666Y-92061961D02*
X94964285Y-91966723D01*
X94964285Y-91966723D02*
X95011904Y-91776247D01*
X95011904Y-91776247D02*
X95011904Y-91633390D01*
X95011904Y-91633390D02*
X94964285Y-91442914D01*
X94964285Y-91442914D02*
X94916666Y-91347676D01*
X94916666Y-91347676D02*
X94821428Y-91252438D01*
X94821428Y-91252438D02*
X94678571Y-91204819D01*
X94678571Y-91204819D02*
X94583333Y-91204819D01*
X94583333Y-91204819D02*
X94440476Y-91252438D01*
X94440476Y-91252438D02*
X94392857Y-91300057D01*
X93440476Y-92204819D02*
X94011904Y-92204819D01*
X93726190Y-92204819D02*
X93726190Y-91204819D01*
X93726190Y-91204819D02*
X93821428Y-91347676D01*
X93821428Y-91347676D02*
X93916666Y-91442914D01*
X93916666Y-91442914D02*
X94011904Y-91490533D01*
X92821428Y-91204819D02*
X92726190Y-91204819D01*
X92726190Y-91204819D02*
X92630952Y-91252438D01*
X92630952Y-91252438D02*
X92583333Y-91300057D01*
X92583333Y-91300057D02*
X92535714Y-91395295D01*
X92535714Y-91395295D02*
X92488095Y-91585771D01*
X92488095Y-91585771D02*
X92488095Y-91823866D01*
X92488095Y-91823866D02*
X92535714Y-92014342D01*
X92535714Y-92014342D02*
X92583333Y-92109580D01*
X92583333Y-92109580D02*
X92630952Y-92157200D01*
X92630952Y-92157200D02*
X92726190Y-92204819D01*
X92726190Y-92204819D02*
X92821428Y-92204819D01*
X92821428Y-92204819D02*
X92916666Y-92157200D01*
X92916666Y-92157200D02*
X92964285Y-92109580D01*
X92964285Y-92109580D02*
X93011904Y-92014342D01*
X93011904Y-92014342D02*
X93059523Y-91823866D01*
X93059523Y-91823866D02*
X93059523Y-91585771D01*
X93059523Y-91585771D02*
X93011904Y-91395295D01*
X93011904Y-91395295D02*
X92964285Y-91300057D01*
X92964285Y-91300057D02*
X92916666Y-91252438D01*
X92916666Y-91252438D02*
X92821428Y-91204819D01*
X77913333Y-95204819D02*
X77913333Y-95919104D01*
X77913333Y-95919104D02*
X77960952Y-96061961D01*
X77960952Y-96061961D02*
X78056190Y-96157200D01*
X78056190Y-96157200D02*
X78199047Y-96204819D01*
X78199047Y-96204819D02*
X78294285Y-96204819D01*
X77532380Y-95204819D02*
X76913333Y-95204819D01*
X76913333Y-95204819D02*
X77246666Y-95585771D01*
X77246666Y-95585771D02*
X77103809Y-95585771D01*
X77103809Y-95585771D02*
X77008571Y-95633390D01*
X77008571Y-95633390D02*
X76960952Y-95681009D01*
X76960952Y-95681009D02*
X76913333Y-95776247D01*
X76913333Y-95776247D02*
X76913333Y-96014342D01*
X76913333Y-96014342D02*
X76960952Y-96109580D01*
X76960952Y-96109580D02*
X77008571Y-96157200D01*
X77008571Y-96157200D02*
X77103809Y-96204819D01*
X77103809Y-96204819D02*
X77389523Y-96204819D01*
X77389523Y-96204819D02*
X77484761Y-96157200D01*
X77484761Y-96157200D02*
X77532380Y-96109580D01*
X121039580Y-82857142D02*
X121087200Y-82809523D01*
X121087200Y-82809523D02*
X121134819Y-82666666D01*
X121134819Y-82666666D02*
X121134819Y-82571428D01*
X121134819Y-82571428D02*
X121087200Y-82428571D01*
X121087200Y-82428571D02*
X120991961Y-82333333D01*
X120991961Y-82333333D02*
X120896723Y-82285714D01*
X120896723Y-82285714D02*
X120706247Y-82238095D01*
X120706247Y-82238095D02*
X120563390Y-82238095D01*
X120563390Y-82238095D02*
X120372914Y-82285714D01*
X120372914Y-82285714D02*
X120277676Y-82333333D01*
X120277676Y-82333333D02*
X120182438Y-82428571D01*
X120182438Y-82428571D02*
X120134819Y-82571428D01*
X120134819Y-82571428D02*
X120134819Y-82666666D01*
X120134819Y-82666666D02*
X120182438Y-82809523D01*
X120182438Y-82809523D02*
X120230057Y-82857142D01*
X121134819Y-83809523D02*
X121134819Y-83238095D01*
X121134819Y-83523809D02*
X120134819Y-83523809D01*
X120134819Y-83523809D02*
X120277676Y-83428571D01*
X120277676Y-83428571D02*
X120372914Y-83333333D01*
X120372914Y-83333333D02*
X120420533Y-83238095D01*
X120230057Y-84190476D02*
X120182438Y-84238095D01*
X120182438Y-84238095D02*
X120134819Y-84333333D01*
X120134819Y-84333333D02*
X120134819Y-84571428D01*
X120134819Y-84571428D02*
X120182438Y-84666666D01*
X120182438Y-84666666D02*
X120230057Y-84714285D01*
X120230057Y-84714285D02*
X120325295Y-84761904D01*
X120325295Y-84761904D02*
X120420533Y-84761904D01*
X120420533Y-84761904D02*
X120563390Y-84714285D01*
X120563390Y-84714285D02*
X121134819Y-84142857D01*
X121134819Y-84142857D02*
X121134819Y-84761904D01*
X126859580Y-89857142D02*
X126907200Y-89809523D01*
X126907200Y-89809523D02*
X126954819Y-89666666D01*
X126954819Y-89666666D02*
X126954819Y-89571428D01*
X126954819Y-89571428D02*
X126907200Y-89428571D01*
X126907200Y-89428571D02*
X126811961Y-89333333D01*
X126811961Y-89333333D02*
X126716723Y-89285714D01*
X126716723Y-89285714D02*
X126526247Y-89238095D01*
X126526247Y-89238095D02*
X126383390Y-89238095D01*
X126383390Y-89238095D02*
X126192914Y-89285714D01*
X126192914Y-89285714D02*
X126097676Y-89333333D01*
X126097676Y-89333333D02*
X126002438Y-89428571D01*
X126002438Y-89428571D02*
X125954819Y-89571428D01*
X125954819Y-89571428D02*
X125954819Y-89666666D01*
X125954819Y-89666666D02*
X126002438Y-89809523D01*
X126002438Y-89809523D02*
X126050057Y-89857142D01*
X126954819Y-90809523D02*
X126954819Y-90238095D01*
X126954819Y-90523809D02*
X125954819Y-90523809D01*
X125954819Y-90523809D02*
X126097676Y-90428571D01*
X126097676Y-90428571D02*
X126192914Y-90333333D01*
X126192914Y-90333333D02*
X126240533Y-90238095D01*
X125954819Y-91714285D02*
X125954819Y-91238095D01*
X125954819Y-91238095D02*
X126431009Y-91190476D01*
X126431009Y-91190476D02*
X126383390Y-91238095D01*
X126383390Y-91238095D02*
X126335771Y-91333333D01*
X126335771Y-91333333D02*
X126335771Y-91571428D01*
X126335771Y-91571428D02*
X126383390Y-91666666D01*
X126383390Y-91666666D02*
X126431009Y-91714285D01*
X126431009Y-91714285D02*
X126526247Y-91761904D01*
X126526247Y-91761904D02*
X126764342Y-91761904D01*
X126764342Y-91761904D02*
X126859580Y-91714285D01*
X126859580Y-91714285D02*
X126907200Y-91666666D01*
X126907200Y-91666666D02*
X126954819Y-91571428D01*
X126954819Y-91571428D02*
X126954819Y-91333333D01*
X126954819Y-91333333D02*
X126907200Y-91238095D01*
X126907200Y-91238095D02*
X126859580Y-91190476D01*
X126859580Y-97357142D02*
X126907200Y-97309523D01*
X126907200Y-97309523D02*
X126954819Y-97166666D01*
X126954819Y-97166666D02*
X126954819Y-97071428D01*
X126954819Y-97071428D02*
X126907200Y-96928571D01*
X126907200Y-96928571D02*
X126811961Y-96833333D01*
X126811961Y-96833333D02*
X126716723Y-96785714D01*
X126716723Y-96785714D02*
X126526247Y-96738095D01*
X126526247Y-96738095D02*
X126383390Y-96738095D01*
X126383390Y-96738095D02*
X126192914Y-96785714D01*
X126192914Y-96785714D02*
X126097676Y-96833333D01*
X126097676Y-96833333D02*
X126002438Y-96928571D01*
X126002438Y-96928571D02*
X125954819Y-97071428D01*
X125954819Y-97071428D02*
X125954819Y-97166666D01*
X125954819Y-97166666D02*
X126002438Y-97309523D01*
X126002438Y-97309523D02*
X126050057Y-97357142D01*
X126954819Y-98309523D02*
X126954819Y-97738095D01*
X126954819Y-98023809D02*
X125954819Y-98023809D01*
X125954819Y-98023809D02*
X126097676Y-97928571D01*
X126097676Y-97928571D02*
X126192914Y-97833333D01*
X126192914Y-97833333D02*
X126240533Y-97738095D01*
X126954819Y-98785714D02*
X126954819Y-98976190D01*
X126954819Y-98976190D02*
X126907200Y-99071428D01*
X126907200Y-99071428D02*
X126859580Y-99119047D01*
X126859580Y-99119047D02*
X126716723Y-99214285D01*
X126716723Y-99214285D02*
X126526247Y-99261904D01*
X126526247Y-99261904D02*
X126145295Y-99261904D01*
X126145295Y-99261904D02*
X126050057Y-99214285D01*
X126050057Y-99214285D02*
X126002438Y-99166666D01*
X126002438Y-99166666D02*
X125954819Y-99071428D01*
X125954819Y-99071428D02*
X125954819Y-98880952D01*
X125954819Y-98880952D02*
X126002438Y-98785714D01*
X126002438Y-98785714D02*
X126050057Y-98738095D01*
X126050057Y-98738095D02*
X126145295Y-98690476D01*
X126145295Y-98690476D02*
X126383390Y-98690476D01*
X126383390Y-98690476D02*
X126478628Y-98738095D01*
X126478628Y-98738095D02*
X126526247Y-98785714D01*
X126526247Y-98785714D02*
X126573866Y-98880952D01*
X126573866Y-98880952D02*
X126573866Y-99071428D01*
X126573866Y-99071428D02*
X126526247Y-99166666D01*
X126526247Y-99166666D02*
X126478628Y-99214285D01*
X126478628Y-99214285D02*
X126383390Y-99261904D01*
X99142857Y-89704819D02*
X99476190Y-89228628D01*
X99714285Y-89704819D02*
X99714285Y-88704819D01*
X99714285Y-88704819D02*
X99333333Y-88704819D01*
X99333333Y-88704819D02*
X99238095Y-88752438D01*
X99238095Y-88752438D02*
X99190476Y-88800057D01*
X99190476Y-88800057D02*
X99142857Y-88895295D01*
X99142857Y-88895295D02*
X99142857Y-89038152D01*
X99142857Y-89038152D02*
X99190476Y-89133390D01*
X99190476Y-89133390D02*
X99238095Y-89181009D01*
X99238095Y-89181009D02*
X99333333Y-89228628D01*
X99333333Y-89228628D02*
X99714285Y-89228628D01*
X98190476Y-89704819D02*
X98761904Y-89704819D01*
X98476190Y-89704819D02*
X98476190Y-88704819D01*
X98476190Y-88704819D02*
X98571428Y-88847676D01*
X98571428Y-88847676D02*
X98666666Y-88942914D01*
X98666666Y-88942914D02*
X98761904Y-88990533D01*
X97238095Y-89704819D02*
X97809523Y-89704819D01*
X97523809Y-89704819D02*
X97523809Y-88704819D01*
X97523809Y-88704819D02*
X97619047Y-88847676D01*
X97619047Y-88847676D02*
X97714285Y-88942914D01*
X97714285Y-88942914D02*
X97809523Y-88990533D01*
X129892857Y-121359580D02*
X129940476Y-121407200D01*
X129940476Y-121407200D02*
X130083333Y-121454819D01*
X130083333Y-121454819D02*
X130178571Y-121454819D01*
X130178571Y-121454819D02*
X130321428Y-121407200D01*
X130321428Y-121407200D02*
X130416666Y-121311961D01*
X130416666Y-121311961D02*
X130464285Y-121216723D01*
X130464285Y-121216723D02*
X130511904Y-121026247D01*
X130511904Y-121026247D02*
X130511904Y-120883390D01*
X130511904Y-120883390D02*
X130464285Y-120692914D01*
X130464285Y-120692914D02*
X130416666Y-120597676D01*
X130416666Y-120597676D02*
X130321428Y-120502438D01*
X130321428Y-120502438D02*
X130178571Y-120454819D01*
X130178571Y-120454819D02*
X130083333Y-120454819D01*
X130083333Y-120454819D02*
X129940476Y-120502438D01*
X129940476Y-120502438D02*
X129892857Y-120550057D01*
X129511904Y-120550057D02*
X129464285Y-120502438D01*
X129464285Y-120502438D02*
X129369047Y-120454819D01*
X129369047Y-120454819D02*
X129130952Y-120454819D01*
X129130952Y-120454819D02*
X129035714Y-120502438D01*
X129035714Y-120502438D02*
X128988095Y-120550057D01*
X128988095Y-120550057D02*
X128940476Y-120645295D01*
X128940476Y-120645295D02*
X128940476Y-120740533D01*
X128940476Y-120740533D02*
X128988095Y-120883390D01*
X128988095Y-120883390D02*
X129559523Y-121454819D01*
X129559523Y-121454819D02*
X128940476Y-121454819D01*
X128607142Y-120454819D02*
X127940476Y-120454819D01*
X127940476Y-120454819D02*
X128369047Y-121454819D01*
X82511904Y-88954819D02*
X82511904Y-89764342D01*
X82511904Y-89764342D02*
X82464285Y-89859580D01*
X82464285Y-89859580D02*
X82416666Y-89907200D01*
X82416666Y-89907200D02*
X82321428Y-89954819D01*
X82321428Y-89954819D02*
X82130952Y-89954819D01*
X82130952Y-89954819D02*
X82035714Y-89907200D01*
X82035714Y-89907200D02*
X81988095Y-89859580D01*
X81988095Y-89859580D02*
X81940476Y-89764342D01*
X81940476Y-89764342D02*
X81940476Y-88954819D01*
X81511904Y-89050057D02*
X81464285Y-89002438D01*
X81464285Y-89002438D02*
X81369047Y-88954819D01*
X81369047Y-88954819D02*
X81130952Y-88954819D01*
X81130952Y-88954819D02*
X81035714Y-89002438D01*
X81035714Y-89002438D02*
X80988095Y-89050057D01*
X80988095Y-89050057D02*
X80940476Y-89145295D01*
X80940476Y-89145295D02*
X80940476Y-89240533D01*
X80940476Y-89240533D02*
X80988095Y-89383390D01*
X80988095Y-89383390D02*
X81559523Y-89954819D01*
X81559523Y-89954819D02*
X80940476Y-89954819D01*
X115833333Y-133709819D02*
X115833333Y-134424104D01*
X115833333Y-134424104D02*
X115880952Y-134566961D01*
X115880952Y-134566961D02*
X115976190Y-134662200D01*
X115976190Y-134662200D02*
X116119047Y-134709819D01*
X116119047Y-134709819D02*
X116214285Y-134709819D01*
X115404761Y-133805057D02*
X115357142Y-133757438D01*
X115357142Y-133757438D02*
X115261904Y-133709819D01*
X115261904Y-133709819D02*
X115023809Y-133709819D01*
X115023809Y-133709819D02*
X114928571Y-133757438D01*
X114928571Y-133757438D02*
X114880952Y-133805057D01*
X114880952Y-133805057D02*
X114833333Y-133900295D01*
X114833333Y-133900295D02*
X114833333Y-133995533D01*
X114833333Y-133995533D02*
X114880952Y-134138390D01*
X114880952Y-134138390D02*
X115452380Y-134709819D01*
X115452380Y-134709819D02*
X114833333Y-134709819D01*
X129304819Y-131357142D02*
X128828628Y-131023809D01*
X129304819Y-130785714D02*
X128304819Y-130785714D01*
X128304819Y-130785714D02*
X128304819Y-131166666D01*
X128304819Y-131166666D02*
X128352438Y-131261904D01*
X128352438Y-131261904D02*
X128400057Y-131309523D01*
X128400057Y-131309523D02*
X128495295Y-131357142D01*
X128495295Y-131357142D02*
X128638152Y-131357142D01*
X128638152Y-131357142D02*
X128733390Y-131309523D01*
X128733390Y-131309523D02*
X128781009Y-131261904D01*
X128781009Y-131261904D02*
X128828628Y-131166666D01*
X128828628Y-131166666D02*
X128828628Y-130785714D01*
X129304819Y-132309523D02*
X129304819Y-131738095D01*
X129304819Y-132023809D02*
X128304819Y-132023809D01*
X128304819Y-132023809D02*
X128447676Y-131928571D01*
X128447676Y-131928571D02*
X128542914Y-131833333D01*
X128542914Y-131833333D02*
X128590533Y-131738095D01*
X128304819Y-133166666D02*
X128304819Y-132976190D01*
X128304819Y-132976190D02*
X128352438Y-132880952D01*
X128352438Y-132880952D02*
X128400057Y-132833333D01*
X128400057Y-132833333D02*
X128542914Y-132738095D01*
X128542914Y-132738095D02*
X128733390Y-132690476D01*
X128733390Y-132690476D02*
X129114342Y-132690476D01*
X129114342Y-132690476D02*
X129209580Y-132738095D01*
X129209580Y-132738095D02*
X129257200Y-132785714D01*
X129257200Y-132785714D02*
X129304819Y-132880952D01*
X129304819Y-132880952D02*
X129304819Y-133071428D01*
X129304819Y-133071428D02*
X129257200Y-133166666D01*
X129257200Y-133166666D02*
X129209580Y-133214285D01*
X129209580Y-133214285D02*
X129114342Y-133261904D01*
X129114342Y-133261904D02*
X128876247Y-133261904D01*
X128876247Y-133261904D02*
X128781009Y-133214285D01*
X128781009Y-133214285D02*
X128733390Y-133166666D01*
X128733390Y-133166666D02*
X128685771Y-133071428D01*
X128685771Y-133071428D02*
X128685771Y-132880952D01*
X128685771Y-132880952D02*
X128733390Y-132785714D01*
X128733390Y-132785714D02*
X128781009Y-132738095D01*
X128781009Y-132738095D02*
X128876247Y-132690476D01*
X98916666Y-83109580D02*
X98964285Y-83157200D01*
X98964285Y-83157200D02*
X99107142Y-83204819D01*
X99107142Y-83204819D02*
X99202380Y-83204819D01*
X99202380Y-83204819D02*
X99345237Y-83157200D01*
X99345237Y-83157200D02*
X99440475Y-83061961D01*
X99440475Y-83061961D02*
X99488094Y-82966723D01*
X99488094Y-82966723D02*
X99535713Y-82776247D01*
X99535713Y-82776247D02*
X99535713Y-82633390D01*
X99535713Y-82633390D02*
X99488094Y-82442914D01*
X99488094Y-82442914D02*
X99440475Y-82347676D01*
X99440475Y-82347676D02*
X99345237Y-82252438D01*
X99345237Y-82252438D02*
X99202380Y-82204819D01*
X99202380Y-82204819D02*
X99107142Y-82204819D01*
X99107142Y-82204819D02*
X98964285Y-82252438D01*
X98964285Y-82252438D02*
X98916666Y-82300057D01*
X98059523Y-82204819D02*
X98249999Y-82204819D01*
X98249999Y-82204819D02*
X98345237Y-82252438D01*
X98345237Y-82252438D02*
X98392856Y-82300057D01*
X98392856Y-82300057D02*
X98488094Y-82442914D01*
X98488094Y-82442914D02*
X98535713Y-82633390D01*
X98535713Y-82633390D02*
X98535713Y-83014342D01*
X98535713Y-83014342D02*
X98488094Y-83109580D01*
X98488094Y-83109580D02*
X98440475Y-83157200D01*
X98440475Y-83157200D02*
X98345237Y-83204819D01*
X98345237Y-83204819D02*
X98154761Y-83204819D01*
X98154761Y-83204819D02*
X98059523Y-83157200D01*
X98059523Y-83157200D02*
X98011904Y-83109580D01*
X98011904Y-83109580D02*
X97964285Y-83014342D01*
X97964285Y-83014342D02*
X97964285Y-82776247D01*
X97964285Y-82776247D02*
X98011904Y-82681009D01*
X98011904Y-82681009D02*
X98059523Y-82633390D01*
X98059523Y-82633390D02*
X98154761Y-82585771D01*
X98154761Y-82585771D02*
X98345237Y-82585771D01*
X98345237Y-82585771D02*
X98440475Y-82633390D01*
X98440475Y-82633390D02*
X98488094Y-82681009D01*
X98488094Y-82681009D02*
X98535713Y-82776247D01*
X131785713Y-105454819D02*
X131785713Y-104454819D01*
X131785713Y-104454819D02*
X131452380Y-105169104D01*
X131452380Y-105169104D02*
X131119047Y-104454819D01*
X131119047Y-104454819D02*
X131119047Y-105454819D01*
X130119047Y-105454819D02*
X130690475Y-105454819D01*
X130404761Y-105454819D02*
X130404761Y-104454819D01*
X130404761Y-104454819D02*
X130499999Y-104597676D01*
X130499999Y-104597676D02*
X130595237Y-104692914D01*
X130595237Y-104692914D02*
X130690475Y-104740533D01*
X129119047Y-105359580D02*
X129166666Y-105407200D01*
X129166666Y-105407200D02*
X129309523Y-105454819D01*
X129309523Y-105454819D02*
X129404761Y-105454819D01*
X129404761Y-105454819D02*
X129547618Y-105407200D01*
X129547618Y-105407200D02*
X129642856Y-105311961D01*
X129642856Y-105311961D02*
X129690475Y-105216723D01*
X129690475Y-105216723D02*
X129738094Y-105026247D01*
X129738094Y-105026247D02*
X129738094Y-104883390D01*
X129738094Y-104883390D02*
X129690475Y-104692914D01*
X129690475Y-104692914D02*
X129642856Y-104597676D01*
X129642856Y-104597676D02*
X129547618Y-104502438D01*
X129547618Y-104502438D02*
X129404761Y-104454819D01*
X129404761Y-104454819D02*
X129309523Y-104454819D01*
X129309523Y-104454819D02*
X129166666Y-104502438D01*
X129166666Y-104502438D02*
X129119047Y-104550057D01*
X128166666Y-105454819D02*
X128738094Y-105454819D01*
X128452380Y-105454819D02*
X128452380Y-104454819D01*
X128452380Y-104454819D02*
X128547618Y-104597676D01*
X128547618Y-104597676D02*
X128642856Y-104692914D01*
X128642856Y-104692914D02*
X128738094Y-104740533D01*
X85754166Y-80304819D02*
X86087499Y-79828628D01*
X86325594Y-80304819D02*
X86325594Y-79304819D01*
X86325594Y-79304819D02*
X85944642Y-79304819D01*
X85944642Y-79304819D02*
X85849404Y-79352438D01*
X85849404Y-79352438D02*
X85801785Y-79400057D01*
X85801785Y-79400057D02*
X85754166Y-79495295D01*
X85754166Y-79495295D02*
X85754166Y-79638152D01*
X85754166Y-79638152D02*
X85801785Y-79733390D01*
X85801785Y-79733390D02*
X85849404Y-79781009D01*
X85849404Y-79781009D02*
X85944642Y-79828628D01*
X85944642Y-79828628D02*
X86325594Y-79828628D01*
X84849404Y-79304819D02*
X85325594Y-79304819D01*
X85325594Y-79304819D02*
X85373213Y-79781009D01*
X85373213Y-79781009D02*
X85325594Y-79733390D01*
X85325594Y-79733390D02*
X85230356Y-79685771D01*
X85230356Y-79685771D02*
X84992261Y-79685771D01*
X84992261Y-79685771D02*
X84897023Y-79733390D01*
X84897023Y-79733390D02*
X84849404Y-79781009D01*
X84849404Y-79781009D02*
X84801785Y-79876247D01*
X84801785Y-79876247D02*
X84801785Y-80114342D01*
X84801785Y-80114342D02*
X84849404Y-80209580D01*
X84849404Y-80209580D02*
X84897023Y-80257200D01*
X84897023Y-80257200D02*
X84992261Y-80304819D01*
X84992261Y-80304819D02*
X85230356Y-80304819D01*
X85230356Y-80304819D02*
X85325594Y-80257200D01*
X85325594Y-80257200D02*
X85373213Y-80209580D01*
X102789580Y-97357142D02*
X102837200Y-97309523D01*
X102837200Y-97309523D02*
X102884819Y-97166666D01*
X102884819Y-97166666D02*
X102884819Y-97071428D01*
X102884819Y-97071428D02*
X102837200Y-96928571D01*
X102837200Y-96928571D02*
X102741961Y-96833333D01*
X102741961Y-96833333D02*
X102646723Y-96785714D01*
X102646723Y-96785714D02*
X102456247Y-96738095D01*
X102456247Y-96738095D02*
X102313390Y-96738095D01*
X102313390Y-96738095D02*
X102122914Y-96785714D01*
X102122914Y-96785714D02*
X102027676Y-96833333D01*
X102027676Y-96833333D02*
X101932438Y-96928571D01*
X101932438Y-96928571D02*
X101884819Y-97071428D01*
X101884819Y-97071428D02*
X101884819Y-97166666D01*
X101884819Y-97166666D02*
X101932438Y-97309523D01*
X101932438Y-97309523D02*
X101980057Y-97357142D01*
X102884819Y-98309523D02*
X102884819Y-97738095D01*
X102884819Y-98023809D02*
X101884819Y-98023809D01*
X101884819Y-98023809D02*
X102027676Y-97928571D01*
X102027676Y-97928571D02*
X102122914Y-97833333D01*
X102122914Y-97833333D02*
X102170533Y-97738095D01*
X101884819Y-98642857D02*
X101884819Y-99261904D01*
X101884819Y-99261904D02*
X102265771Y-98928571D01*
X102265771Y-98928571D02*
X102265771Y-99071428D01*
X102265771Y-99071428D02*
X102313390Y-99166666D01*
X102313390Y-99166666D02*
X102361009Y-99214285D01*
X102361009Y-99214285D02*
X102456247Y-99261904D01*
X102456247Y-99261904D02*
X102694342Y-99261904D01*
X102694342Y-99261904D02*
X102789580Y-99214285D01*
X102789580Y-99214285D02*
X102837200Y-99166666D01*
X102837200Y-99166666D02*
X102884819Y-99071428D01*
X102884819Y-99071428D02*
X102884819Y-98785714D01*
X102884819Y-98785714D02*
X102837200Y-98690476D01*
X102837200Y-98690476D02*
X102789580Y-98642857D01*
X90642857Y-96559580D02*
X90690476Y-96607200D01*
X90690476Y-96607200D02*
X90833333Y-96654819D01*
X90833333Y-96654819D02*
X90928571Y-96654819D01*
X90928571Y-96654819D02*
X91071428Y-96607200D01*
X91071428Y-96607200D02*
X91166666Y-96511961D01*
X91166666Y-96511961D02*
X91214285Y-96416723D01*
X91214285Y-96416723D02*
X91261904Y-96226247D01*
X91261904Y-96226247D02*
X91261904Y-96083390D01*
X91261904Y-96083390D02*
X91214285Y-95892914D01*
X91214285Y-95892914D02*
X91166666Y-95797676D01*
X91166666Y-95797676D02*
X91071428Y-95702438D01*
X91071428Y-95702438D02*
X90928571Y-95654819D01*
X90928571Y-95654819D02*
X90833333Y-95654819D01*
X90833333Y-95654819D02*
X90690476Y-95702438D01*
X90690476Y-95702438D02*
X90642857Y-95750057D01*
X90261904Y-95750057D02*
X90214285Y-95702438D01*
X90214285Y-95702438D02*
X90119047Y-95654819D01*
X90119047Y-95654819D02*
X89880952Y-95654819D01*
X89880952Y-95654819D02*
X89785714Y-95702438D01*
X89785714Y-95702438D02*
X89738095Y-95750057D01*
X89738095Y-95750057D02*
X89690476Y-95845295D01*
X89690476Y-95845295D02*
X89690476Y-95940533D01*
X89690476Y-95940533D02*
X89738095Y-96083390D01*
X89738095Y-96083390D02*
X90309523Y-96654819D01*
X90309523Y-96654819D02*
X89690476Y-96654819D01*
X88738095Y-96654819D02*
X89309523Y-96654819D01*
X89023809Y-96654819D02*
X89023809Y-95654819D01*
X89023809Y-95654819D02*
X89119047Y-95797676D01*
X89119047Y-95797676D02*
X89214285Y-95892914D01*
X89214285Y-95892914D02*
X89309523Y-95940533D01*
X102142857Y-93304819D02*
X102476190Y-92828628D01*
X102714285Y-93304819D02*
X102714285Y-92304819D01*
X102714285Y-92304819D02*
X102333333Y-92304819D01*
X102333333Y-92304819D02*
X102238095Y-92352438D01*
X102238095Y-92352438D02*
X102190476Y-92400057D01*
X102190476Y-92400057D02*
X102142857Y-92495295D01*
X102142857Y-92495295D02*
X102142857Y-92638152D01*
X102142857Y-92638152D02*
X102190476Y-92733390D01*
X102190476Y-92733390D02*
X102238095Y-92781009D01*
X102238095Y-92781009D02*
X102333333Y-92828628D01*
X102333333Y-92828628D02*
X102714285Y-92828628D01*
X101190476Y-93304819D02*
X101761904Y-93304819D01*
X101476190Y-93304819D02*
X101476190Y-92304819D01*
X101476190Y-92304819D02*
X101571428Y-92447676D01*
X101571428Y-92447676D02*
X101666666Y-92542914D01*
X101666666Y-92542914D02*
X101761904Y-92590533D01*
X100571428Y-92304819D02*
X100476190Y-92304819D01*
X100476190Y-92304819D02*
X100380952Y-92352438D01*
X100380952Y-92352438D02*
X100333333Y-92400057D01*
X100333333Y-92400057D02*
X100285714Y-92495295D01*
X100285714Y-92495295D02*
X100238095Y-92685771D01*
X100238095Y-92685771D02*
X100238095Y-92923866D01*
X100238095Y-92923866D02*
X100285714Y-93114342D01*
X100285714Y-93114342D02*
X100333333Y-93209580D01*
X100333333Y-93209580D02*
X100380952Y-93257200D01*
X100380952Y-93257200D02*
X100476190Y-93304819D01*
X100476190Y-93304819D02*
X100571428Y-93304819D01*
X100571428Y-93304819D02*
X100666666Y-93257200D01*
X100666666Y-93257200D02*
X100714285Y-93209580D01*
X100714285Y-93209580D02*
X100761904Y-93114342D01*
X100761904Y-93114342D02*
X100809523Y-92923866D01*
X100809523Y-92923866D02*
X100809523Y-92685771D01*
X100809523Y-92685771D02*
X100761904Y-92495295D01*
X100761904Y-92495295D02*
X100714285Y-92400057D01*
X100714285Y-92400057D02*
X100666666Y-92352438D01*
X100666666Y-92352438D02*
X100571428Y-92304819D01*
X92359580Y-114107142D02*
X92407200Y-114059523D01*
X92407200Y-114059523D02*
X92454819Y-113916666D01*
X92454819Y-113916666D02*
X92454819Y-113821428D01*
X92454819Y-113821428D02*
X92407200Y-113678571D01*
X92407200Y-113678571D02*
X92311961Y-113583333D01*
X92311961Y-113583333D02*
X92216723Y-113535714D01*
X92216723Y-113535714D02*
X92026247Y-113488095D01*
X92026247Y-113488095D02*
X91883390Y-113488095D01*
X91883390Y-113488095D02*
X91692914Y-113535714D01*
X91692914Y-113535714D02*
X91597676Y-113583333D01*
X91597676Y-113583333D02*
X91502438Y-113678571D01*
X91502438Y-113678571D02*
X91454819Y-113821428D01*
X91454819Y-113821428D02*
X91454819Y-113916666D01*
X91454819Y-113916666D02*
X91502438Y-114059523D01*
X91502438Y-114059523D02*
X91550057Y-114107142D01*
X91454819Y-114440476D02*
X91454819Y-115059523D01*
X91454819Y-115059523D02*
X91835771Y-114726190D01*
X91835771Y-114726190D02*
X91835771Y-114869047D01*
X91835771Y-114869047D02*
X91883390Y-114964285D01*
X91883390Y-114964285D02*
X91931009Y-115011904D01*
X91931009Y-115011904D02*
X92026247Y-115059523D01*
X92026247Y-115059523D02*
X92264342Y-115059523D01*
X92264342Y-115059523D02*
X92359580Y-115011904D01*
X92359580Y-115011904D02*
X92407200Y-114964285D01*
X92407200Y-114964285D02*
X92454819Y-114869047D01*
X92454819Y-114869047D02*
X92454819Y-114583333D01*
X92454819Y-114583333D02*
X92407200Y-114488095D01*
X92407200Y-114488095D02*
X92359580Y-114440476D01*
X91454819Y-115964285D02*
X91454819Y-115488095D01*
X91454819Y-115488095D02*
X91931009Y-115440476D01*
X91931009Y-115440476D02*
X91883390Y-115488095D01*
X91883390Y-115488095D02*
X91835771Y-115583333D01*
X91835771Y-115583333D02*
X91835771Y-115821428D01*
X91835771Y-115821428D02*
X91883390Y-115916666D01*
X91883390Y-115916666D02*
X91931009Y-115964285D01*
X91931009Y-115964285D02*
X92026247Y-116011904D01*
X92026247Y-116011904D02*
X92264342Y-116011904D01*
X92264342Y-116011904D02*
X92359580Y-115964285D01*
X92359580Y-115964285D02*
X92407200Y-115916666D01*
X92407200Y-115916666D02*
X92454819Y-115821428D01*
X92454819Y-115821428D02*
X92454819Y-115583333D01*
X92454819Y-115583333D02*
X92407200Y-115488095D01*
X92407200Y-115488095D02*
X92359580Y-115440476D01*
X112892857Y-112359580D02*
X112940476Y-112407200D01*
X112940476Y-112407200D02*
X113083333Y-112454819D01*
X113083333Y-112454819D02*
X113178571Y-112454819D01*
X113178571Y-112454819D02*
X113321428Y-112407200D01*
X113321428Y-112407200D02*
X113416666Y-112311961D01*
X113416666Y-112311961D02*
X113464285Y-112216723D01*
X113464285Y-112216723D02*
X113511904Y-112026247D01*
X113511904Y-112026247D02*
X113511904Y-111883390D01*
X113511904Y-111883390D02*
X113464285Y-111692914D01*
X113464285Y-111692914D02*
X113416666Y-111597676D01*
X113416666Y-111597676D02*
X113321428Y-111502438D01*
X113321428Y-111502438D02*
X113178571Y-111454819D01*
X113178571Y-111454819D02*
X113083333Y-111454819D01*
X113083333Y-111454819D02*
X112940476Y-111502438D01*
X112940476Y-111502438D02*
X112892857Y-111550057D01*
X112511904Y-111550057D02*
X112464285Y-111502438D01*
X112464285Y-111502438D02*
X112369047Y-111454819D01*
X112369047Y-111454819D02*
X112130952Y-111454819D01*
X112130952Y-111454819D02*
X112035714Y-111502438D01*
X112035714Y-111502438D02*
X111988095Y-111550057D01*
X111988095Y-111550057D02*
X111940476Y-111645295D01*
X111940476Y-111645295D02*
X111940476Y-111740533D01*
X111940476Y-111740533D02*
X111988095Y-111883390D01*
X111988095Y-111883390D02*
X112559523Y-112454819D01*
X112559523Y-112454819D02*
X111940476Y-112454819D01*
X111607142Y-111454819D02*
X110988095Y-111454819D01*
X110988095Y-111454819D02*
X111321428Y-111835771D01*
X111321428Y-111835771D02*
X111178571Y-111835771D01*
X111178571Y-111835771D02*
X111083333Y-111883390D01*
X111083333Y-111883390D02*
X111035714Y-111931009D01*
X111035714Y-111931009D02*
X110988095Y-112026247D01*
X110988095Y-112026247D02*
X110988095Y-112264342D01*
X110988095Y-112264342D02*
X111035714Y-112359580D01*
X111035714Y-112359580D02*
X111083333Y-112407200D01*
X111083333Y-112407200D02*
X111178571Y-112454819D01*
X111178571Y-112454819D02*
X111464285Y-112454819D01*
X111464285Y-112454819D02*
X111559523Y-112407200D01*
X111559523Y-112407200D02*
X111607142Y-112359580D01*
X133604819Y-117857142D02*
X133128628Y-117523809D01*
X133604819Y-117285714D02*
X132604819Y-117285714D01*
X132604819Y-117285714D02*
X132604819Y-117666666D01*
X132604819Y-117666666D02*
X132652438Y-117761904D01*
X132652438Y-117761904D02*
X132700057Y-117809523D01*
X132700057Y-117809523D02*
X132795295Y-117857142D01*
X132795295Y-117857142D02*
X132938152Y-117857142D01*
X132938152Y-117857142D02*
X133033390Y-117809523D01*
X133033390Y-117809523D02*
X133081009Y-117761904D01*
X133081009Y-117761904D02*
X133128628Y-117666666D01*
X133128628Y-117666666D02*
X133128628Y-117285714D01*
X132700057Y-118238095D02*
X132652438Y-118285714D01*
X132652438Y-118285714D02*
X132604819Y-118380952D01*
X132604819Y-118380952D02*
X132604819Y-118619047D01*
X132604819Y-118619047D02*
X132652438Y-118714285D01*
X132652438Y-118714285D02*
X132700057Y-118761904D01*
X132700057Y-118761904D02*
X132795295Y-118809523D01*
X132795295Y-118809523D02*
X132890533Y-118809523D01*
X132890533Y-118809523D02*
X133033390Y-118761904D01*
X133033390Y-118761904D02*
X133604819Y-118190476D01*
X133604819Y-118190476D02*
X133604819Y-118809523D01*
X132604819Y-119428571D02*
X132604819Y-119523809D01*
X132604819Y-119523809D02*
X132652438Y-119619047D01*
X132652438Y-119619047D02*
X132700057Y-119666666D01*
X132700057Y-119666666D02*
X132795295Y-119714285D01*
X132795295Y-119714285D02*
X132985771Y-119761904D01*
X132985771Y-119761904D02*
X133223866Y-119761904D01*
X133223866Y-119761904D02*
X133414342Y-119714285D01*
X133414342Y-119714285D02*
X133509580Y-119666666D01*
X133509580Y-119666666D02*
X133557200Y-119619047D01*
X133557200Y-119619047D02*
X133604819Y-119523809D01*
X133604819Y-119523809D02*
X133604819Y-119428571D01*
X133604819Y-119428571D02*
X133557200Y-119333333D01*
X133557200Y-119333333D02*
X133509580Y-119285714D01*
X133509580Y-119285714D02*
X133414342Y-119238095D01*
X133414342Y-119238095D02*
X133223866Y-119190476D01*
X133223866Y-119190476D02*
X132985771Y-119190476D01*
X132985771Y-119190476D02*
X132795295Y-119238095D01*
X132795295Y-119238095D02*
X132700057Y-119285714D01*
X132700057Y-119285714D02*
X132652438Y-119333333D01*
X132652438Y-119333333D02*
X132604819Y-119428571D01*
X133464285Y-145954819D02*
X133464285Y-144954819D01*
X133464285Y-144954819D02*
X133130952Y-145669104D01*
X133130952Y-145669104D02*
X132797619Y-144954819D01*
X132797619Y-144954819D02*
X132797619Y-145954819D01*
X131797619Y-145954819D02*
X132369047Y-145954819D01*
X132083333Y-145954819D02*
X132083333Y-144954819D01*
X132083333Y-144954819D02*
X132178571Y-145097676D01*
X132178571Y-145097676D02*
X132273809Y-145192914D01*
X132273809Y-145192914D02*
X132369047Y-145240533D01*
X131416666Y-145669104D02*
X130940476Y-145669104D01*
X131511904Y-145954819D02*
X131178571Y-144954819D01*
X131178571Y-144954819D02*
X130845238Y-145954819D01*
X129988095Y-145954819D02*
X130559523Y-145954819D01*
X130273809Y-145954819D02*
X130273809Y-144954819D01*
X130273809Y-144954819D02*
X130369047Y-145097676D01*
X130369047Y-145097676D02*
X130464285Y-145192914D01*
X130464285Y-145192914D02*
X130559523Y-145240533D01*
X113454819Y-105261905D02*
X112454819Y-105261905D01*
X112454819Y-105261905D02*
X112454819Y-105500000D01*
X112454819Y-105500000D02*
X112502438Y-105642857D01*
X112502438Y-105642857D02*
X112597676Y-105738095D01*
X112597676Y-105738095D02*
X112692914Y-105785714D01*
X112692914Y-105785714D02*
X112883390Y-105833333D01*
X112883390Y-105833333D02*
X113026247Y-105833333D01*
X113026247Y-105833333D02*
X113216723Y-105785714D01*
X113216723Y-105785714D02*
X113311961Y-105738095D01*
X113311961Y-105738095D02*
X113407200Y-105642857D01*
X113407200Y-105642857D02*
X113454819Y-105500000D01*
X113454819Y-105500000D02*
X113454819Y-105261905D01*
X112788152Y-106690476D02*
X113454819Y-106690476D01*
X112407200Y-106452381D02*
X113121485Y-106214286D01*
X113121485Y-106214286D02*
X113121485Y-106833333D01*
X136954819Y-131357142D02*
X136478628Y-131023809D01*
X136954819Y-130785714D02*
X135954819Y-130785714D01*
X135954819Y-130785714D02*
X135954819Y-131166666D01*
X135954819Y-131166666D02*
X136002438Y-131261904D01*
X136002438Y-131261904D02*
X136050057Y-131309523D01*
X136050057Y-131309523D02*
X136145295Y-131357142D01*
X136145295Y-131357142D02*
X136288152Y-131357142D01*
X136288152Y-131357142D02*
X136383390Y-131309523D01*
X136383390Y-131309523D02*
X136431009Y-131261904D01*
X136431009Y-131261904D02*
X136478628Y-131166666D01*
X136478628Y-131166666D02*
X136478628Y-130785714D01*
X136954819Y-132309523D02*
X136954819Y-131738095D01*
X136954819Y-132023809D02*
X135954819Y-132023809D01*
X135954819Y-132023809D02*
X136097676Y-131928571D01*
X136097676Y-131928571D02*
X136192914Y-131833333D01*
X136192914Y-131833333D02*
X136240533Y-131738095D01*
X135954819Y-133214285D02*
X135954819Y-132738095D01*
X135954819Y-132738095D02*
X136431009Y-132690476D01*
X136431009Y-132690476D02*
X136383390Y-132738095D01*
X136383390Y-132738095D02*
X136335771Y-132833333D01*
X136335771Y-132833333D02*
X136335771Y-133071428D01*
X136335771Y-133071428D02*
X136383390Y-133166666D01*
X136383390Y-133166666D02*
X136431009Y-133214285D01*
X136431009Y-133214285D02*
X136526247Y-133261904D01*
X136526247Y-133261904D02*
X136764342Y-133261904D01*
X136764342Y-133261904D02*
X136859580Y-133214285D01*
X136859580Y-133214285D02*
X136907200Y-133166666D01*
X136907200Y-133166666D02*
X136954819Y-133071428D01*
X136954819Y-133071428D02*
X136954819Y-132833333D01*
X136954819Y-132833333D02*
X136907200Y-132738095D01*
X136907200Y-132738095D02*
X136859580Y-132690476D01*
X114738094Y-83954819D02*
X114738094Y-82954819D01*
X114738094Y-82954819D02*
X114499999Y-82954819D01*
X114499999Y-82954819D02*
X114357142Y-83002438D01*
X114357142Y-83002438D02*
X114261904Y-83097676D01*
X114261904Y-83097676D02*
X114214285Y-83192914D01*
X114214285Y-83192914D02*
X114166666Y-83383390D01*
X114166666Y-83383390D02*
X114166666Y-83526247D01*
X114166666Y-83526247D02*
X114214285Y-83716723D01*
X114214285Y-83716723D02*
X114261904Y-83811961D01*
X114261904Y-83811961D02*
X114357142Y-83907200D01*
X114357142Y-83907200D02*
X114499999Y-83954819D01*
X114499999Y-83954819D02*
X114738094Y-83954819D01*
X113833332Y-82954819D02*
X113214285Y-82954819D01*
X113214285Y-82954819D02*
X113547618Y-83335771D01*
X113547618Y-83335771D02*
X113404761Y-83335771D01*
X113404761Y-83335771D02*
X113309523Y-83383390D01*
X113309523Y-83383390D02*
X113261904Y-83431009D01*
X113261904Y-83431009D02*
X113214285Y-83526247D01*
X113214285Y-83526247D02*
X113214285Y-83764342D01*
X113214285Y-83764342D02*
X113261904Y-83859580D01*
X113261904Y-83859580D02*
X113309523Y-83907200D01*
X113309523Y-83907200D02*
X113404761Y-83954819D01*
X113404761Y-83954819D02*
X113690475Y-83954819D01*
X113690475Y-83954819D02*
X113785713Y-83907200D01*
X113785713Y-83907200D02*
X113833332Y-83859580D01*
X166142857Y-100429580D02*
X166190476Y-100477200D01*
X166190476Y-100477200D02*
X166333333Y-100524819D01*
X166333333Y-100524819D02*
X166428571Y-100524819D01*
X166428571Y-100524819D02*
X166571428Y-100477200D01*
X166571428Y-100477200D02*
X166666666Y-100381961D01*
X166666666Y-100381961D02*
X166714285Y-100286723D01*
X166714285Y-100286723D02*
X166761904Y-100096247D01*
X166761904Y-100096247D02*
X166761904Y-99953390D01*
X166761904Y-99953390D02*
X166714285Y-99762914D01*
X166714285Y-99762914D02*
X166666666Y-99667676D01*
X166666666Y-99667676D02*
X166571428Y-99572438D01*
X166571428Y-99572438D02*
X166428571Y-99524819D01*
X166428571Y-99524819D02*
X166333333Y-99524819D01*
X166333333Y-99524819D02*
X166190476Y-99572438D01*
X166190476Y-99572438D02*
X166142857Y-99620057D01*
X165190476Y-100524819D02*
X165761904Y-100524819D01*
X165476190Y-100524819D02*
X165476190Y-99524819D01*
X165476190Y-99524819D02*
X165571428Y-99667676D01*
X165571428Y-99667676D02*
X165666666Y-99762914D01*
X165666666Y-99762914D02*
X165761904Y-99810533D01*
X164333333Y-99858152D02*
X164333333Y-100524819D01*
X164571428Y-99477200D02*
X164809523Y-100191485D01*
X164809523Y-100191485D02*
X164190476Y-100191485D01*
X135949942Y-136095238D02*
X135997561Y-136190476D01*
X135997561Y-136190476D02*
X136092800Y-136285714D01*
X136092800Y-136285714D02*
X136235657Y-136428571D01*
X136235657Y-136428571D02*
X136283276Y-136523809D01*
X136283276Y-136523809D02*
X136283276Y-136619047D01*
X136045180Y-136571428D02*
X136092800Y-136666666D01*
X136092800Y-136666666D02*
X136188038Y-136761904D01*
X136188038Y-136761904D02*
X136378514Y-136809523D01*
X136378514Y-136809523D02*
X136711847Y-136809523D01*
X136711847Y-136809523D02*
X136902323Y-136761904D01*
X136902323Y-136761904D02*
X136997561Y-136666666D01*
X136997561Y-136666666D02*
X137045180Y-136571428D01*
X137045180Y-136571428D02*
X137045180Y-136380952D01*
X137045180Y-136380952D02*
X136997561Y-136285714D01*
X136997561Y-136285714D02*
X136902323Y-136190476D01*
X136902323Y-136190476D02*
X136711847Y-136142857D01*
X136711847Y-136142857D02*
X136378514Y-136142857D01*
X136378514Y-136142857D02*
X136188038Y-136190476D01*
X136188038Y-136190476D02*
X136092800Y-136285714D01*
X136092800Y-136285714D02*
X136045180Y-136380952D01*
X136045180Y-136380952D02*
X136045180Y-136571428D01*
X136949942Y-135761904D02*
X136997561Y-135714285D01*
X136997561Y-135714285D02*
X137045180Y-135619047D01*
X137045180Y-135619047D02*
X137045180Y-135380952D01*
X137045180Y-135380952D02*
X136997561Y-135285714D01*
X136997561Y-135285714D02*
X136949942Y-135238095D01*
X136949942Y-135238095D02*
X136854704Y-135190476D01*
X136854704Y-135190476D02*
X136759466Y-135190476D01*
X136759466Y-135190476D02*
X136616609Y-135238095D01*
X136616609Y-135238095D02*
X136045180Y-135809523D01*
X136045180Y-135809523D02*
X136045180Y-135190476D01*
X126859580Y-86107142D02*
X126907200Y-86059523D01*
X126907200Y-86059523D02*
X126954819Y-85916666D01*
X126954819Y-85916666D02*
X126954819Y-85821428D01*
X126954819Y-85821428D02*
X126907200Y-85678571D01*
X126907200Y-85678571D02*
X126811961Y-85583333D01*
X126811961Y-85583333D02*
X126716723Y-85535714D01*
X126716723Y-85535714D02*
X126526247Y-85488095D01*
X126526247Y-85488095D02*
X126383390Y-85488095D01*
X126383390Y-85488095D02*
X126192914Y-85535714D01*
X126192914Y-85535714D02*
X126097676Y-85583333D01*
X126097676Y-85583333D02*
X126002438Y-85678571D01*
X126002438Y-85678571D02*
X125954819Y-85821428D01*
X125954819Y-85821428D02*
X125954819Y-85916666D01*
X125954819Y-85916666D02*
X126002438Y-86059523D01*
X126002438Y-86059523D02*
X126050057Y-86107142D01*
X126954819Y-87059523D02*
X126954819Y-86488095D01*
X126954819Y-86773809D02*
X125954819Y-86773809D01*
X125954819Y-86773809D02*
X126097676Y-86678571D01*
X126097676Y-86678571D02*
X126192914Y-86583333D01*
X126192914Y-86583333D02*
X126240533Y-86488095D01*
X126954819Y-88011904D02*
X126954819Y-87440476D01*
X126954819Y-87726190D02*
X125954819Y-87726190D01*
X125954819Y-87726190D02*
X126097676Y-87630952D01*
X126097676Y-87630952D02*
X126192914Y-87535714D01*
X126192914Y-87535714D02*
X126240533Y-87440476D01*
X82916666Y-82704819D02*
X83249999Y-82228628D01*
X83488094Y-82704819D02*
X83488094Y-81704819D01*
X83488094Y-81704819D02*
X83107142Y-81704819D01*
X83107142Y-81704819D02*
X83011904Y-81752438D01*
X83011904Y-81752438D02*
X82964285Y-81800057D01*
X82964285Y-81800057D02*
X82916666Y-81895295D01*
X82916666Y-81895295D02*
X82916666Y-82038152D01*
X82916666Y-82038152D02*
X82964285Y-82133390D01*
X82964285Y-82133390D02*
X83011904Y-82181009D01*
X83011904Y-82181009D02*
X83107142Y-82228628D01*
X83107142Y-82228628D02*
X83488094Y-82228628D01*
X82583332Y-81704819D02*
X81916666Y-81704819D01*
X81916666Y-81704819D02*
X82345237Y-82704819D01*
X91954819Y-86011905D02*
X90954819Y-86011905D01*
X90954819Y-86011905D02*
X90954819Y-86250000D01*
X90954819Y-86250000D02*
X91002438Y-86392857D01*
X91002438Y-86392857D02*
X91097676Y-86488095D01*
X91097676Y-86488095D02*
X91192914Y-86535714D01*
X91192914Y-86535714D02*
X91383390Y-86583333D01*
X91383390Y-86583333D02*
X91526247Y-86583333D01*
X91526247Y-86583333D02*
X91716723Y-86535714D01*
X91716723Y-86535714D02*
X91811961Y-86488095D01*
X91811961Y-86488095D02*
X91907200Y-86392857D01*
X91907200Y-86392857D02*
X91954819Y-86250000D01*
X91954819Y-86250000D02*
X91954819Y-86011905D01*
X91954819Y-87535714D02*
X91954819Y-86964286D01*
X91954819Y-87250000D02*
X90954819Y-87250000D01*
X90954819Y-87250000D02*
X91097676Y-87154762D01*
X91097676Y-87154762D02*
X91192914Y-87059524D01*
X91192914Y-87059524D02*
X91240533Y-86964286D01*
X105416666Y-93704819D02*
X105749999Y-93228628D01*
X105988094Y-93704819D02*
X105988094Y-92704819D01*
X105988094Y-92704819D02*
X105607142Y-92704819D01*
X105607142Y-92704819D02*
X105511904Y-92752438D01*
X105511904Y-92752438D02*
X105464285Y-92800057D01*
X105464285Y-92800057D02*
X105416666Y-92895295D01*
X105416666Y-92895295D02*
X105416666Y-93038152D01*
X105416666Y-93038152D02*
X105464285Y-93133390D01*
X105464285Y-93133390D02*
X105511904Y-93181009D01*
X105511904Y-93181009D02*
X105607142Y-93228628D01*
X105607142Y-93228628D02*
X105988094Y-93228628D01*
X104940475Y-93704819D02*
X104749999Y-93704819D01*
X104749999Y-93704819D02*
X104654761Y-93657200D01*
X104654761Y-93657200D02*
X104607142Y-93609580D01*
X104607142Y-93609580D02*
X104511904Y-93466723D01*
X104511904Y-93466723D02*
X104464285Y-93276247D01*
X104464285Y-93276247D02*
X104464285Y-92895295D01*
X104464285Y-92895295D02*
X104511904Y-92800057D01*
X104511904Y-92800057D02*
X104559523Y-92752438D01*
X104559523Y-92752438D02*
X104654761Y-92704819D01*
X104654761Y-92704819D02*
X104845237Y-92704819D01*
X104845237Y-92704819D02*
X104940475Y-92752438D01*
X104940475Y-92752438D02*
X104988094Y-92800057D01*
X104988094Y-92800057D02*
X105035713Y-92895295D01*
X105035713Y-92895295D02*
X105035713Y-93133390D01*
X105035713Y-93133390D02*
X104988094Y-93228628D01*
X104988094Y-93228628D02*
X104940475Y-93276247D01*
X104940475Y-93276247D02*
X104845237Y-93323866D01*
X104845237Y-93323866D02*
X104654761Y-93323866D01*
X104654761Y-93323866D02*
X104559523Y-93276247D01*
X104559523Y-93276247D02*
X104511904Y-93228628D01*
X104511904Y-93228628D02*
X104464285Y-93133390D01*
X88109580Y-92083333D02*
X88157200Y-92035714D01*
X88157200Y-92035714D02*
X88204819Y-91892857D01*
X88204819Y-91892857D02*
X88204819Y-91797619D01*
X88204819Y-91797619D02*
X88157200Y-91654762D01*
X88157200Y-91654762D02*
X88061961Y-91559524D01*
X88061961Y-91559524D02*
X87966723Y-91511905D01*
X87966723Y-91511905D02*
X87776247Y-91464286D01*
X87776247Y-91464286D02*
X87633390Y-91464286D01*
X87633390Y-91464286D02*
X87442914Y-91511905D01*
X87442914Y-91511905D02*
X87347676Y-91559524D01*
X87347676Y-91559524D02*
X87252438Y-91654762D01*
X87252438Y-91654762D02*
X87204819Y-91797619D01*
X87204819Y-91797619D02*
X87204819Y-91892857D01*
X87204819Y-91892857D02*
X87252438Y-92035714D01*
X87252438Y-92035714D02*
X87300057Y-92083333D01*
X87633390Y-92654762D02*
X87585771Y-92559524D01*
X87585771Y-92559524D02*
X87538152Y-92511905D01*
X87538152Y-92511905D02*
X87442914Y-92464286D01*
X87442914Y-92464286D02*
X87395295Y-92464286D01*
X87395295Y-92464286D02*
X87300057Y-92511905D01*
X87300057Y-92511905D02*
X87252438Y-92559524D01*
X87252438Y-92559524D02*
X87204819Y-92654762D01*
X87204819Y-92654762D02*
X87204819Y-92845238D01*
X87204819Y-92845238D02*
X87252438Y-92940476D01*
X87252438Y-92940476D02*
X87300057Y-92988095D01*
X87300057Y-92988095D02*
X87395295Y-93035714D01*
X87395295Y-93035714D02*
X87442914Y-93035714D01*
X87442914Y-93035714D02*
X87538152Y-92988095D01*
X87538152Y-92988095D02*
X87585771Y-92940476D01*
X87585771Y-92940476D02*
X87633390Y-92845238D01*
X87633390Y-92845238D02*
X87633390Y-92654762D01*
X87633390Y-92654762D02*
X87681009Y-92559524D01*
X87681009Y-92559524D02*
X87728628Y-92511905D01*
X87728628Y-92511905D02*
X87823866Y-92464286D01*
X87823866Y-92464286D02*
X88014342Y-92464286D01*
X88014342Y-92464286D02*
X88109580Y-92511905D01*
X88109580Y-92511905D02*
X88157200Y-92559524D01*
X88157200Y-92559524D02*
X88204819Y-92654762D01*
X88204819Y-92654762D02*
X88204819Y-92845238D01*
X88204819Y-92845238D02*
X88157200Y-92940476D01*
X88157200Y-92940476D02*
X88109580Y-92988095D01*
X88109580Y-92988095D02*
X88014342Y-93035714D01*
X88014342Y-93035714D02*
X87823866Y-93035714D01*
X87823866Y-93035714D02*
X87728628Y-92988095D01*
X87728628Y-92988095D02*
X87681009Y-92940476D01*
X87681009Y-92940476D02*
X87633390Y-92845238D01*
X138392857Y-127854819D02*
X138726190Y-127378628D01*
X138964285Y-127854819D02*
X138964285Y-126854819D01*
X138964285Y-126854819D02*
X138583333Y-126854819D01*
X138583333Y-126854819D02*
X138488095Y-126902438D01*
X138488095Y-126902438D02*
X138440476Y-126950057D01*
X138440476Y-126950057D02*
X138392857Y-127045295D01*
X138392857Y-127045295D02*
X138392857Y-127188152D01*
X138392857Y-127188152D02*
X138440476Y-127283390D01*
X138440476Y-127283390D02*
X138488095Y-127331009D01*
X138488095Y-127331009D02*
X138583333Y-127378628D01*
X138583333Y-127378628D02*
X138964285Y-127378628D01*
X137440476Y-127854819D02*
X138011904Y-127854819D01*
X137726190Y-127854819D02*
X137726190Y-126854819D01*
X137726190Y-126854819D02*
X137821428Y-126997676D01*
X137821428Y-126997676D02*
X137916666Y-127092914D01*
X137916666Y-127092914D02*
X138011904Y-127140533D01*
X136869047Y-127283390D02*
X136964285Y-127235771D01*
X136964285Y-127235771D02*
X137011904Y-127188152D01*
X137011904Y-127188152D02*
X137059523Y-127092914D01*
X137059523Y-127092914D02*
X137059523Y-127045295D01*
X137059523Y-127045295D02*
X137011904Y-126950057D01*
X137011904Y-126950057D02*
X136964285Y-126902438D01*
X136964285Y-126902438D02*
X136869047Y-126854819D01*
X136869047Y-126854819D02*
X136678571Y-126854819D01*
X136678571Y-126854819D02*
X136583333Y-126902438D01*
X136583333Y-126902438D02*
X136535714Y-126950057D01*
X136535714Y-126950057D02*
X136488095Y-127045295D01*
X136488095Y-127045295D02*
X136488095Y-127092914D01*
X136488095Y-127092914D02*
X136535714Y-127188152D01*
X136535714Y-127188152D02*
X136583333Y-127235771D01*
X136583333Y-127235771D02*
X136678571Y-127283390D01*
X136678571Y-127283390D02*
X136869047Y-127283390D01*
X136869047Y-127283390D02*
X136964285Y-127331009D01*
X136964285Y-127331009D02*
X137011904Y-127378628D01*
X137011904Y-127378628D02*
X137059523Y-127473866D01*
X137059523Y-127473866D02*
X137059523Y-127664342D01*
X137059523Y-127664342D02*
X137011904Y-127759580D01*
X137011904Y-127759580D02*
X136964285Y-127807200D01*
X136964285Y-127807200D02*
X136869047Y-127854819D01*
X136869047Y-127854819D02*
X136678571Y-127854819D01*
X136678571Y-127854819D02*
X136583333Y-127807200D01*
X136583333Y-127807200D02*
X136535714Y-127759580D01*
X136535714Y-127759580D02*
X136488095Y-127664342D01*
X136488095Y-127664342D02*
X136488095Y-127473866D01*
X136488095Y-127473866D02*
X136535714Y-127378628D01*
X136535714Y-127378628D02*
X136583333Y-127331009D01*
X136583333Y-127331009D02*
X136678571Y-127283390D01*
X105666666Y-80454819D02*
X106142856Y-80454819D01*
X106142856Y-80454819D02*
X106142856Y-79454819D01*
X104809523Y-80454819D02*
X105380951Y-80454819D01*
X105095237Y-80454819D02*
X105095237Y-79454819D01*
X105095237Y-79454819D02*
X105190475Y-79597676D01*
X105190475Y-79597676D02*
X105285713Y-79692914D01*
X105285713Y-79692914D02*
X105380951Y-79740533D01*
X96416666Y-104954819D02*
X96892856Y-104954819D01*
X96892856Y-104954819D02*
X96892856Y-103954819D01*
X96130951Y-104050057D02*
X96083332Y-104002438D01*
X96083332Y-104002438D02*
X95988094Y-103954819D01*
X95988094Y-103954819D02*
X95749999Y-103954819D01*
X95749999Y-103954819D02*
X95654761Y-104002438D01*
X95654761Y-104002438D02*
X95607142Y-104050057D01*
X95607142Y-104050057D02*
X95559523Y-104145295D01*
X95559523Y-104145295D02*
X95559523Y-104240533D01*
X95559523Y-104240533D02*
X95607142Y-104383390D01*
X95607142Y-104383390D02*
X96178570Y-104954819D01*
X96178570Y-104954819D02*
X95559523Y-104954819D01*
X118204819Y-91583333D02*
X117728628Y-91250000D01*
X118204819Y-91011905D02*
X117204819Y-91011905D01*
X117204819Y-91011905D02*
X117204819Y-91392857D01*
X117204819Y-91392857D02*
X117252438Y-91488095D01*
X117252438Y-91488095D02*
X117300057Y-91535714D01*
X117300057Y-91535714D02*
X117395295Y-91583333D01*
X117395295Y-91583333D02*
X117538152Y-91583333D01*
X117538152Y-91583333D02*
X117633390Y-91535714D01*
X117633390Y-91535714D02*
X117681009Y-91488095D01*
X117681009Y-91488095D02*
X117728628Y-91392857D01*
X117728628Y-91392857D02*
X117728628Y-91011905D01*
X117300057Y-91964286D02*
X117252438Y-92011905D01*
X117252438Y-92011905D02*
X117204819Y-92107143D01*
X117204819Y-92107143D02*
X117204819Y-92345238D01*
X117204819Y-92345238D02*
X117252438Y-92440476D01*
X117252438Y-92440476D02*
X117300057Y-92488095D01*
X117300057Y-92488095D02*
X117395295Y-92535714D01*
X117395295Y-92535714D02*
X117490533Y-92535714D01*
X117490533Y-92535714D02*
X117633390Y-92488095D01*
X117633390Y-92488095D02*
X118204819Y-91916667D01*
X118204819Y-91916667D02*
X118204819Y-92535714D01*
X83166666Y-93604819D02*
X83499999Y-93128628D01*
X83738094Y-93604819D02*
X83738094Y-92604819D01*
X83738094Y-92604819D02*
X83357142Y-92604819D01*
X83357142Y-92604819D02*
X83261904Y-92652438D01*
X83261904Y-92652438D02*
X83214285Y-92700057D01*
X83214285Y-92700057D02*
X83166666Y-92795295D01*
X83166666Y-92795295D02*
X83166666Y-92938152D01*
X83166666Y-92938152D02*
X83214285Y-93033390D01*
X83214285Y-93033390D02*
X83261904Y-93081009D01*
X83261904Y-93081009D02*
X83357142Y-93128628D01*
X83357142Y-93128628D02*
X83738094Y-93128628D01*
X82309523Y-92938152D02*
X82309523Y-93604819D01*
X82547618Y-92557200D02*
X82785713Y-93271485D01*
X82785713Y-93271485D02*
X82166666Y-93271485D01*
X114204819Y-98083333D02*
X113728628Y-97750000D01*
X114204819Y-97511905D02*
X113204819Y-97511905D01*
X113204819Y-97511905D02*
X113204819Y-97892857D01*
X113204819Y-97892857D02*
X113252438Y-97988095D01*
X113252438Y-97988095D02*
X113300057Y-98035714D01*
X113300057Y-98035714D02*
X113395295Y-98083333D01*
X113395295Y-98083333D02*
X113538152Y-98083333D01*
X113538152Y-98083333D02*
X113633390Y-98035714D01*
X113633390Y-98035714D02*
X113681009Y-97988095D01*
X113681009Y-97988095D02*
X113728628Y-97892857D01*
X113728628Y-97892857D02*
X113728628Y-97511905D01*
X114204819Y-99035714D02*
X114204819Y-98464286D01*
X114204819Y-98750000D02*
X113204819Y-98750000D01*
X113204819Y-98750000D02*
X113347676Y-98654762D01*
X113347676Y-98654762D02*
X113442914Y-98559524D01*
X113442914Y-98559524D02*
X113490533Y-98464286D01*
X179666666Y-100359580D02*
X179714285Y-100407200D01*
X179714285Y-100407200D02*
X179857142Y-100454819D01*
X179857142Y-100454819D02*
X179952380Y-100454819D01*
X179952380Y-100454819D02*
X180095237Y-100407200D01*
X180095237Y-100407200D02*
X180190475Y-100311961D01*
X180190475Y-100311961D02*
X180238094Y-100216723D01*
X180238094Y-100216723D02*
X180285713Y-100026247D01*
X180285713Y-100026247D02*
X180285713Y-99883390D01*
X180285713Y-99883390D02*
X180238094Y-99692914D01*
X180238094Y-99692914D02*
X180190475Y-99597676D01*
X180190475Y-99597676D02*
X180095237Y-99502438D01*
X180095237Y-99502438D02*
X179952380Y-99454819D01*
X179952380Y-99454819D02*
X179857142Y-99454819D01*
X179857142Y-99454819D02*
X179714285Y-99502438D01*
X179714285Y-99502438D02*
X179666666Y-99550057D01*
X179333332Y-99454819D02*
X178666666Y-99454819D01*
X178666666Y-99454819D02*
X179095237Y-100454819D01*
X118109580Y-95333333D02*
X118157200Y-95285714D01*
X118157200Y-95285714D02*
X118204819Y-95142857D01*
X118204819Y-95142857D02*
X118204819Y-95047619D01*
X118204819Y-95047619D02*
X118157200Y-94904762D01*
X118157200Y-94904762D02*
X118061961Y-94809524D01*
X118061961Y-94809524D02*
X117966723Y-94761905D01*
X117966723Y-94761905D02*
X117776247Y-94714286D01*
X117776247Y-94714286D02*
X117633390Y-94714286D01*
X117633390Y-94714286D02*
X117442914Y-94761905D01*
X117442914Y-94761905D02*
X117347676Y-94809524D01*
X117347676Y-94809524D02*
X117252438Y-94904762D01*
X117252438Y-94904762D02*
X117204819Y-95047619D01*
X117204819Y-95047619D02*
X117204819Y-95142857D01*
X117204819Y-95142857D02*
X117252438Y-95285714D01*
X117252438Y-95285714D02*
X117300057Y-95333333D01*
X118204819Y-96285714D02*
X118204819Y-95714286D01*
X118204819Y-96000000D02*
X117204819Y-96000000D01*
X117204819Y-96000000D02*
X117347676Y-95904762D01*
X117347676Y-95904762D02*
X117442914Y-95809524D01*
X117442914Y-95809524D02*
X117490533Y-95714286D01*
X116011904Y-88704819D02*
X116011904Y-89514342D01*
X116011904Y-89514342D02*
X115964285Y-89609580D01*
X115964285Y-89609580D02*
X115916666Y-89657200D01*
X115916666Y-89657200D02*
X115821428Y-89704819D01*
X115821428Y-89704819D02*
X115630952Y-89704819D01*
X115630952Y-89704819D02*
X115535714Y-89657200D01*
X115535714Y-89657200D02*
X115488095Y-89609580D01*
X115488095Y-89609580D02*
X115440476Y-89514342D01*
X115440476Y-89514342D02*
X115440476Y-88704819D01*
X114440476Y-89704819D02*
X115011904Y-89704819D01*
X114726190Y-89704819D02*
X114726190Y-88704819D01*
X114726190Y-88704819D02*
X114821428Y-88847676D01*
X114821428Y-88847676D02*
X114916666Y-88942914D01*
X114916666Y-88942914D02*
X115011904Y-88990533D01*
X77333333Y-82704819D02*
X77333333Y-83419104D01*
X77333333Y-83419104D02*
X77380952Y-83561961D01*
X77380952Y-83561961D02*
X77476190Y-83657200D01*
X77476190Y-83657200D02*
X77619047Y-83704819D01*
X77619047Y-83704819D02*
X77714285Y-83704819D01*
X76333333Y-83704819D02*
X76904761Y-83704819D01*
X76619047Y-83704819D02*
X76619047Y-82704819D01*
X76619047Y-82704819D02*
X76714285Y-82847676D01*
X76714285Y-82847676D02*
X76809523Y-82942914D01*
X76809523Y-82942914D02*
X76904761Y-82990533D01*
X83988094Y-100454819D02*
X83988094Y-99454819D01*
X83988094Y-99454819D02*
X83749999Y-99454819D01*
X83749999Y-99454819D02*
X83607142Y-99502438D01*
X83607142Y-99502438D02*
X83511904Y-99597676D01*
X83511904Y-99597676D02*
X83464285Y-99692914D01*
X83464285Y-99692914D02*
X83416666Y-99883390D01*
X83416666Y-99883390D02*
X83416666Y-100026247D01*
X83416666Y-100026247D02*
X83464285Y-100216723D01*
X83464285Y-100216723D02*
X83511904Y-100311961D01*
X83511904Y-100311961D02*
X83607142Y-100407200D01*
X83607142Y-100407200D02*
X83749999Y-100454819D01*
X83749999Y-100454819D02*
X83988094Y-100454819D01*
X83035713Y-99550057D02*
X82988094Y-99502438D01*
X82988094Y-99502438D02*
X82892856Y-99454819D01*
X82892856Y-99454819D02*
X82654761Y-99454819D01*
X82654761Y-99454819D02*
X82559523Y-99502438D01*
X82559523Y-99502438D02*
X82511904Y-99550057D01*
X82511904Y-99550057D02*
X82464285Y-99645295D01*
X82464285Y-99645295D02*
X82464285Y-99740533D01*
X82464285Y-99740533D02*
X82511904Y-99883390D01*
X82511904Y-99883390D02*
X83083332Y-100454819D01*
X83083332Y-100454819D02*
X82464285Y-100454819D01*
X122083332Y-141657200D02*
X121940475Y-141704819D01*
X121940475Y-141704819D02*
X121702380Y-141704819D01*
X121702380Y-141704819D02*
X121607142Y-141657200D01*
X121607142Y-141657200D02*
X121559523Y-141609580D01*
X121559523Y-141609580D02*
X121511904Y-141514342D01*
X121511904Y-141514342D02*
X121511904Y-141419104D01*
X121511904Y-141419104D02*
X121559523Y-141323866D01*
X121559523Y-141323866D02*
X121607142Y-141276247D01*
X121607142Y-141276247D02*
X121702380Y-141228628D01*
X121702380Y-141228628D02*
X121892856Y-141181009D01*
X121892856Y-141181009D02*
X121988094Y-141133390D01*
X121988094Y-141133390D02*
X122035713Y-141085771D01*
X122035713Y-141085771D02*
X122083332Y-140990533D01*
X122083332Y-140990533D02*
X122083332Y-140895295D01*
X122083332Y-140895295D02*
X122035713Y-140800057D01*
X122035713Y-140800057D02*
X121988094Y-140752438D01*
X121988094Y-140752438D02*
X121892856Y-140704819D01*
X121892856Y-140704819D02*
X121654761Y-140704819D01*
X121654761Y-140704819D02*
X121511904Y-140752438D01*
X121178570Y-140704819D02*
X120940475Y-141704819D01*
X120940475Y-141704819D02*
X120749999Y-140990533D01*
X120749999Y-140990533D02*
X120559523Y-141704819D01*
X120559523Y-141704819D02*
X120321428Y-140704819D01*
X119511904Y-141038152D02*
X119511904Y-141704819D01*
X119749999Y-140657200D02*
X119988094Y-141371485D01*
X119988094Y-141371485D02*
X119369047Y-141371485D01*
X108251904Y-118804819D02*
X108251904Y-119614342D01*
X108251904Y-119614342D02*
X108204285Y-119709580D01*
X108204285Y-119709580D02*
X108156666Y-119757200D01*
X108156666Y-119757200D02*
X108061428Y-119804819D01*
X108061428Y-119804819D02*
X107870952Y-119804819D01*
X107870952Y-119804819D02*
X107775714Y-119757200D01*
X107775714Y-119757200D02*
X107728095Y-119709580D01*
X107728095Y-119709580D02*
X107680476Y-119614342D01*
X107680476Y-119614342D02*
X107680476Y-118804819D01*
X106775714Y-118804819D02*
X106966190Y-118804819D01*
X106966190Y-118804819D02*
X107061428Y-118852438D01*
X107061428Y-118852438D02*
X107109047Y-118900057D01*
X107109047Y-118900057D02*
X107204285Y-119042914D01*
X107204285Y-119042914D02*
X107251904Y-119233390D01*
X107251904Y-119233390D02*
X107251904Y-119614342D01*
X107251904Y-119614342D02*
X107204285Y-119709580D01*
X107204285Y-119709580D02*
X107156666Y-119757200D01*
X107156666Y-119757200D02*
X107061428Y-119804819D01*
X107061428Y-119804819D02*
X106870952Y-119804819D01*
X106870952Y-119804819D02*
X106775714Y-119757200D01*
X106775714Y-119757200D02*
X106728095Y-119709580D01*
X106728095Y-119709580D02*
X106680476Y-119614342D01*
X106680476Y-119614342D02*
X106680476Y-119376247D01*
X106680476Y-119376247D02*
X106728095Y-119281009D01*
X106728095Y-119281009D02*
X106775714Y-119233390D01*
X106775714Y-119233390D02*
X106870952Y-119185771D01*
X106870952Y-119185771D02*
X107061428Y-119185771D01*
X107061428Y-119185771D02*
X107156666Y-119233390D01*
X107156666Y-119233390D02*
X107204285Y-119281009D01*
X107204285Y-119281009D02*
X107251904Y-119376247D01*
%TO.C,Q6*%
D12*
X126475000Y-112975000D02*
X126475000Y-116025000D01*
X126725000Y-112975000D02*
X126475000Y-112975000D01*
X126725000Y-116025000D02*
X126475000Y-116025000D01*
X129575000Y-112975000D02*
X129325000Y-112975000D01*
X129575000Y-116025000D02*
X129325000Y-116025000D01*
X129575000Y-116025000D02*
X129575000Y-112975000D01*
D11*
X129900000Y-116500000D02*
G75*
G02*
X129600000Y-116500000I-150000J0D01*
G01*
X129600000Y-116500000D02*
G75*
G02*
X129900000Y-116500000I150000J0D01*
G01*
%TO.C,C5*%
D13*
X108261252Y-94765000D02*
X107738748Y-94765000D01*
X108261252Y-96235000D02*
X107738748Y-96235000D01*
%TO.C,Q4*%
D12*
X140225000Y-120975000D02*
X140225000Y-120725000D01*
X140225000Y-123825000D02*
X140225000Y-123575000D01*
X140225000Y-123825000D02*
X143275000Y-123825000D01*
X143275000Y-120725000D02*
X140225000Y-120725000D01*
X143275000Y-120975000D02*
X143275000Y-120725000D01*
X143275000Y-123825000D02*
X143275000Y-123575000D01*
D11*
X139900000Y-124000000D02*
G75*
G02*
X139600000Y-124000000I-150000J0D01*
G01*
X139600000Y-124000000D02*
G75*
G02*
X139900000Y-124000000I150000J0D01*
G01*
%TO.C,Q3*%
D12*
X128175000Y-134475000D02*
X128175000Y-137525000D01*
X128175000Y-134475000D02*
X128425000Y-134475000D01*
X128175000Y-137525000D02*
X128425000Y-137525000D01*
X131025000Y-134475000D02*
X131275000Y-134475000D01*
X131025000Y-137525000D02*
X131275000Y-137525000D01*
X131275000Y-137525000D02*
X131275000Y-134475000D01*
D11*
X128150000Y-134000000D02*
G75*
G02*
X127850000Y-134000000I-150000J0D01*
G01*
X127850000Y-134000000D02*
G75*
G02*
X128150000Y-134000000I150000J0D01*
G01*
%TO.C,C36*%
D13*
X120015000Y-146488748D02*
X120015000Y-147011252D01*
X121485000Y-146488748D02*
X121485000Y-147011252D01*
%TO.C,Q7*%
D12*
X130725000Y-112975000D02*
X130725000Y-116025000D01*
X130975000Y-112975000D02*
X130725000Y-112975000D01*
X130975000Y-116025000D02*
X130725000Y-116025000D01*
X133825000Y-112975000D02*
X133575000Y-112975000D01*
X133825000Y-116025000D02*
X133575000Y-116025000D01*
X133825000Y-116025000D02*
X133825000Y-112975000D01*
D11*
X134150000Y-116500000D02*
G75*
G02*
X133850000Y-116500000I-150000J0D01*
G01*
X133850000Y-116500000D02*
G75*
G02*
X134150000Y-116500000I150000J0D01*
G01*
%TO.C,R22*%
D13*
X121977064Y-143015000D02*
X121522936Y-143015000D01*
X121977064Y-144485000D02*
X121522936Y-144485000D01*
%TO.C,C9*%
X169761252Y-101015000D02*
X169238748Y-101015000D01*
X169761252Y-102485000D02*
X169238748Y-102485000D01*
%TO.C,R19*%
X126265000Y-118727064D02*
X126265000Y-118272936D01*
X127735000Y-118727064D02*
X127735000Y-118272936D01*
%TO.C,Q1*%
D12*
X84475000Y-83225000D02*
X84475000Y-82975000D01*
X84475000Y-86075000D02*
X84475000Y-85825000D01*
X84475000Y-86075000D02*
X87525000Y-86075000D01*
X87525000Y-82975000D02*
X84475000Y-82975000D01*
X87525000Y-83225000D02*
X87525000Y-82975000D01*
X87525000Y-86075000D02*
X87525000Y-85825000D01*
D11*
X84150000Y-86250000D02*
G75*
G02*
X83850000Y-86250000I-150000J0D01*
G01*
X83850000Y-86250000D02*
G75*
G02*
X84150000Y-86250000I150000J0D01*
G01*
%TO.C,R17*%
D13*
X137522936Y-120515000D02*
X137977064Y-120515000D01*
X137522936Y-121985000D02*
X137977064Y-121985000D01*
%TO.C,SW2*%
X111750000Y-147000000D02*
X111750000Y-142500000D01*
X114250000Y-141250000D02*
X115750000Y-141250000D01*
X115750000Y-148250000D02*
X114250000Y-148250000D01*
X118250000Y-142500000D02*
X118250000Y-147000000D01*
%TO.C,M1B1*%
X150250000Y-124250000D02*
G75*
G02*
X144250000Y-124250000I-3000000J0D01*
G01*
X144250000Y-124250000D02*
G75*
G02*
X150250000Y-124250000I3000000J0D01*
G01*
%TO.C,C3*%
X107738748Y-90265000D02*
X108261252Y-90265000D01*
X107738748Y-91735000D02*
X108261252Y-91735000D01*
%TO.C,C16*%
X122538748Y-92890000D02*
X123961252Y-92890000D01*
X122538748Y-95610000D02*
X123961252Y-95610000D01*
%TO.C,D5*%
X119250000Y-112410000D02*
X119250000Y-103900000D01*
X119250000Y-112410000D02*
X125750000Y-112410000D01*
X125750000Y-112410000D02*
X125750000Y-103900000D01*
%TO.C,R6*%
X89272936Y-88515000D02*
X89727064Y-88515000D01*
X89272936Y-89985000D02*
X89727064Y-89985000D01*
%TO.C,U3*%
X96452500Y-93890000D02*
X96452500Y-93940000D01*
X96452500Y-96960000D02*
X96452500Y-97010000D01*
X96452500Y-97010000D02*
X98272500Y-97010000D01*
X98272500Y-93890000D02*
X96452500Y-93890000D01*
X98272500Y-93940000D02*
X98272500Y-93890000D01*
X98272500Y-97010000D02*
X98272500Y-96960000D01*
X96152500Y-97290000D02*
X95672500Y-97290000D01*
X95912500Y-96960000D01*
X96152500Y-97290000D01*
G36*
X96152500Y-97290000D02*
G01*
X95672500Y-97290000D01*
X95912500Y-96960000D01*
X96152500Y-97290000D01*
G37*
%TO.C,SW1*%
X94000000Y-117250000D02*
X94000000Y-112750000D01*
X96500000Y-111500000D02*
X98000000Y-111500000D01*
X98000000Y-118500000D02*
X96500000Y-118500000D01*
X100500000Y-112750000D02*
X100500000Y-117250000D01*
%TO.C,R3*%
X110765000Y-95272936D02*
X110765000Y-95727064D01*
X112235000Y-95272936D02*
X112235000Y-95727064D01*
%TO.C,Q5*%
D12*
X140225000Y-125225000D02*
X140225000Y-124975000D01*
X140225000Y-128075000D02*
X140225000Y-127825000D01*
X140225000Y-128075000D02*
X143275000Y-128075000D01*
X143275000Y-124975000D02*
X140225000Y-124975000D01*
X143275000Y-125225000D02*
X143275000Y-124975000D01*
X143275000Y-128075000D02*
X143275000Y-127825000D01*
D11*
X139900000Y-128250000D02*
G75*
G02*
X139600000Y-128250000I-150000J0D01*
G01*
X139600000Y-128250000D02*
G75*
G02*
X139900000Y-128250000I150000J0D01*
G01*
%TO.C,C24*%
D13*
X90711252Y-100640000D02*
X89288748Y-100640000D01*
X90711252Y-103360000D02*
X89288748Y-103360000D01*
%TO.C,U5*%
X127690000Y-128635000D02*
X132310000Y-128635000D01*
X132310000Y-121865000D02*
X127690000Y-121865000D01*
X126140000Y-128180000D02*
X125810000Y-128420000D01*
X125810000Y-127940000D01*
X126140000Y-128180000D01*
G36*
X126140000Y-128180000D02*
G01*
X125810000Y-128420000D01*
X125810000Y-127940000D01*
X126140000Y-128180000D01*
G37*
%TO.C,C26*%
X137488748Y-122765000D02*
X138011252Y-122765000D01*
X137488748Y-124235000D02*
X138011252Y-124235000D01*
%TO.C,C4*%
X108261252Y-97015000D02*
X107738748Y-97015000D01*
X108261252Y-98485000D02*
X107738748Y-98485000D01*
%TO.C,C25*%
X132015000Y-131738748D02*
X132015000Y-132261252D01*
X133485000Y-131738748D02*
X133485000Y-132261252D01*
%TO.C,C10*%
X92840000Y-94038748D02*
X92840000Y-95461252D01*
X94660000Y-94038748D02*
X94660000Y-95461252D01*
%TO.C,J3*%
D12*
X72500000Y-104400000D02*
X74080000Y-104400000D01*
X74080000Y-96600000D02*
X72500000Y-96600000D01*
X76580000Y-104400000D02*
X78180000Y-104400000D01*
X78180000Y-96600000D02*
X76580000Y-96600000D01*
X78180000Y-98750000D02*
X78180000Y-96600000D01*
X78180000Y-104400000D02*
X78180000Y-102250000D01*
%TO.C,C12*%
D13*
X118265000Y-83761252D02*
X118265000Y-83238748D01*
X119735000Y-83761252D02*
X119735000Y-83238748D01*
%TO.C,C15*%
X123961252Y-89140000D02*
X122538748Y-89140000D01*
X123961252Y-91860000D02*
X122538748Y-91860000D01*
%TO.C,C19*%
X122538748Y-96640000D02*
X123961252Y-96640000D01*
X122538748Y-99360000D02*
X123961252Y-99360000D01*
%TO.C,R11*%
X97765000Y-91977064D02*
X97765000Y-91522936D01*
X99235000Y-91977064D02*
X99235000Y-91522936D01*
%TO.C,C27*%
X128515000Y-118761252D02*
X128515000Y-118238748D01*
X129985000Y-118761252D02*
X129985000Y-118238748D01*
%TO.C,U2*%
X83640000Y-86890000D02*
X83640000Y-87115000D01*
X83640000Y-89885000D02*
X83640000Y-90110000D01*
X83640000Y-90110000D02*
X86860000Y-90110000D01*
X86860000Y-86890000D02*
X83640000Y-86890000D01*
X86860000Y-87115000D02*
X86860000Y-86890000D01*
X86860000Y-90110000D02*
X86860000Y-89885000D01*
X83130000Y-89500000D02*
X82800000Y-89740000D01*
X82800000Y-89260000D01*
X83130000Y-89500000D01*
G36*
X83130000Y-89500000D02*
G01*
X82800000Y-89740000D01*
X82800000Y-89260000D01*
X83130000Y-89500000D01*
G37*
%TO.C,J2*%
X109940000Y-139365000D02*
X109940000Y-138565000D01*
X110140000Y-137255000D02*
X110540000Y-137255000D01*
X110140000Y-138255000D02*
X110540000Y-138255000D01*
X110740000Y-139365000D02*
X109940000Y-139365000D01*
X111150000Y-139365000D02*
X111150000Y-139165000D01*
X111450000Y-139165000D02*
X111450000Y-139365000D01*
X111450000Y-139265000D02*
X111150000Y-139265000D01*
X111450000Y-139365000D02*
X111150000Y-139365000D01*
X112400000Y-135845000D02*
X112400000Y-136245000D01*
X112400000Y-136245000D02*
X112600000Y-136245000D01*
X112500000Y-135845000D02*
X112500000Y-136245000D01*
X112600000Y-136245000D02*
X112600000Y-135845000D01*
X113900000Y-135845000D02*
X113900000Y-136245000D01*
X113900000Y-136245000D02*
X114100000Y-136245000D01*
X114000000Y-135845000D02*
X114000000Y-136245000D01*
X114100000Y-136245000D02*
X114100000Y-135845000D01*
X115400000Y-135845000D02*
X115400000Y-136245000D01*
X115400000Y-136245000D02*
X115600000Y-136245000D01*
X115500000Y-135845000D02*
X115500000Y-136245000D01*
X115600000Y-136245000D02*
X115600000Y-135845000D01*
X116900000Y-135845000D02*
X116900000Y-136245000D01*
X116900000Y-136245000D02*
X117100000Y-136245000D01*
X117000000Y-135845000D02*
X117000000Y-136245000D01*
X117100000Y-136245000D02*
X117100000Y-135845000D01*
X118400000Y-135845000D02*
X118400000Y-136245000D01*
X118400000Y-136245000D02*
X118600000Y-136245000D01*
X118500000Y-135845000D02*
X118500000Y-136245000D01*
X118600000Y-136245000D02*
X118600000Y-135845000D01*
X120860000Y-137255000D02*
X120460000Y-137255000D01*
X120860000Y-138255000D02*
X120460000Y-138255000D01*
X110140000Y-135445000D02*
X120860000Y-135445000D01*
X120860000Y-139165000D01*
X110140000Y-139165000D01*
X110140000Y-135445000D01*
X110540000Y-135845000D02*
X120460000Y-135845000D01*
X120460000Y-138765000D01*
X110540000Y-138765000D01*
X110540000Y-135845000D01*
%TO.C,R16*%
X129765000Y-131772936D02*
X129765000Y-132227064D01*
X131235000Y-131772936D02*
X131235000Y-132227064D01*
%TO.C,C6*%
X97390000Y-85038748D02*
X97390000Y-86461252D01*
X100110000Y-85038748D02*
X100110000Y-86461252D01*
%TO.C,M1C1*%
X133000000Y-109000000D02*
G75*
G02*
X127000000Y-109000000I-3000000J0D01*
G01*
X127000000Y-109000000D02*
G75*
G02*
X133000000Y-109000000I3000000J0D01*
G01*
%TO.C,R5*%
X85814564Y-80765000D02*
X85360436Y-80765000D01*
X85814564Y-82235000D02*
X85360436Y-82235000D01*
%TO.C,C13*%
X100015000Y-98261252D02*
X100015000Y-97738748D01*
X101485000Y-98261252D02*
X101485000Y-97738748D01*
%TO.C,C21*%
X90711252Y-97140000D02*
X89288748Y-97140000D01*
X90711252Y-99860000D02*
X89288748Y-99860000D01*
%TO.C,R10*%
X101727064Y-93765000D02*
X101272936Y-93765000D01*
X101727064Y-95235000D02*
X101272936Y-95235000D01*
%TO.C,C35*%
X91265000Y-118261252D02*
X91265000Y-117738748D01*
X92735000Y-118261252D02*
X92735000Y-117738748D01*
%TO.C,C23*%
X109900000Y-118526000D02*
X109900000Y-119474000D01*
X109940000Y-118151000D02*
X109940000Y-119849000D01*
X109980000Y-117894000D02*
X109980000Y-120106000D01*
X110020000Y-117686000D02*
X110020000Y-120314000D01*
X110060000Y-117507000D02*
X110060000Y-120493000D01*
X110100000Y-117348000D02*
X110100000Y-120652000D01*
X110140000Y-117203000D02*
X110140000Y-120797000D01*
X110180000Y-117070000D02*
X110180000Y-120930000D01*
X110220000Y-116946000D02*
X110220000Y-121054000D01*
X110260000Y-116829000D02*
X110260000Y-121171000D01*
X110300000Y-116720000D02*
X110300000Y-121280000D01*
X110340000Y-116615000D02*
X110340000Y-121385000D01*
X110380000Y-116516000D02*
X110380000Y-121484000D01*
X110420000Y-116421000D02*
X110420000Y-121579000D01*
X110460000Y-116330000D02*
X110460000Y-121670000D01*
X110500000Y-116243000D02*
X110500000Y-121757000D01*
X110540000Y-116159000D02*
X110540000Y-121841000D01*
X110580000Y-116077000D02*
X110580000Y-121923000D01*
X110620000Y-115999000D02*
X110620000Y-122001000D01*
X110660000Y-115923000D02*
X110660000Y-122077000D01*
X110700000Y-115849000D02*
X110700000Y-122151000D01*
X110740000Y-115777000D02*
X110740000Y-122223000D01*
X110780000Y-115707000D02*
X110780000Y-122293000D01*
X110820000Y-115640000D02*
X110820000Y-122360000D01*
X110860000Y-115574000D02*
X110860000Y-122426000D01*
X110900000Y-115510000D02*
X110900000Y-122490000D01*
X110940000Y-115447000D02*
X110940000Y-122553000D01*
X110980000Y-115386000D02*
X110980000Y-122614000D01*
X111020000Y-115326000D02*
X111020000Y-122674000D01*
X111060000Y-115268000D02*
X111060000Y-122732000D01*
X111100000Y-115211000D02*
X111100000Y-122789000D01*
X111140000Y-115155000D02*
X111140000Y-122845000D01*
X111180000Y-115100000D02*
X111180000Y-122900000D01*
X111220000Y-115047000D02*
X111220000Y-122953000D01*
X111260000Y-114994000D02*
X111260000Y-123006000D01*
X111300000Y-114943000D02*
X111300000Y-123057000D01*
X111340000Y-114893000D02*
X111340000Y-123107000D01*
X111380000Y-114844000D02*
X111380000Y-123156000D01*
X111420000Y-114795000D02*
X111420000Y-123205000D01*
X111460000Y-114748000D02*
X111460000Y-123252000D01*
X111500000Y-114701000D02*
X111500000Y-123299000D01*
X111540000Y-114656000D02*
X111540000Y-123344000D01*
X111580000Y-114611000D02*
X111580000Y-123389000D01*
X111620000Y-114567000D02*
X111620000Y-123433000D01*
X111660000Y-114523000D02*
X111660000Y-123477000D01*
X111700000Y-114481000D02*
X111700000Y-123519000D01*
X111740000Y-114439000D02*
X111740000Y-123561000D01*
X111780000Y-114398000D02*
X111780000Y-123602000D01*
X111820000Y-114358000D02*
X111820000Y-123642000D01*
X111860000Y-114318000D02*
X111860000Y-123682000D01*
X111900000Y-114279000D02*
X111900000Y-123721000D01*
X111940000Y-114241000D02*
X111940000Y-123759000D01*
X111980000Y-114203000D02*
X111980000Y-123797000D01*
X112020000Y-114166000D02*
X112020000Y-123834000D01*
X112060000Y-114130000D02*
X112060000Y-123870000D01*
X112100000Y-114094000D02*
X112100000Y-123906000D01*
X112140000Y-114059000D02*
X112140000Y-123941000D01*
X112180000Y-114024000D02*
X112180000Y-123976000D01*
X112220000Y-113990000D02*
X112220000Y-124010000D01*
X112260000Y-113956000D02*
X112260000Y-124044000D01*
X112300000Y-113923000D02*
X112300000Y-124077000D01*
X112340000Y-113890000D02*
X112340000Y-124110000D01*
X112380000Y-113858000D02*
X112380000Y-124142000D01*
X112420000Y-113827000D02*
X112420000Y-124173000D01*
X112460000Y-113796000D02*
X112460000Y-124204000D01*
X112500000Y-113765000D02*
X112500000Y-124235000D01*
X112540000Y-113735000D02*
X112540000Y-124265000D01*
X112580000Y-113705000D02*
X112580000Y-117560000D01*
X112580000Y-120440000D02*
X112580000Y-124295000D01*
X112620000Y-113676000D02*
X112620000Y-117560000D01*
X112620000Y-120440000D02*
X112620000Y-124324000D01*
X112660000Y-113648000D02*
X112660000Y-117560000D01*
X112660000Y-120440000D02*
X112660000Y-124352000D01*
X112700000Y-113619000D02*
X112700000Y-117560000D01*
X112700000Y-120440000D02*
X112700000Y-124381000D01*
X112740000Y-113591000D02*
X112740000Y-117560000D01*
X112740000Y-120440000D02*
X112740000Y-124409000D01*
X112780000Y-113564000D02*
X112780000Y-117560000D01*
X112780000Y-120440000D02*
X112780000Y-124436000D01*
X112820000Y-113537000D02*
X112820000Y-117560000D01*
X112820000Y-120440000D02*
X112820000Y-124463000D01*
X112860000Y-113511000D02*
X112860000Y-117560000D01*
X112860000Y-120440000D02*
X112860000Y-124489000D01*
X112900000Y-113484000D02*
X112900000Y-117560000D01*
X112900000Y-120440000D02*
X112900000Y-124516000D01*
X112940000Y-113459000D02*
X112940000Y-117560000D01*
X112940000Y-120440000D02*
X112940000Y-124541000D01*
X112980000Y-113433000D02*
X112980000Y-117560000D01*
X112980000Y-120440000D02*
X112980000Y-124567000D01*
X113020000Y-113408000D02*
X113020000Y-117560000D01*
X113020000Y-120440000D02*
X113020000Y-124592000D01*
X113060000Y-113384000D02*
X113060000Y-117560000D01*
X113060000Y-120440000D02*
X113060000Y-124616000D01*
X113100000Y-113360000D02*
X113100000Y-117560000D01*
X113100000Y-120440000D02*
X113100000Y-124640000D01*
X113140000Y-113336000D02*
X113140000Y-117560000D01*
X113140000Y-120440000D02*
X113140000Y-124664000D01*
X113180000Y-113313000D02*
X113180000Y-117560000D01*
X113180000Y-120440000D02*
X113180000Y-124687000D01*
X113220000Y-113290000D02*
X113220000Y-117560000D01*
X113220000Y-120440000D02*
X113220000Y-124710000D01*
X113260000Y-113267000D02*
X113260000Y-117560000D01*
X113260000Y-120440000D02*
X113260000Y-124733000D01*
X113300000Y-113245000D02*
X113300000Y-117560000D01*
X113300000Y-120440000D02*
X113300000Y-124755000D01*
X113340000Y-113223000D02*
X113340000Y-117560000D01*
X113340000Y-120440000D02*
X113340000Y-124777000D01*
X113380000Y-113201000D02*
X113380000Y-117560000D01*
X113380000Y-120440000D02*
X113380000Y-124799000D01*
X113420000Y-113180000D02*
X113420000Y-117560000D01*
X113420000Y-120440000D02*
X113420000Y-124820000D01*
X113460000Y-113159000D02*
X113460000Y-117560000D01*
X113460000Y-120440000D02*
X113460000Y-124841000D01*
X113500000Y-113139000D02*
X113500000Y-117560000D01*
X113500000Y-120440000D02*
X113500000Y-124861000D01*
X113540000Y-113119000D02*
X113540000Y-117560000D01*
X113540000Y-120440000D02*
X113540000Y-124881000D01*
X113580000Y-113099000D02*
X113580000Y-117560000D01*
X113580000Y-120440000D02*
X113580000Y-124901000D01*
X113620000Y-113079000D02*
X113620000Y-117560000D01*
X113620000Y-120440000D02*
X113620000Y-124921000D01*
X113660000Y-113060000D02*
X113660000Y-117560000D01*
X113660000Y-120440000D02*
X113660000Y-124940000D01*
X113700000Y-113041000D02*
X113700000Y-117560000D01*
X113700000Y-120440000D02*
X113700000Y-124959000D01*
X113740000Y-113023000D02*
X113740000Y-117560000D01*
X113740000Y-120440000D02*
X113740000Y-124977000D01*
X113780000Y-113005000D02*
X113780000Y-117560000D01*
X113780000Y-120440000D02*
X113780000Y-124995000D01*
X113820000Y-112987000D02*
X113820000Y-117560000D01*
X113820000Y-120440000D02*
X113820000Y-125013000D01*
X113860000Y-112969000D02*
X113860000Y-117560000D01*
X113860000Y-120440000D02*
X113860000Y-125031000D01*
X113900000Y-112952000D02*
X113900000Y-117560000D01*
X113900000Y-120440000D02*
X113900000Y-125048000D01*
X113940000Y-112935000D02*
X113940000Y-117560000D01*
X113940000Y-120440000D02*
X113940000Y-125065000D01*
X113980000Y-112918000D02*
X113980000Y-117560000D01*
X113980000Y-120440000D02*
X113980000Y-125082000D01*
X114020000Y-112902000D02*
X114020000Y-117560000D01*
X114020000Y-120440000D02*
X114020000Y-125098000D01*
X114060000Y-112886000D02*
X114060000Y-117560000D01*
X114060000Y-120440000D02*
X114060000Y-125114000D01*
X114100000Y-112870000D02*
X114100000Y-117560000D01*
X114100000Y-120440000D02*
X114100000Y-125130000D01*
X114140000Y-112855000D02*
X114140000Y-117560000D01*
X114140000Y-120440000D02*
X114140000Y-125145000D01*
X114180000Y-112840000D02*
X114180000Y-117560000D01*
X114180000Y-120440000D02*
X114180000Y-125160000D01*
X114220000Y-112825000D02*
X114220000Y-117560000D01*
X114220000Y-120440000D02*
X114220000Y-125175000D01*
X114260000Y-112810000D02*
X114260000Y-117560000D01*
X114260000Y-120440000D02*
X114260000Y-125190000D01*
X114300000Y-112796000D02*
X114300000Y-117560000D01*
X114300000Y-120440000D02*
X114300000Y-125204000D01*
X114340000Y-112782000D02*
X114340000Y-117560000D01*
X114340000Y-120440000D02*
X114340000Y-125218000D01*
X114380000Y-112769000D02*
X114380000Y-117560000D01*
X114380000Y-120440000D02*
X114380000Y-125231000D01*
X114420000Y-112755000D02*
X114420000Y-117560000D01*
X114420000Y-120440000D02*
X114420000Y-125245000D01*
X114460000Y-112742000D02*
X114460000Y-117560000D01*
X114460000Y-120440000D02*
X114460000Y-125258000D01*
X114500000Y-112729000D02*
X114500000Y-117560000D01*
X114500000Y-120440000D02*
X114500000Y-125271000D01*
X114540000Y-112717000D02*
X114540000Y-117560000D01*
X114540000Y-120440000D02*
X114540000Y-125283000D01*
X114580000Y-112705000D02*
X114580000Y-117560000D01*
X114580000Y-120440000D02*
X114580000Y-125295000D01*
X114620000Y-112693000D02*
X114620000Y-117560000D01*
X114620000Y-120440000D02*
X114620000Y-125307000D01*
X114660000Y-112681000D02*
X114660000Y-117560000D01*
X114660000Y-120440000D02*
X114660000Y-125319000D01*
X114700000Y-112669000D02*
X114700000Y-117560000D01*
X114700000Y-120440000D02*
X114700000Y-125331000D01*
X114740000Y-112658000D02*
X114740000Y-117560000D01*
X114740000Y-120440000D02*
X114740000Y-125342000D01*
X114780000Y-112647000D02*
X114780000Y-117560000D01*
X114780000Y-120440000D02*
X114780000Y-125353000D01*
X114820000Y-112637000D02*
X114820000Y-117560000D01*
X114820000Y-120440000D02*
X114820000Y-125363000D01*
X114860000Y-112626000D02*
X114860000Y-117560000D01*
X114860000Y-120440000D02*
X114860000Y-125374000D01*
X114900000Y-112616000D02*
X114900000Y-117560000D01*
X114900000Y-120440000D02*
X114900000Y-125384000D01*
X114940000Y-112606000D02*
X114940000Y-117560000D01*
X114940000Y-120440000D02*
X114940000Y-125394000D01*
X114980000Y-112597000D02*
X114980000Y-117560000D01*
X114980000Y-120440000D02*
X114980000Y-125403000D01*
X115020000Y-112588000D02*
X115020000Y-117560000D01*
X115020000Y-120440000D02*
X115020000Y-125412000D01*
X115060000Y-112579000D02*
X115060000Y-117560000D01*
X115060000Y-120440000D02*
X115060000Y-125421000D01*
X115100000Y-112570000D02*
X115100000Y-117560000D01*
X115100000Y-120440000D02*
X115100000Y-125430000D01*
X115140000Y-112561000D02*
X115140000Y-117560000D01*
X115140000Y-120440000D02*
X115140000Y-125439000D01*
X115180000Y-112553000D02*
X115180000Y-117560000D01*
X115180000Y-120440000D02*
X115180000Y-125447000D01*
X115220000Y-112545000D02*
X115220000Y-117560000D01*
X115220000Y-120440000D02*
X115220000Y-125455000D01*
X115260000Y-112537000D02*
X115260000Y-117560000D01*
X115260000Y-120440000D02*
X115260000Y-125463000D01*
X115300000Y-112530000D02*
X115300000Y-117560000D01*
X115300000Y-120440000D02*
X115300000Y-125470000D01*
X115340000Y-112522000D02*
X115340000Y-117560000D01*
X115340000Y-120440000D02*
X115340000Y-125478000D01*
X115380000Y-112515000D02*
X115380000Y-117560000D01*
X115380000Y-120440000D02*
X115380000Y-125485000D01*
X115420000Y-112509000D02*
X115420000Y-117560000D01*
X115420000Y-120440000D02*
X115420000Y-125491000D01*
X115460000Y-112502000D02*
X115460000Y-125498000D01*
X115500000Y-112496000D02*
X115500000Y-125504000D01*
X115540000Y-112490000D02*
X115540000Y-125510000D01*
X115580000Y-112484000D02*
X115580000Y-125516000D01*
X115620000Y-112479000D02*
X115620000Y-125521000D01*
X115660000Y-112474000D02*
X115660000Y-125526000D01*
X115700000Y-112469000D02*
X115700000Y-125531000D01*
X115740000Y-112464000D02*
X115740000Y-125536000D01*
X115780000Y-112459000D02*
X115780000Y-125541000D01*
X115820000Y-112455000D02*
X115820000Y-125545000D01*
X115860000Y-112451000D02*
X115860000Y-125549000D01*
X115900000Y-112447000D02*
X115900000Y-125553000D01*
X115940000Y-112444000D02*
X115940000Y-125556000D01*
X115980000Y-112440000D02*
X115980000Y-125560000D01*
X116020000Y-112437000D02*
X116020000Y-125563000D01*
X116060000Y-112435000D02*
X116060000Y-125565000D01*
X116100000Y-112432000D02*
X116100000Y-125568000D01*
X116140000Y-112430000D02*
X116140000Y-125570000D01*
X116180000Y-112428000D02*
X116180000Y-125572000D01*
X116220000Y-112426000D02*
X116220000Y-125574000D01*
X116260000Y-112424000D02*
X116260000Y-125576000D01*
X116300000Y-112423000D02*
X116300000Y-125577000D01*
X116340000Y-112422000D02*
X116340000Y-125578000D01*
X116380000Y-112421000D02*
X116380000Y-125579000D01*
X116420000Y-112420000D02*
X116420000Y-125580000D01*
X116460000Y-112420000D02*
X116460000Y-125580000D01*
X116500000Y-112420000D02*
X116500000Y-125580000D01*
X122934569Y-114635000D02*
X122934569Y-115935000D01*
X123584569Y-115285000D02*
X122284569Y-115285000D01*
X123120000Y-119000000D02*
G75*
G02*
X109880000Y-119000000I-6620000J0D01*
G01*
X109880000Y-119000000D02*
G75*
G02*
X123120000Y-119000000I6620000J0D01*
G01*
%TO.C,R20*%
X130765000Y-118727064D02*
X130765000Y-118272936D01*
X132235000Y-118727064D02*
X132235000Y-118272936D01*
%TO.C,M1A1*%
X134750000Y-141500000D02*
G75*
G02*
X128750000Y-141500000I-3000000J0D01*
G01*
X128750000Y-141500000D02*
G75*
G02*
X134750000Y-141500000I3000000J0D01*
G01*
%TO.C,D4*%
X113850000Y-109510000D02*
X113850000Y-104000000D01*
X117150000Y-109510000D02*
X113850000Y-109510000D01*
X117150000Y-109510000D02*
X117150000Y-104000000D01*
%TO.C,R15*%
X134265000Y-131772936D02*
X134265000Y-132227064D01*
X135735000Y-131772936D02*
X135735000Y-132227064D01*
D14*
%TO.C,G\u002A\u002A\u002A*%
G36*
X168500363Y-91750363D02*
G01*
X162500000Y-91750363D01*
X156499637Y-91750363D01*
X156499637Y-85750000D01*
X156499637Y-80141968D01*
X156891968Y-80141968D01*
X156891968Y-85750000D01*
X156891968Y-91358032D01*
X162500000Y-91358032D01*
X168108032Y-91358032D01*
X168108032Y-85750000D01*
X168108032Y-80141968D01*
X162500000Y-80141968D01*
X156891968Y-80141968D01*
X156499637Y-80141968D01*
X156499637Y-79749637D01*
X162500000Y-79749637D01*
X168500363Y-79749637D01*
X168500363Y-85750000D01*
X168500363Y-91750363D01*
G37*
G36*
X162227676Y-90065646D02*
G01*
X162227676Y-90176422D01*
X162182367Y-90176422D01*
X162154299Y-90175652D01*
X162113564Y-90171236D01*
X162079236Y-90163081D01*
X162052075Y-90151390D01*
X162032840Y-90136365D01*
X162030301Y-90133337D01*
X162019099Y-90112838D01*
X162012364Y-90087430D01*
X162010348Y-90059920D01*
X162013303Y-90033117D01*
X162021480Y-90009830D01*
X162023721Y-90005910D01*
X162040224Y-89987447D01*
X162064450Y-89973165D01*
X162096550Y-89963015D01*
X162136676Y-89956945D01*
X162184981Y-89954905D01*
X162227676Y-89954870D01*
X162227676Y-90065646D01*
G37*
G36*
X158021160Y-81035099D02*
G01*
X158024734Y-81040925D01*
X158032133Y-81052752D01*
X158040005Y-81064932D01*
X158048970Y-81078354D01*
X158059648Y-81093906D01*
X158072660Y-81112477D01*
X158088624Y-81134955D01*
X158108162Y-81162231D01*
X158131893Y-81195192D01*
X158160437Y-81234726D01*
X158221308Y-81318962D01*
X158112825Y-81318962D01*
X158004343Y-81318962D01*
X158004343Y-81195036D01*
X158004269Y-81166133D01*
X158003996Y-81131622D01*
X158003551Y-81099509D01*
X158002963Y-81071502D01*
X158002264Y-81049311D01*
X158001483Y-81034641D01*
X157998624Y-80998174D01*
X158021160Y-81035099D01*
G37*
G36*
X164483805Y-89945899D02*
G01*
X164487288Y-89954762D01*
X164492336Y-89969797D01*
X164499182Y-89991683D01*
X164508061Y-90021099D01*
X164519204Y-90058722D01*
X164520622Y-90063536D01*
X164530919Y-90098293D01*
X164541728Y-90134500D01*
X164552274Y-90169579D01*
X164561783Y-90200952D01*
X164569479Y-90226040D01*
X164589855Y-90291813D01*
X164482593Y-90291813D01*
X164375332Y-90291813D01*
X164427726Y-90122433D01*
X164429764Y-90115839D01*
X164441343Y-90078199D01*
X164451976Y-90043335D01*
X164461362Y-90012255D01*
X164469201Y-89985964D01*
X164475192Y-89965468D01*
X164479036Y-89951772D01*
X164480432Y-89945884D01*
X164480604Y-89943973D01*
X164481655Y-89942529D01*
X164483805Y-89945899D01*
G37*
G36*
X159423694Y-89947643D02*
G01*
X159464612Y-89957183D01*
X159500571Y-89974421D01*
X159531369Y-89999182D01*
X159556800Y-90031291D01*
X159576663Y-90070573D01*
X159590753Y-90116852D01*
X159594510Y-90139285D01*
X159597346Y-90170962D01*
X159598600Y-90206383D01*
X159598301Y-90242977D01*
X159596478Y-90278171D01*
X159593158Y-90309391D01*
X159588369Y-90334066D01*
X159585246Y-90345048D01*
X159568500Y-90388769D01*
X159546850Y-90424754D01*
X159520160Y-90453153D01*
X159488297Y-90474118D01*
X159451124Y-90487802D01*
X159431181Y-90491429D01*
X159399827Y-90493446D01*
X159366698Y-90492286D01*
X159335331Y-90488116D01*
X159309263Y-90481102D01*
X159308234Y-90480708D01*
X159281652Y-90466566D01*
X159255720Y-90446043D01*
X159233146Y-90421631D01*
X159216640Y-90395826D01*
X159207998Y-90375858D01*
X159195505Y-90334841D01*
X159187269Y-90289558D01*
X159183249Y-90241808D01*
X159183406Y-90193392D01*
X159187697Y-90146110D01*
X159196081Y-90101761D01*
X159208519Y-90062146D01*
X159224970Y-90029064D01*
X159243140Y-90005100D01*
X159272421Y-89979479D01*
X159307300Y-89960854D01*
X159347252Y-89949486D01*
X159391753Y-89945639D01*
X159423694Y-89947643D01*
G37*
G36*
X160457603Y-89947643D02*
G01*
X160498521Y-89957183D01*
X160534480Y-89974421D01*
X160565277Y-89999182D01*
X160590709Y-90031291D01*
X160610572Y-90070573D01*
X160624662Y-90116852D01*
X160628419Y-90139285D01*
X160631255Y-90170962D01*
X160632509Y-90206383D01*
X160632210Y-90242977D01*
X160630387Y-90278171D01*
X160627067Y-90309391D01*
X160622278Y-90334066D01*
X160619155Y-90345048D01*
X160602408Y-90388769D01*
X160580758Y-90424754D01*
X160554069Y-90453153D01*
X160522206Y-90474118D01*
X160485033Y-90487802D01*
X160465090Y-90491429D01*
X160433736Y-90493446D01*
X160400607Y-90492286D01*
X160369240Y-90488116D01*
X160343171Y-90481102D01*
X160342143Y-90480708D01*
X160315561Y-90466566D01*
X160289629Y-90446043D01*
X160267055Y-90421631D01*
X160250549Y-90395826D01*
X160241907Y-90375858D01*
X160229414Y-90334841D01*
X160221178Y-90289558D01*
X160217158Y-90241808D01*
X160217314Y-90193392D01*
X160221605Y-90146110D01*
X160229990Y-90101761D01*
X160242428Y-90062146D01*
X160258878Y-90029064D01*
X160277049Y-90005100D01*
X160306329Y-89979479D01*
X160341208Y-89960854D01*
X160381161Y-89949486D01*
X160425662Y-89945639D01*
X160457603Y-89947643D01*
G37*
G36*
X159751543Y-80934711D02*
G01*
X159776063Y-80943858D01*
X159796582Y-80959970D01*
X159813491Y-80983531D01*
X159827185Y-81015027D01*
X159838057Y-81054944D01*
X159840454Y-81066620D01*
X159843135Y-81082500D01*
X159845104Y-81099231D01*
X159846468Y-81118490D01*
X159847338Y-81141952D01*
X159847821Y-81171292D01*
X159848027Y-81208186D01*
X159848035Y-81211875D01*
X159847850Y-81254739D01*
X159847016Y-81290160D01*
X159845366Y-81319788D01*
X159842734Y-81345269D01*
X159838953Y-81368253D01*
X159833856Y-81390388D01*
X159827275Y-81413323D01*
X159826900Y-81414516D01*
X159815656Y-81439962D01*
X159799960Y-81462210D01*
X159781534Y-81479258D01*
X159762099Y-81489105D01*
X159735886Y-81493847D01*
X159706028Y-81491734D01*
X159679186Y-81481323D01*
X159656045Y-81463031D01*
X159637290Y-81437279D01*
X159623607Y-81404484D01*
X159616337Y-81375011D01*
X159609593Y-81332819D01*
X159605135Y-81285479D01*
X159602995Y-81235077D01*
X159603205Y-81183701D01*
X159605795Y-81133436D01*
X159610797Y-81086370D01*
X159618241Y-81044590D01*
X159625298Y-81018802D01*
X159639773Y-80985161D01*
X159658418Y-80959709D01*
X159681204Y-80942470D01*
X159708105Y-80933470D01*
X159739092Y-80932737D01*
X159751543Y-80934711D01*
G37*
G36*
X167969562Y-85750000D02*
G01*
X167969562Y-85805388D01*
X167969562Y-89817450D01*
X167969562Y-91219562D01*
X162500000Y-91219562D01*
X157030438Y-91219562D01*
X157030438Y-90227090D01*
X159001442Y-90227090D01*
X159002385Y-90266264D01*
X159004722Y-90302057D01*
X159008450Y-90331596D01*
X159014339Y-90360511D01*
X159031961Y-90418185D01*
X159056225Y-90469856D01*
X159086899Y-90515257D01*
X159123749Y-90554123D01*
X159166544Y-90586190D01*
X159215050Y-90611192D01*
X159269035Y-90628864D01*
X159284026Y-90631928D01*
X159312604Y-90635863D01*
X159345656Y-90638790D01*
X159380471Y-90640585D01*
X159414336Y-90641125D01*
X159444539Y-90640286D01*
X159468367Y-90637945D01*
X159511228Y-90629545D01*
X159557781Y-90615478D01*
X159598751Y-90596598D01*
X159635802Y-90572110D01*
X159670598Y-90541217D01*
X159684268Y-90526891D01*
X159701174Y-90507645D01*
X159715579Y-90489611D01*
X159725364Y-90475338D01*
X159739071Y-90448292D01*
X159753350Y-90411813D01*
X159765478Y-90371738D01*
X159774443Y-90331047D01*
X159776425Y-90317896D01*
X159779511Y-90285528D01*
X159781258Y-90248340D01*
X159781476Y-90227090D01*
X160035350Y-90227090D01*
X160036294Y-90266264D01*
X160038631Y-90302057D01*
X160042358Y-90331596D01*
X160048247Y-90360511D01*
X160065870Y-90418185D01*
X160090134Y-90469856D01*
X160120808Y-90515257D01*
X160157658Y-90554123D01*
X160200452Y-90586190D01*
X160248959Y-90611192D01*
X160302944Y-90628864D01*
X160317934Y-90631928D01*
X160346512Y-90635863D01*
X160379565Y-90638790D01*
X160414380Y-90640585D01*
X160448245Y-90641125D01*
X160478448Y-90640286D01*
X160502276Y-90637945D01*
X160524615Y-90633567D01*
X164086739Y-90633567D01*
X164180593Y-90632316D01*
X164274446Y-90631065D01*
X164293782Y-90568753D01*
X164294563Y-90566237D01*
X164302700Y-90539910D01*
X164310775Y-90513634D01*
X164317894Y-90490329D01*
X164323160Y-90472916D01*
X164333202Y-90439390D01*
X164483694Y-90440606D01*
X164634186Y-90441823D01*
X164656500Y-90513365D01*
X164660635Y-90526646D01*
X164668734Y-90552774D01*
X164676105Y-90576701D01*
X164682071Y-90596224D01*
X164685954Y-90609140D01*
X164693096Y-90633373D01*
X164787389Y-90633373D01*
X164794797Y-90633369D01*
X164822422Y-90633290D01*
X164846275Y-90633118D01*
X164864990Y-90632871D01*
X164877203Y-90632566D01*
X164881549Y-90632219D01*
X164881421Y-90631824D01*
X164879071Y-90625044D01*
X164873924Y-90610331D01*
X164866193Y-90588287D01*
X164856087Y-90559514D01*
X164843821Y-90524613D01*
X164829604Y-90484189D01*
X164813650Y-90438841D01*
X164796169Y-90389173D01*
X164777373Y-90335788D01*
X164757475Y-90279286D01*
X164736686Y-90220271D01*
X164592770Y-89811784D01*
X164952096Y-89811784D01*
X164995954Y-89983718D01*
X165003663Y-90013940D01*
X165015468Y-90060231D01*
X165028725Y-90112228D01*
X165042966Y-90168089D01*
X165057721Y-90225974D01*
X165072522Y-90284041D01*
X165086897Y-90340449D01*
X165100379Y-90393358D01*
X165160946Y-90631065D01*
X165254067Y-90632219D01*
X165261329Y-90632309D01*
X165273935Y-90632453D01*
X165302002Y-90632679D01*
X165326138Y-90632742D01*
X165345018Y-90632647D01*
X165357318Y-90632398D01*
X165361712Y-90631998D01*
X165361764Y-90631731D01*
X165363350Y-90625306D01*
X165366988Y-90610979D01*
X165372458Y-90589605D01*
X165379540Y-90562036D01*
X165388016Y-90529128D01*
X165397665Y-90491732D01*
X165408268Y-90450703D01*
X165419606Y-90406894D01*
X165430268Y-90365443D01*
X165442326Y-90317914D01*
X165453960Y-90271405D01*
X165464848Y-90227232D01*
X165474669Y-90186713D01*
X165483100Y-90151167D01*
X165489820Y-90121911D01*
X165494506Y-90100263D01*
X165494713Y-90099253D01*
X165500094Y-90073847D01*
X165504914Y-90052647D01*
X165508868Y-90036865D01*
X165511653Y-90027716D01*
X165512967Y-90026413D01*
X165517545Y-90053391D01*
X165523688Y-90085467D01*
X165531345Y-90121968D01*
X165540687Y-90163637D01*
X165551884Y-90211215D01*
X165565108Y-90265444D01*
X165580530Y-90327065D01*
X165598319Y-90396820D01*
X165659098Y-90633373D01*
X165758548Y-90633373D01*
X165857999Y-90633373D01*
X165961435Y-90228348D01*
X165962039Y-90225983D01*
X165977219Y-90166569D01*
X165991763Y-90109686D01*
X166005508Y-90055975D01*
X166018289Y-90006077D01*
X166029941Y-89960634D01*
X166040299Y-89920288D01*
X166049199Y-89885679D01*
X166056477Y-89857450D01*
X166061966Y-89836241D01*
X166065503Y-89822694D01*
X166066923Y-89817450D01*
X166066489Y-89815803D01*
X166062112Y-89814175D01*
X166052490Y-89813118D01*
X166036629Y-89812579D01*
X166013534Y-89812502D01*
X165982209Y-89812835D01*
X165895442Y-89814092D01*
X165852489Y-89996411D01*
X165843315Y-90035383D01*
X165829135Y-90095795D01*
X165816834Y-90148477D01*
X165806238Y-90194219D01*
X165797171Y-90233808D01*
X165789460Y-90268034D01*
X165782929Y-90297684D01*
X165777402Y-90323546D01*
X165772706Y-90346411D01*
X165768664Y-90367065D01*
X165765103Y-90386298D01*
X165761847Y-90404897D01*
X165760168Y-90414726D01*
X165756300Y-90436873D01*
X165753539Y-90451103D01*
X165751580Y-90458295D01*
X165750120Y-90459329D01*
X165748853Y-90455083D01*
X165747477Y-90446438D01*
X165744153Y-90425264D01*
X165739250Y-90398045D01*
X165733060Y-90367283D01*
X165725404Y-90332218D01*
X165716107Y-90292086D01*
X165704991Y-90246125D01*
X165691877Y-90193573D01*
X165676590Y-90133668D01*
X165658952Y-90065646D01*
X165653616Y-90045197D01*
X165642009Y-90000766D01*
X165631153Y-89959268D01*
X165621274Y-89921559D01*
X165612596Y-89888497D01*
X165605345Y-89860938D01*
X165599746Y-89839742D01*
X165596023Y-89825764D01*
X165594403Y-89819862D01*
X165593622Y-89818086D01*
X165590896Y-89815656D01*
X165585330Y-89813940D01*
X165575646Y-89812815D01*
X165560565Y-89812162D01*
X165538810Y-89811859D01*
X165509102Y-89811784D01*
X165484616Y-89811857D01*
X165461305Y-89812084D01*
X165442848Y-89812437D01*
X165430704Y-89812887D01*
X165426331Y-89813406D01*
X165426085Y-89814493D01*
X165423946Y-89822986D01*
X165419786Y-89839200D01*
X165413820Y-89862307D01*
X165406261Y-89891480D01*
X165397326Y-89925889D01*
X165387227Y-89964709D01*
X165376180Y-90007110D01*
X165364400Y-90052266D01*
X165347570Y-90117118D01*
X165331938Y-90178296D01*
X165318534Y-90231930D01*
X165307200Y-90278705D01*
X165297776Y-90319308D01*
X165290103Y-90354427D01*
X165284022Y-90384749D01*
X165279374Y-90410959D01*
X165275999Y-90433745D01*
X165274807Y-90441205D01*
X165271684Y-90452726D01*
X165268413Y-90457800D01*
X165265810Y-90455597D01*
X165264690Y-90445284D01*
X165263879Y-90435548D01*
X165261013Y-90416841D01*
X165256053Y-90390066D01*
X165248972Y-90355096D01*
X165239743Y-90311806D01*
X165228339Y-90260073D01*
X165214735Y-90199769D01*
X165198902Y-90130771D01*
X165180815Y-90052953D01*
X165124463Y-89811784D01*
X165038280Y-89811784D01*
X164952096Y-89811784D01*
X164592770Y-89811784D01*
X164591957Y-89809477D01*
X164484223Y-89809477D01*
X164376488Y-89809477D01*
X164349540Y-89885635D01*
X164234399Y-90211039D01*
X164231661Y-90218780D01*
X164211045Y-90277077D01*
X164191307Y-90332948D01*
X164172666Y-90385766D01*
X164155343Y-90434903D01*
X164139559Y-90479731D01*
X164125534Y-90519624D01*
X164113490Y-90553953D01*
X164103646Y-90582091D01*
X164096223Y-90603411D01*
X164091443Y-90617285D01*
X164089525Y-90623085D01*
X164086739Y-90633567D01*
X160524615Y-90633567D01*
X160524661Y-90633558D01*
X161742464Y-90633558D01*
X161840470Y-90632311D01*
X161938476Y-90631065D01*
X162035765Y-90475404D01*
X162133055Y-90319744D01*
X162180365Y-90319626D01*
X162227676Y-90319507D01*
X162227676Y-90476440D01*
X162227676Y-90633373D01*
X162315373Y-90633373D01*
X162403071Y-90633373D01*
X162403071Y-90485671D01*
X162689242Y-90485671D01*
X162689242Y-90559522D01*
X162689242Y-90633373D01*
X162926949Y-90633373D01*
X163164656Y-90633373D01*
X163164656Y-90222579D01*
X163164656Y-89811784D01*
X163404670Y-89811784D01*
X163404670Y-89885635D01*
X163404670Y-89959486D01*
X163517754Y-89959486D01*
X163630838Y-89959486D01*
X163630838Y-90222579D01*
X163630838Y-90296429D01*
X163630838Y-90633373D01*
X163718535Y-90633373D01*
X163806233Y-90633373D01*
X163806233Y-90296429D01*
X163806233Y-89959486D01*
X163917009Y-89959486D01*
X164027785Y-89959486D01*
X164027785Y-89885635D01*
X164027785Y-89811784D01*
X163716228Y-89811784D01*
X163404670Y-89811784D01*
X163164656Y-89811784D01*
X162926949Y-89811784D01*
X162689242Y-89811784D01*
X162689242Y-89883327D01*
X162689242Y-89954870D01*
X162839251Y-89954870D01*
X162989260Y-89954870D01*
X162989260Y-90044875D01*
X162989260Y-90134881D01*
X162848483Y-90134881D01*
X162707705Y-90134881D01*
X162707705Y-90206424D01*
X162707705Y-90222579D01*
X162707705Y-90277967D01*
X162848483Y-90277967D01*
X162989260Y-90277967D01*
X162989260Y-90381819D01*
X162989260Y-90485671D01*
X162839251Y-90485671D01*
X162689242Y-90485671D01*
X162403071Y-90485671D01*
X162403071Y-90222579D01*
X162403071Y-89811784D01*
X162258711Y-89811784D01*
X162247376Y-89811799D01*
X162209738Y-89812048D01*
X162173624Y-89812574D01*
X162140575Y-89813336D01*
X162112134Y-89814293D01*
X162089841Y-89815406D01*
X162075238Y-89816632D01*
X162030011Y-89824083D01*
X161980276Y-89837855D01*
X161938071Y-89856733D01*
X161903191Y-89880903D01*
X161875428Y-89910549D01*
X161854576Y-89945857D01*
X161840430Y-89987011D01*
X161832783Y-90034198D01*
X161831732Y-90055724D01*
X161835726Y-90101146D01*
X161848392Y-90143424D01*
X161869695Y-90182455D01*
X161899598Y-90218139D01*
X161903892Y-90222292D01*
X161904222Y-90222579D01*
X161921916Y-90237988D01*
X161940604Y-90252098D01*
X161956534Y-90261988D01*
X161969295Y-90269268D01*
X161978456Y-90275984D01*
X161981279Y-90280274D01*
X161981124Y-90280586D01*
X161977342Y-90286635D01*
X161969107Y-90299212D01*
X161957053Y-90317376D01*
X161941814Y-90340185D01*
X161924026Y-90366698D01*
X161904322Y-90395974D01*
X161883336Y-90427071D01*
X161861704Y-90459048D01*
X161840059Y-90490963D01*
X161819036Y-90521875D01*
X161799269Y-90550842D01*
X161781392Y-90576923D01*
X161742464Y-90633558D01*
X160524661Y-90633558D01*
X160545137Y-90629545D01*
X160591690Y-90615478D01*
X160632660Y-90596598D01*
X160669711Y-90572110D01*
X160704507Y-90541217D01*
X160718177Y-90526891D01*
X160735083Y-90507645D01*
X160749488Y-90489611D01*
X160752189Y-90485671D01*
X161013756Y-90485671D01*
X161013756Y-90559522D01*
X161013756Y-90633373D01*
X161269926Y-90633373D01*
X161526095Y-90633373D01*
X161526095Y-90222579D01*
X161526095Y-89811784D01*
X161438397Y-89811784D01*
X161350700Y-89811784D01*
X161350700Y-90148728D01*
X161350700Y-90209122D01*
X161350700Y-90485671D01*
X161182228Y-90485671D01*
X161013756Y-90485671D01*
X160752189Y-90485671D01*
X160759273Y-90475338D01*
X160772980Y-90448292D01*
X160787259Y-90411813D01*
X160799387Y-90371738D01*
X160808352Y-90331047D01*
X160810334Y-90317896D01*
X160813420Y-90285528D01*
X160815166Y-90248340D01*
X160815569Y-90209122D01*
X160814625Y-90170663D01*
X160812329Y-90135755D01*
X160808677Y-90107187D01*
X160795079Y-90049435D01*
X160774379Y-89994440D01*
X160747313Y-89946117D01*
X160713946Y-89904523D01*
X160674343Y-89869714D01*
X160628569Y-89841747D01*
X160576689Y-89820679D01*
X160518768Y-89806566D01*
X160454872Y-89799465D01*
X160394461Y-89799052D01*
X160331834Y-89805510D01*
X160274774Y-89819192D01*
X160223412Y-89839998D01*
X160177881Y-89867831D01*
X160138312Y-89902592D01*
X160104836Y-89944183D01*
X160077584Y-89992504D01*
X160056688Y-90047458D01*
X160042279Y-90108945D01*
X160040884Y-90118006D01*
X160037645Y-90150088D01*
X160035800Y-90187407D01*
X160035554Y-90209122D01*
X160035350Y-90227090D01*
X159781476Y-90227090D01*
X159781661Y-90209122D01*
X159780716Y-90170663D01*
X159778420Y-90135755D01*
X159774769Y-90107187D01*
X159761170Y-90049435D01*
X159740470Y-89994440D01*
X159713404Y-89946117D01*
X159680037Y-89904523D01*
X159640434Y-89869714D01*
X159594660Y-89841747D01*
X159542780Y-89820679D01*
X159484859Y-89806566D01*
X159420963Y-89799465D01*
X159360552Y-89799052D01*
X159297925Y-89805510D01*
X159240865Y-89819192D01*
X159189504Y-89839998D01*
X159143973Y-89867831D01*
X159104403Y-89902592D01*
X159070927Y-89944183D01*
X159043675Y-89992504D01*
X159022779Y-90047458D01*
X159008370Y-90108945D01*
X159006976Y-90118006D01*
X159003736Y-90150088D01*
X159001891Y-90187407D01*
X159001442Y-90227090D01*
X157030438Y-90227090D01*
X157030438Y-85750000D01*
X157030438Y-83880656D01*
X159338270Y-83880656D01*
X159338270Y-84083745D01*
X159338270Y-84286834D01*
X160182937Y-84286834D01*
X161027603Y-84286834D01*
X161027603Y-84944567D01*
X161027603Y-85602299D01*
X160235968Y-85602299D01*
X159444333Y-85602299D01*
X159445536Y-85804234D01*
X159446738Y-86006169D01*
X160237171Y-86007336D01*
X161027603Y-86008504D01*
X161027603Y-86869312D01*
X161027603Y-87730120D01*
X161267618Y-87730120D01*
X161507632Y-87730120D01*
X162495384Y-87730120D01*
X162735399Y-87730120D01*
X162975413Y-87730120D01*
X162975413Y-86846220D01*
X162975413Y-85962320D01*
X164002399Y-85962320D01*
X165029384Y-85962320D01*
X165029384Y-86846220D01*
X165029384Y-87730120D01*
X165269399Y-87730120D01*
X165509413Y-87730120D01*
X165509413Y-85805388D01*
X165509413Y-83880656D01*
X165269399Y-83880656D01*
X165029384Y-83880656D01*
X165029384Y-84711475D01*
X165029384Y-85542295D01*
X164002399Y-85542295D01*
X162975413Y-85542295D01*
X162975413Y-84711475D01*
X162975413Y-83880656D01*
X162735399Y-83880656D01*
X162495384Y-83880656D01*
X162495384Y-85805388D01*
X162495384Y-87730120D01*
X161507632Y-87730120D01*
X161507632Y-85805388D01*
X161507632Y-83880656D01*
X160422951Y-83880656D01*
X159338270Y-83880656D01*
X157030438Y-83880656D01*
X157030438Y-81318962D01*
X157713556Y-81318962D01*
X157713556Y-81385889D01*
X157713556Y-81452817D01*
X157768944Y-81452817D01*
X157824332Y-81452817D01*
X157824332Y-81538206D01*
X157824332Y-81623596D01*
X157914234Y-81623596D01*
X158004135Y-81623596D01*
X158005393Y-81539360D01*
X158006341Y-81475895D01*
X158572070Y-81475895D01*
X158572070Y-81549746D01*
X158572070Y-81623596D01*
X158885935Y-81623596D01*
X159199800Y-81623596D01*
X159199626Y-81562439D01*
X159199451Y-81501281D01*
X159081611Y-81392813D01*
X159070765Y-81382802D01*
X159038237Y-81352486D01*
X159004821Y-81320963D01*
X158972063Y-81289713D01*
X158941510Y-81260215D01*
X158914709Y-81233952D01*
X158893204Y-81212404D01*
X158891351Y-81210494D01*
X159415415Y-81210494D01*
X159417243Y-81276751D01*
X159423995Y-81344690D01*
X159435788Y-81405081D01*
X159452692Y-81458066D01*
X159474779Y-81503788D01*
X159502119Y-81542391D01*
X159534784Y-81574018D01*
X159572843Y-81598812D01*
X159616369Y-81616917D01*
X159621209Y-81618436D01*
X159640999Y-81623797D01*
X159660676Y-81627350D01*
X159683353Y-81629548D01*
X159712139Y-81630842D01*
X159736259Y-81631193D01*
X159774242Y-81629535D01*
X159807148Y-81624561D01*
X159837403Y-81615833D01*
X159867432Y-81602916D01*
X159884948Y-81593405D01*
X159923372Y-81565198D01*
X159956291Y-81529631D01*
X159983655Y-81486775D01*
X159988383Y-81475895D01*
X160247556Y-81475895D01*
X160247556Y-81549746D01*
X160247556Y-81623596D01*
X160561421Y-81623596D01*
X160875286Y-81623596D01*
X160875286Y-81563848D01*
X160875286Y-81538206D01*
X164614278Y-81538206D01*
X164616332Y-81563108D01*
X164624693Y-81588927D01*
X164639911Y-81609227D01*
X164662439Y-81624817D01*
X164669212Y-81627771D01*
X164691509Y-81633455D01*
X164717478Y-81636003D01*
X164743418Y-81635199D01*
X164765630Y-81630829D01*
X164769430Y-81629511D01*
X164793900Y-81616049D01*
X164811716Y-81596346D01*
X164822605Y-81570809D01*
X164826295Y-81539848D01*
X164826264Y-81536661D01*
X164822081Y-81506043D01*
X164810917Y-81481455D01*
X164792854Y-81462984D01*
X164767974Y-81450715D01*
X164736359Y-81444735D01*
X164702325Y-81445119D01*
X164672140Y-81452134D01*
X164647634Y-81465415D01*
X164629416Y-81484499D01*
X164620329Y-81504100D01*
X164618095Y-81508918D01*
X164614278Y-81538206D01*
X160875286Y-81538206D01*
X160875286Y-81504100D01*
X160777290Y-81412685D01*
X160754099Y-81391040D01*
X160707244Y-81347202D01*
X160666489Y-81308873D01*
X160631348Y-81275550D01*
X160601337Y-81246731D01*
X160575967Y-81221913D01*
X160554755Y-81200594D01*
X160537213Y-81182270D01*
X160522856Y-81166440D01*
X160511198Y-81152600D01*
X160501752Y-81140247D01*
X160494034Y-81128881D01*
X160487556Y-81117996D01*
X160481834Y-81107092D01*
X160470583Y-81078657D01*
X160464379Y-81046874D01*
X160464919Y-81016761D01*
X160472154Y-80989912D01*
X160486037Y-80967923D01*
X160493615Y-80960457D01*
X160517818Y-80945157D01*
X160546913Y-80936940D01*
X160580249Y-80935725D01*
X160617171Y-80941433D01*
X160657027Y-80953983D01*
X160699164Y-80973297D01*
X160742928Y-80999294D01*
X160747851Y-81002472D01*
X160762036Y-81010721D01*
X160772692Y-81015573D01*
X160777812Y-81016064D01*
X160779214Y-81014473D01*
X160786098Y-81006861D01*
X160797463Y-80994391D01*
X160812135Y-80978350D01*
X160828941Y-80960023D01*
X160838123Y-80949959D01*
X160853147Y-80933170D01*
X160864958Y-80919552D01*
X160872528Y-80910298D01*
X160874831Y-80906604D01*
X160841443Y-80881529D01*
X160811722Y-80860665D01*
X160785493Y-80844191D01*
X160761090Y-80831137D01*
X160736848Y-80820535D01*
X160711100Y-80811418D01*
X160675664Y-80802008D01*
X164973996Y-80802008D01*
X164973996Y-80875859D01*
X164973996Y-80949709D01*
X165096311Y-80949709D01*
X165218626Y-80949709D01*
X165218626Y-81286653D01*
X165218626Y-81539848D01*
X165218626Y-81623596D01*
X165313247Y-81623596D01*
X165407868Y-81623596D01*
X165407868Y-81387616D01*
X165846550Y-81387616D01*
X165847282Y-81419763D01*
X165851249Y-81447672D01*
X165851534Y-81448889D01*
X165865406Y-81487757D01*
X165887442Y-81523036D01*
X165917137Y-81554282D01*
X165953988Y-81581055D01*
X165997489Y-81602911D01*
X166047138Y-81619409D01*
X166053287Y-81620937D01*
X166073287Y-81624876D01*
X166095930Y-81627659D01*
X166123408Y-81629507D01*
X166157914Y-81630643D01*
X166165330Y-81630787D01*
X166217937Y-81630405D01*
X166264389Y-81627135D01*
X166307104Y-81620620D01*
X166348503Y-81610507D01*
X166391005Y-81596441D01*
X166425622Y-81583684D01*
X166426147Y-81549746D01*
X166681792Y-81549746D01*
X166681792Y-81623596D01*
X166940269Y-81623596D01*
X167198746Y-81623596D01*
X167198746Y-81212802D01*
X167198746Y-80802008D01*
X166940269Y-80802008D01*
X166681792Y-80802008D01*
X166681792Y-80873551D01*
X166681792Y-80945094D01*
X166845648Y-80945094D01*
X167009504Y-80945094D01*
X167009504Y-81035099D01*
X167009504Y-81125104D01*
X166857187Y-81125104D01*
X166704870Y-81125104D01*
X166704870Y-81196647D01*
X166704870Y-81268190D01*
X166857187Y-81268190D01*
X167009504Y-81268190D01*
X167009504Y-81372042D01*
X167009504Y-81475895D01*
X166845648Y-81475895D01*
X166681792Y-81475895D01*
X166681792Y-81479132D01*
X166681792Y-81549746D01*
X166426147Y-81549746D01*
X166426883Y-81502096D01*
X166427076Y-81479132D01*
X166426880Y-81455620D01*
X166426277Y-81437063D01*
X166425317Y-81424883D01*
X166424049Y-81420507D01*
X166421160Y-81421157D01*
X166410874Y-81424431D01*
X166395345Y-81429839D01*
X166376632Y-81436681D01*
X166355592Y-81444283D01*
X166300127Y-81461751D01*
X166248546Y-81474215D01*
X166201312Y-81481723D01*
X166158883Y-81484325D01*
X166121719Y-81482069D01*
X166090281Y-81475005D01*
X166065028Y-81463183D01*
X166046421Y-81446651D01*
X166034919Y-81425458D01*
X166030983Y-81399655D01*
X166031269Y-81393479D01*
X166036604Y-81373501D01*
X166049070Y-81354477D01*
X166069178Y-81335907D01*
X166097436Y-81317288D01*
X166134356Y-81298121D01*
X166150021Y-81290711D01*
X166179141Y-81276960D01*
X166208846Y-81262955D01*
X166234673Y-81250801D01*
X166253091Y-81241878D01*
X166294810Y-81218958D01*
X166328895Y-81195496D01*
X166356477Y-81170525D01*
X166378682Y-81143080D01*
X166396639Y-81112197D01*
X166402900Y-81098851D01*
X166407701Y-81085881D01*
X166410641Y-81072422D01*
X166412330Y-81055559D01*
X166413381Y-81032379D01*
X166413642Y-81023178D01*
X166413464Y-80996203D01*
X166411436Y-80974750D01*
X166407338Y-80956042D01*
X166395728Y-80925871D01*
X166373904Y-80891095D01*
X166344749Y-80860312D01*
X166309088Y-80834219D01*
X166267746Y-80813515D01*
X166221550Y-80798899D01*
X166201819Y-80795349D01*
X166170697Y-80792181D01*
X166135167Y-80790499D01*
X166097854Y-80790307D01*
X166061389Y-80791606D01*
X166028398Y-80794400D01*
X166001509Y-80798690D01*
X165993066Y-80800663D01*
X165973363Y-80805853D01*
X165950884Y-80812336D01*
X165927294Y-80819568D01*
X165904259Y-80827005D01*
X165883444Y-80834102D01*
X165866514Y-80840314D01*
X165855135Y-80845097D01*
X165850972Y-80847908D01*
X165851238Y-80848928D01*
X165854214Y-80856698D01*
X165859873Y-80870410D01*
X165862180Y-80875859D01*
X165867432Y-80888263D01*
X165876110Y-80908455D01*
X165885124Y-80929183D01*
X165893692Y-80948646D01*
X165901034Y-80965042D01*
X165906366Y-80976568D01*
X165908907Y-80981424D01*
X165913520Y-80980785D01*
X165925152Y-80977720D01*
X165942015Y-80972719D01*
X165962332Y-80966286D01*
X166011515Y-80952059D01*
X166059089Y-80942192D01*
X166101712Y-80937557D01*
X166138956Y-80938077D01*
X166170391Y-80943673D01*
X166195588Y-80954266D01*
X166214118Y-80969777D01*
X166225550Y-80990128D01*
X166229457Y-81015240D01*
X166229310Y-81023123D01*
X166227870Y-81036942D01*
X166224243Y-81049160D01*
X166217636Y-81060420D01*
X166207257Y-81071367D01*
X166192315Y-81082643D01*
X166172017Y-81094892D01*
X166145572Y-81108756D01*
X166112188Y-81124880D01*
X166071072Y-81143907D01*
X166025887Y-81165327D01*
X165983145Y-81187685D01*
X165947851Y-81208994D01*
X165919216Y-81229909D01*
X165896449Y-81251086D01*
X165878763Y-81273179D01*
X165865367Y-81296843D01*
X165855472Y-81322732D01*
X165854233Y-81327019D01*
X165848913Y-81355333D01*
X165846550Y-81387616D01*
X165407868Y-81387616D01*
X165407868Y-81286653D01*
X165407868Y-80949709D01*
X165527876Y-80949709D01*
X165647883Y-80949709D01*
X165647883Y-80875859D01*
X165647883Y-80802008D01*
X165310940Y-80802008D01*
X164973996Y-80802008D01*
X160675664Y-80802008D01*
X160663531Y-80798786D01*
X160601256Y-80790116D01*
X160536035Y-80789702D01*
X160508876Y-80791888D01*
X160456653Y-80800940D01*
X160410812Y-80816173D01*
X160370872Y-80837769D01*
X160336351Y-80865913D01*
X160325026Y-80877824D01*
X160300999Y-80910927D01*
X160285131Y-80947218D01*
X160277124Y-80987535D01*
X160276677Y-81032714D01*
X160278446Y-81051927D01*
X160282735Y-81077987D01*
X160289540Y-81102991D01*
X160299352Y-81127589D01*
X160312665Y-81152435D01*
X160329972Y-81178180D01*
X160342923Y-81194401D01*
X160351765Y-81205475D01*
X160378537Y-81234973D01*
X160410780Y-81267325D01*
X160448987Y-81303183D01*
X160493652Y-81343199D01*
X160545266Y-81388024D01*
X160568679Y-81408227D01*
X160591193Y-81427856D01*
X160610432Y-81444844D01*
X160625458Y-81458353D01*
X160635333Y-81467549D01*
X160639118Y-81471596D01*
X160639114Y-81471701D01*
X160634136Y-81472737D01*
X160620564Y-81473648D01*
X160598978Y-81474423D01*
X160569958Y-81475048D01*
X160534086Y-81475510D01*
X160491942Y-81475797D01*
X160444106Y-81475895D01*
X160247556Y-81475895D01*
X159988383Y-81475895D01*
X160005414Y-81436702D01*
X160021520Y-81379484D01*
X160022041Y-81377074D01*
X160031993Y-81318119D01*
X160037436Y-81256705D01*
X160038502Y-81194401D01*
X160035325Y-81132772D01*
X160028038Y-81073385D01*
X160016773Y-81017808D01*
X160001665Y-80967607D01*
X159982846Y-80924349D01*
X159966357Y-80898111D01*
X159937750Y-80865567D01*
X159903414Y-80837359D01*
X159865267Y-80814999D01*
X159825223Y-80799999D01*
X159801088Y-80795046D01*
X159768547Y-80791180D01*
X159733770Y-80789293D01*
X159700383Y-80789570D01*
X159672012Y-80792195D01*
X159640821Y-80798564D01*
X159593533Y-80814986D01*
X159551821Y-80838720D01*
X159515678Y-80869778D01*
X159485097Y-80908170D01*
X159485037Y-80908279D01*
X159460073Y-80953906D01*
X159440599Y-81006996D01*
X159426669Y-81067450D01*
X159418276Y-81135280D01*
X159415415Y-81210494D01*
X158891351Y-81210494D01*
X158874583Y-81193213D01*
X158848658Y-81165327D01*
X158828545Y-81141594D01*
X158813518Y-81120829D01*
X158802848Y-81101845D01*
X158795809Y-81083460D01*
X158791674Y-81064486D01*
X158789715Y-81043741D01*
X158789823Y-81016623D01*
X158793939Y-80994691D01*
X158802858Y-80977135D01*
X158817304Y-80961803D01*
X158817937Y-80961265D01*
X158843414Y-80945727D01*
X158873686Y-80937466D01*
X158908037Y-80936372D01*
X158945753Y-80942332D01*
X158986118Y-80955236D01*
X159028418Y-80974973D01*
X159071937Y-81001430D01*
X159098699Y-81019589D01*
X159129633Y-80985850D01*
X159135629Y-80979311D01*
X159152291Y-80961159D01*
X159168260Y-80943782D01*
X159180763Y-80930195D01*
X159200960Y-80908279D01*
X159189995Y-80899068D01*
X159170642Y-80883633D01*
X159117680Y-80848603D01*
X159061412Y-80820918D01*
X159003634Y-80801519D01*
X158981699Y-80797017D01*
X158949168Y-80792949D01*
X158913157Y-80790606D01*
X158876169Y-80790016D01*
X158840709Y-80791208D01*
X158809282Y-80794209D01*
X158784390Y-80799048D01*
X158769250Y-80803611D01*
X158723597Y-80822462D01*
X158684540Y-80846854D01*
X158652455Y-80876301D01*
X158627717Y-80910323D01*
X158610700Y-80948435D01*
X158601778Y-80990155D01*
X158601327Y-81035000D01*
X158601699Y-81039117D01*
X158605660Y-81066955D01*
X158612355Y-81093760D01*
X158622271Y-81120164D01*
X158635889Y-81146798D01*
X158653695Y-81174293D01*
X158676172Y-81203281D01*
X158703803Y-81234391D01*
X158737072Y-81268255D01*
X158776464Y-81305504D01*
X158806534Y-81332481D01*
X158822462Y-81346770D01*
X158875550Y-81392682D01*
X158895814Y-81410066D01*
X158917996Y-81429343D01*
X158936887Y-81446036D01*
X158951545Y-81459302D01*
X158961030Y-81468299D01*
X158964401Y-81472185D01*
X158962907Y-81472642D01*
X158953573Y-81473398D01*
X158936501Y-81474086D01*
X158912638Y-81474689D01*
X158882932Y-81475190D01*
X158848331Y-81475570D01*
X158809783Y-81475811D01*
X158768236Y-81475895D01*
X158572070Y-81475895D01*
X158006341Y-81475895D01*
X158006651Y-81455124D01*
X158197047Y-81453919D01*
X158387443Y-81452714D01*
X158387443Y-81392597D01*
X158387443Y-81332481D01*
X158305515Y-81221547D01*
X158304774Y-81220543D01*
X158285189Y-81194022D01*
X158268212Y-81171029D01*
X158253109Y-81150564D01*
X158239147Y-81131631D01*
X158225593Y-81113232D01*
X158211712Y-81094371D01*
X158196772Y-81074050D01*
X158180038Y-81051273D01*
X158160778Y-81025041D01*
X158138257Y-80994358D01*
X158111743Y-80958226D01*
X158080502Y-80915649D01*
X157997420Y-80802419D01*
X157910876Y-80802213D01*
X157824332Y-80802008D01*
X157824332Y-81060485D01*
X157824332Y-81318962D01*
X157768944Y-81318962D01*
X157713556Y-81318962D01*
X157030438Y-81318962D01*
X157030438Y-80280438D01*
X162500000Y-80280438D01*
X167969562Y-80280438D01*
X167969562Y-81212802D01*
X167969562Y-85750000D01*
G37*
%TO.C,D3*%
D13*
X117510000Y-84350000D02*
X112000000Y-84350000D01*
X117510000Y-84350000D02*
X117510000Y-87650000D01*
X117510000Y-87650000D02*
X112000000Y-87650000D01*
%TO.C,C14*%
X165761252Y-101015000D02*
X165238748Y-101015000D01*
X165761252Y-102485000D02*
X165238748Y-102485000D01*
%TO.C,Q2*%
D12*
X132425000Y-134475000D02*
X132425000Y-137525000D01*
X132425000Y-134475000D02*
X132675000Y-134475000D01*
X132425000Y-137525000D02*
X132675000Y-137525000D01*
X135275000Y-134475000D02*
X135525000Y-134475000D01*
X135275000Y-137525000D02*
X135525000Y-137525000D01*
X135525000Y-137525000D02*
X135525000Y-134475000D01*
D11*
X132400000Y-134000000D02*
G75*
G02*
X132100000Y-134000000I-150000J0D01*
G01*
X132100000Y-134000000D02*
G75*
G02*
X132400000Y-134000000I150000J0D01*
G01*
%TO.C,C11*%
D13*
X122538748Y-85390000D02*
X123961252Y-85390000D01*
X122538748Y-88110000D02*
X123961252Y-88110000D01*
%TO.C,R7*%
X82015000Y-84889564D02*
X82015000Y-84435436D01*
X83485000Y-84889564D02*
X83485000Y-84435436D01*
%TO.C,D1*%
X92350000Y-90260000D02*
X92350000Y-84750000D01*
X95650000Y-90260000D02*
X92350000Y-90260000D01*
X95650000Y-90260000D02*
X95650000Y-84750000D01*
%TO.C,R9*%
X108227064Y-92515000D02*
X107772936Y-92515000D01*
X108227064Y-93985000D02*
X107772936Y-93985000D01*
%TO.C,C8*%
X85265000Y-91988748D02*
X85265000Y-92511252D01*
X86735000Y-91988748D02*
X86735000Y-92511252D01*
%TO.C,R18*%
X137522936Y-125015000D02*
X137977064Y-125015000D01*
X137522936Y-126485000D02*
X137977064Y-126485000D01*
%TO.C,L1*%
D12*
X102000000Y-80950000D02*
X102000000Y-82250000D01*
X102000000Y-86250000D02*
X102000000Y-87550000D01*
X102000000Y-87550000D02*
X109000000Y-87550000D01*
X109000000Y-80950000D02*
X102000000Y-80950000D01*
X109000000Y-82250000D02*
X109000000Y-80950000D01*
X109000000Y-87550000D02*
X109000000Y-86250000D01*
%TO.C,L2*%
X95500000Y-102975000D02*
X97000000Y-102975000D01*
X97000000Y-98025000D02*
X95500000Y-98025000D01*
%TO.C,R2*%
D13*
X115265000Y-91977064D02*
X115265000Y-91522936D01*
X116735000Y-91977064D02*
X116735000Y-91522936D01*
%TO.C,R4*%
X82772936Y-90765000D02*
X83227064Y-90765000D01*
X82772936Y-92235000D02*
X83227064Y-92235000D01*
%TO.C,R1*%
X113015000Y-95727064D02*
X113015000Y-95272936D01*
X114485000Y-95727064D02*
X114485000Y-95272936D01*
%TO.C,C7*%
X179238748Y-101015000D02*
X179761252Y-101015000D01*
X179238748Y-102485000D02*
X179761252Y-102485000D01*
%TO.C,C1*%
X115265000Y-95761252D02*
X115265000Y-95238748D01*
X116735000Y-95761252D02*
X116735000Y-95238748D01*
%TO.C,U1*%
X110640000Y-89390000D02*
X110640000Y-89865000D01*
X110640000Y-92135000D02*
X110640000Y-92610000D01*
X110640000Y-92610000D02*
X111115000Y-92610000D01*
X111115000Y-89390000D02*
X110640000Y-89390000D01*
X113385000Y-92610000D02*
X113860000Y-92610000D01*
X113860000Y-89390000D02*
X113385000Y-89390000D01*
X113860000Y-89865000D02*
X113860000Y-89390000D01*
X113860000Y-92610000D02*
X113860000Y-92135000D01*
X114720000Y-90490000D02*
X114390000Y-90250000D01*
X114720000Y-90010000D01*
X114720000Y-90490000D01*
G36*
X114720000Y-90490000D02*
G01*
X114390000Y-90250000D01*
X114720000Y-90010000D01*
X114720000Y-90490000D01*
G37*
%TO.C,J1*%
X74065000Y-93700000D02*
X72500000Y-93700000D01*
D12*
X74175000Y-84300000D02*
X72500000Y-84300000D01*
D13*
X77955000Y-84300000D02*
X76175000Y-84300000D01*
X77955000Y-93700000D02*
X76175000Y-93700000D01*
%TO.C,D2*%
X86760000Y-100850000D02*
X81250000Y-100850000D01*
X86760000Y-100850000D02*
X86760000Y-104150000D01*
X86760000Y-104150000D02*
X81250000Y-104150000D01*
%TO.C,SW4*%
D12*
X122444000Y-137694000D02*
X127016000Y-137694000D01*
X127016000Y-139726000D01*
X122444000Y-139726000D01*
X122444000Y-137694000D01*
X122444000Y-140234000D02*
X127016000Y-140234000D01*
X127016000Y-142266000D01*
X122444000Y-142266000D01*
X122444000Y-140234000D01*
%TO.C,U6*%
D13*
X83190000Y-120650000D02*
X83190000Y-139050000D01*
X83190000Y-120650000D02*
X89390000Y-120650000D01*
X83190000Y-139050000D02*
X89390000Y-139050000D01*
X108040000Y-120650000D02*
X109040000Y-120650000D01*
X109040000Y-120650000D02*
X109040000Y-122150000D01*
X109040000Y-139050000D02*
X108040000Y-139050000D01*
X109040000Y-139050000D02*
X109040000Y-137550000D01*
X90065000Y-120650000D02*
X89565000Y-120650000D01*
X90065000Y-120150000D01*
X90065000Y-120650000D01*
G36*
X90065000Y-120650000D02*
G01*
X89565000Y-120650000D01*
X90065000Y-120150000D01*
X90065000Y-120650000D01*
G37*
%TD*%
M02*
